{
.formatVersion = 3;
axes = (
{
name = Weight;
tag = wght;
}
);
classes = (
{
code = "quotesingle parenleft parenright hyphen colon less greater at A O bracketleft bracketright a i o braceleft braceright exclamdown copyright guillemotleft periodcentered guillemotright questiondown Scedilla scedilla Tcedilla tcedilla Decyr Zhecyr Kacyr Elcyr becyr vecyr gecyr decyr zhecyr zecyr icyr ishortcyr kacyr elcyr encyr pecyr tecyr tsecyr checyr shacyr shchacyr softcyr yucyr igravecyr endash emdash guilsinglleft guilsinglright arrowleft arrowright";
name = aalt;
},
{
code = "quoteright parenleft.case parenright.case hyphen.case colon.case less.case greater.case at.case ordfeminine ordmasculine bracketleft.case bracketright.case ordfeminine i.loclTRK ordmasculine braceleft.case braceright.case exclamdown.case copyright.case guillemotleft.case periodcentered.case guillemotright.case questiondown.case Scommaaccent scommaaccent Tcommaaccent tcommaaccent Decyr.loclBGR Zhecyr.loclBGR Kacyr.loclBGR Elcyr.loclBGR becyr.loclSRB vecyr.loclBGR gecyr.loclBGR decyr.loclBGR zhecyr.loclBGR zecyr.loclBGR icyr.loclBGR ishortcyr.loclBGR kacyr.loclBGR elcyr.loclBGR encyr.loclBGR pecyr.loclBGR tecyr.loclBGR tsecyr.loclBGR checyr.loclBGR shacyr.loclBGR shchacyr.loclBGR softcyr.loclBGR yucyr.loclBGR igravecyr.loclBGR endash.case emdash.case guilsinglleft.case guilsinglright.case arrowleft.case arrowright.case";
name = aalt2;
},
{
code = "quotesingle parenleft parenright hyphen colon less greater at bracketleft bracketright braceleft braceright exclamdown guillemotleft periodcentered guillemotright questiondown endash emdash arrowleft arrowright";
name = calt;
},
{
code = "quoteright parenleft.case parenright.case hyphen.case colon.case less.case greater.case at.case bracketleft.case bracketright.case braceleft.case braceright.case exclamdown.case guillemotleft.case periodcentered.case guillemotright.case questiondown.case endash.case emdash.case arrowleft.case arrowright.case";
name = calt2;
},
{

glyphs = (
{
glyphname = .notdef;
layers = (
{
layerId = "8DF6C0F1-DE73-4D1F-9C90-51BE488A4B4C";
shapes = (
{
closed = 1;
nodes = (
(53,0,l),
(72,114,l),
(1130,114,l),
(1111,0,l)
);
},
{
closed = 1;
nodes = (
(77,144,l),
(90,224,l),
(1148,224,l),
(1135,144,l)
);
},
{
closed = 1;
nodes = (
(96,260,l),
(108,334,l),
(1167,334,l),
(1154,260,l)
);
},
{
closed = 1;
nodes = (
(115,374,l),
(127,444,l),
(1185,444,l),
(1173,374,l)
);
},
{
closed = 1;
nodes = (
(134,490,l),
(145,556,l),
(1203,556,l),
(1193,490,l)
);
},
{
closed = 1;
nodes = (
(153,606,l),
(163,666,l),
(1222,666,l),
(1212,606,l)
);
},
{
closed = 1;
nodes = (
(172,720,l),
(181,776,l),
(1240,776,l),
(1231,720,l)
);
},
{
closed = 1;
nodes = (
(192,838,l),
(200,886,l),
(1258,886,l),
(1250,838,l)
);
},
{
closed = 1;
nodes = (
(211,952,l),
(218,996,l),
(1276,996,l),
(1269,952,l)
);
},
{
closed = 1;
nodes = (
(229,1066,l),
(236,1108,l),
(1295,1108,l),
(1288,1066,l)
);
},
{
closed = 1;
nodes = (
(249,1184,l),
(255,1220,l),
(1313,1220,l),
(1307,1184,l)
);
},
{
closed = 1;
nodes = (
(268,1298,l),
(273,1330,l),
(1332,1330,l),
(1326,1298,l)
);
},
{
closed = 1;
nodes = (
(287,1414,l),
(291,1440,l),
(1350,1440,l),
(1345,1414,l)
);
}
);
width = 1422;
},
{
layerId = "87233CA6-F023-426F-ADAE-E8786DEFE8CF";
shapes = (
{
closed = 1;
nodes = (
(13,0,l),
(32,114,l),
(1090,114,l),
(1071,0,l)
);
},
{
closed = 1;
nodes = (
(37,144,l),
(50,224,l),
(1108,224,l),
(1095,144,l)
);
},
{
closed = 1;
nodes = (
(56,260,l),
(68,334,l),
(1127,334,l),
(1114,260,l)
);
},
{
closed = 1;
nodes = (
(75,374,l),
(87,444,l),
(1145,444,l),
(1133,374,l)
);
},
{
closed = 1;
nodes = (
(94,490,l),
(105,556,l),
(1163,556,l),
(1153,490,l)
);
},
{
closed = 1;
nodes = (
(113,606,l),
(123,666,l),
(1182,666,l),
(1172,606,l)
);
},
{
closed = 1;
nodes = (
(132,720,l),
(141,776,l),
(1200,776,l),
(1191,720,l)
);
},
{
closed = 1;
nodes = (
(152,838,l),
(160,886,l),
(1218,886,l),
(1210,838,l)
);
},
{
closed = 1;
nodes = (
(171,952,l),
(178,996,l),
(1236,996,l),
(1229,952,l)
);
},
{
closed = 1;
nodes = (
(189,1066,l),
(196,1108,l),
(1255,1108,l),
(1248,1066,l)
);
},
{
closed = 1;
nodes = (
(209,1184,l),
(215,1220,l),
(1273,1220,l),
(1267,1184,l)
);
},
{
closed = 1;
nodes = (
(228,1298,l),
(233,1330,l),
(1292,1330,l),
(1286,1298,l)
);
},
{
closed = 1;
nodes = (
(247,1414,l),
(251,1440,l),
(1310,1440,l),
(1305,1414,l)
);
}
);
width = 1422;
},
{
layerId = "C35D8726-4A09-4B72-A1E9-09A0D38B7D70";
shapes = (
{
closed = 1;
nodes = (
(53,0,l),
(72,114,l),
(1130,114,l),
(1111,0,l)
);
},
{
closed = 1;
nodes = (
(77,144,l),
(90,224,l),
(1148,224,l),
(1135,144,l)
);
},
{
closed = 1;
nodes = (
(96,260,l),
(108,334,l),
(1167,334,l),
(1154,260,l)
);
},
{
closed = 1;
nodes = (
(115,374,l),
(127,444,l),
(1185,444,l),
(1173,374,l)
);
},
{
closed = 1;
nodes = (
(134,490,l),
(145,556,l),
(1203,556,l),
(1193,490,l)
);
},
{
closed = 1;
nodes = (
(153,606,l),
(163,666,l),
(1222,666,l),
(1212,606,l)
);
},
{
closed = 1;
nodes = (
(172,720,l),
(181,776,l),
(1240,776,l),
(1231,720,l)
);
},
{
closed = 1;
nodes = (
(192,838,l),
(200,886,l),
(1258,886,l),
(1250,838,l)
);
},
{
closed = 1;
nodes = (
(211,952,l),
(218,996,l),
(1276,996,l),
(1269,952,l)
);
},
{
closed = 1;
nodes = (
(229,1066,l),
(236,1108,l),
(1295,1108,l),
(1288,1066,l)
);
},
{
closed = 1;
nodes = (
(249,1184,l),
(255,1220,l),
(1313,1220,l),
(1307,1184,l)
);
},
{
closed = 1;
nodes = (
(268,1298,l),
(273,1330,l),
(1332,1330,l),
(1326,1298,l)
);
},
{
closed = 1;
nodes = (
(287,1414,l),
(291,1440,l),
(1350,1440,l),
(1345,1414,l)
);
}
);
width = 1422;
}
);
},
{
glyphname = exclam;
layers = (
{
layerId = "8DF6C0F1-DE73-4D1F-9C90-51BE488A4B4C";
shapes = (
{
closed = 1;
nodes = (
(258,-22,o),
(223,-7,o),
(198,24,cs),
(172,55,o),
(163,92,o),
(171,136,cs),
(178,181,o),
(199,218,o),
(235,249,cs),
(270,279,o),
(311,294,o),
(356,294,cs),
(402,294,o),
(437,279,o),
(462,249,cs),
(487,218,o),
(496,181,o),
(489,136,cs),
(481,92,o),
(460,55,o),
(425,24,cs),
(390,-7,o),
(349,-22,o),
(303,-22,cs)
);
},
{
closed = 1;
nodes = (
(261,420,l),
(301,833,l),
(401,1440,l),
(689,1440,l),
(589,833,l),
(493,420,l)
);
}
);
width = 706;
},
{
layerId = "87233CA6-F023-426F-ADAE-E8786DEFE8CF";
shapes = (
{
closed = 1;
nodes = (
(188,-13,o),
(163,-3,o),
(145,20,c),
(126,42,o),
(120,68,o),
(125,99,cs),
(131,131,o),
(146,158,o),
(172,180,cs),
(197,202,o),
(225,212,o),
(258,212,cs),
(290,212,o),
(315,202,o),
(334,180,cs),
(352,158,o),
(358,131,o),
(353,99,cs),
(347,67,o),
(332,41,o),
(307,19,cs),
(281,-3,o),
(253,-13,o),
(220,-13,cs)
);
},
{
closed = 1;
nodes = (
(222,388,l),
(268,815,l),
(371,1440,l),
(550,1440,l),
(447,815,l),
(358,388,l)
);
}
);
width = 608;
},
{
layerId = "C35D8726-4A09-4B72-A1E9-09A0D38B7D70";
shapes = (
{
closed = 1;
nodes = (
(199,-6,o),
(183,1,o),
(172,16,c),
(159,30,o),
(155,47,o),
(158,67,cs),
(162,88,o),
(172,106,o),
(189,120,cs),
(205,134,o),
(223,141,o),
(244,141,cs),
(265,141,o),
(281,134,o),
(294,120,cs),
(306,106,o),
(310,88,o),
(306,67,cs),
(303,46,o),
(293,29,o),
(276,15,cs),
(259,1,o),
(241,-6,o),
(220,-6,cs)
);
},
{
closed = 1;
nodes = (
(261,360,l),
(311,800,l),
(417,1440,l),
(501,1440,l),
(395,800,l),
(313,360,l)
);
}
);
width = 523;
}
);
unicode = 33;
},
{
glyphname = numbersign;
layers = (
{
layerId = "8DF6C0F1-DE73-4D1F-9C90-51BE488A4B4C";
shapes = (
{
closed = 1;
nodes = (
(282,2,l),
(444,378,l),
(103,378,l),
(212,634,l),
(553,634,l),
(640,840,l),
(299,840,l),
(409,1094,l),
(749,1094,l),
(898,1440,l),
(1157,1440,l),
(1007,1094,l),
(1219,1094,l),
(1368,1440,l),
(1627,1440,l),
(1478,1094,l),
(1819,1094,l),
(1710,840,l),
(1369,840,l),
(1280,634,l),
(1621,634,l),
(1512,378,l),
(1171,378,l),
(1011,2,l),
(752,2,l),
(912,378,l),
(701,378,l),
(540,2,l)
);
},
{
closed = 1;
nodes = (
(812,634,l),
(1021,634,l),
(1110,840,l),
(899,840,l)
);
}
);
width = 1815;
},
{
layerId = "87233CA6-F023-426F-ADAE-E8786DEFE8CF";
shapes = (
{
closed = 1;
nodes = (
(317,1,l),
(497,423,l),
(110,423,l),
(180,587,l),
(568,587,l),
(694,885,l),
(308,885,l),
(378,1048,l),
(765,1048,l),
(933,1440,l),
(1099,1440,l),
(931,1048,l),
(1236,1048,l),
(1403,1440,l),
(1569,1440,l),
(1401,1048,l),
(1788,1048,l),
(1719,885,l),
(1332,885,l),
(1203,587,l),
(1590,587,l),
(1521,423,l),
(1134,423,l),
(953,1,l),
(787,1,l),
(966,423,l),
(663,423,l),
(482,1,l)
);
},
{
closed = 1;
nodes = (
(734,587,l),
(1038,587,l),
(1164,885,l),
(861,885,l)
);
}
);
width = 1792;
},
{
layerId = "C35D8726-4A09-4B72-A1E9-09A0D38B7D70";
shapes = (
{
closed = 1;
nodes = (
(348,0,l),
(544,462,l),
(117,462,l),
(152,546,l),
(581,546,l),
(742,924,l),
(315,924,l),
(350,1008,l),
(779,1008,l),
(963,1440,l),
(1049,1440,l),
(864,1008,l),
(1250,1008,l),
(1433,1440,l),
(1519,1440,l),
(1334,1008,l),
(1761,1008,l),
(1726,924,l),
(1299,924,l),
(1136,546,l),
(1563,546,l),
(1528,462,l),
(1101,462,l),
(903,0,l),
(818,0,l),
(1014,462,l),
(630,462,l),
(432,0,l)
);
},
{
closed = 1;
nodes = (
(666,546,l),
(1052,546,l),
(1212,924,l),
(828,924,l)
);
}
);
width = 1772;
}
);
unicode = 35;
},
{
glyphname = dollar;
layers = (
{
layerId = "8DF6C0F1-DE73-4D1F-9C90-51BE488A4B4C";
shapes = (
{
closed = 1;
nodes = (
(398,-200,l),
(438,40,l),
(704,40,l),
(665,-200,l)
);
},
{
closed = 1;
nodes = (
(663,1398,l),
(702,1638,l),
(969,1638,l),
(929,1398,l)
);
},
{
closed = 1;
nodes = (
(275,-30,o),
(69,133,o),
(77,440,c),
(348,482,l),
(358,325,o),
(460,224,o),
(619,224,cs),
(732,224,o),
(886,280,o),
(906,408,cs),
(918,492,o),
(873,526,o),
(799,552,cs),
(468,662,ls),
(276,726,o),
(197,850,o),
(229,1038,cs),
(278,1324,o),
(518,1469,o),
(800,1468,cs),
(1067,1465,o),
(1244,1327,o),
(1267,1046,c),
(984,996,l),
(975,1128,o),
(890,1209,o),
(754,1214,cs),
(651,1216,o),
(515,1167,o),
(495,1052,cs),
(483,983,o),
(530,934,o),
(650,898,cs),
(887,826,ls),
(1096,761,o),
(1212,660,o),
(1174,428,cs),
(1125,130,o),
(849,-30,o),
(561,-30,cs)
);
}
);
width = 1245;
},
{
layerId = "87233CA6-F023-426F-ADAE-E8786DEFE8CF";
shapes = (
{
closed = 1;
nodes = (
(402,-198,l),
(441,33,l),
(609,33,l),
(571,-198,l)
);
},
{
closed = 1;
nodes = (
(668,1408,l),
(706,1639,l),
(875,1639,l),
(836,1408,l)
);
},
{
closed = 1;
nodes = (
(268,-30,o),
(60,113,o),
(60,396,c),
(230,424,l),
(242,236,o),
(380,133,o),
(563,133,cs),
(727,133,o),
(903,215,o),
(933,392,cs),
(955,526,o),
(872,576,o),
(757,614,cs),
(454,715,ls),
(270,777,o),
(194,893,o),
(224,1066,cs),
(267,1328,o),
(499,1470,o),
(756,1469,cs),
(1015,1468,o),
(1194,1322,o),
(1199,1048,c),
(1023,1016,l),
(1024,1193,o),
(907,1303,o),
(728,1306,c),
(583,1307,o),
(420,1230,o),
(393,1073,cs),
(376,974,o),
(433,908,o),
(582,860,c),
(834,779,l),
(1033,715,o),
(1135,618,o),
(1099,399,cs),
(1054,119,o),
(800,-30,o),
(528,-30,cs)
);
}
);
width = 1165;
},
{
layerId = "C35D8726-4A09-4B72-A1E9-09A0D38B7D70";
shapes = (
{
closed = 1;
nodes = (
(406,-196,l),
(443,26,l),
(525,26,l),
(488,-196,l)
);
},
{
closed = 1;
nodes = (
(673,1416,l),
(710,1640,l),
(792,1640,l),
(755,1416,l)
);
},
{
closed = 1;
nodes = (
(262,-30,o),
(53,95,o),
(45,358,c),
(126,374,l),
(141,158,o),
(310,54,o),
(514,54,cs),
(722,54,o),
(918,159,o),
(956,378,cs),
(987,556,o),
(872,619,o),
(721,668,c),
(441,762,ls),
(265,822,o),
(192,930,o),
(219,1090,cs),
(257,1331,o),
(483,1470,o),
(717,1470,cs),
(969,1470,o),
(1150,1318,o),
(1139,1050,c),
(1058,1034,l),
(1067,1249,o),
(922,1386,o),
(705,1386,cs),
(524,1386,o),
(336,1286,o),
(304,1092,cs),
(283,967,o),
(349,886,o),
(522,826,c),
(788,738,ls),
(977,674,o),
(1067,581,o),
(1033,374,cs),
(991,109,o),
(758,-30,o),
(500,-30,cs)
);
}
);
width = 1095;
}
);
leftKerningGroup = S2;
rightKerningGroup = S;
unicode = 36;
},
{
glyphname = percent;
layers = (
{
layerId = "8DF6C0F1-DE73-4D1F-9C90-51BE488A4B4C";
shapes = (
{
closed = 1;
nodes = (
(275,0,l),
(129,180,l),
(1572,1440,l),
(1718,1258,l)
);
},
{
closed = 1;
nodes = (
(1138,-30,o),
(1020,27,o),
(940,125,o),
(906,256,o),
(918,330,qs),
(930,403,o),
(1009,534,o),
(1121,632,o),
(1259,690,o),
(1330,690,qs),
(1404,690,o),
(1523,634,o),
(1603,536,o),
(1636,405,o),
(1624,330,qs),
(1612,255,o),
(1535,124,o),
(1423,27,o),
(1285,-30,o),
(1211,-30,qs)
);
},
{
closed = 1;
nodes = (
(1274,200,o),
(1324,221,o),
(1366,257,o),
(1394,304,o),
(1398,330,qs),
(1402,356,o),
(1390,403,o),
(1360,439,o),
(1318,460,o),
(1292,460,qs),
(1267,460,o),
(1217,439,o),
(1176,403,o),
(1148,356,o),
(1143,330,qs),
(1139,304,o),
(1152,257,o),
(1181,221,o),
(1224,200,o),
(1249,200,qs)
);
},
{
closed = 1;
nodes = (
(443,750,o),
(325,807,o),
(246,904,o),
(212,1035,o),
(224,1110,qs),
(236,1183,o),
(315,1314,o),
(427,1412,o),
(565,1470,o),
(636,1470,qs),
(710,1470,o),
(829,1413,o),
(908,1316,o),
(942,1185,o),
(930,1110,qs),
(918,1036,o),
(840,905,o),
(727,807,o),
(590,750,o),
(517,750,qs)
);
},
{
closed = 1;
nodes = (
(580,980,o),
(630,1001,o),
(671,1037,o),
(700,1084,o),
(704,1110,qs),
(708,1136,o),
(696,1183,o),
(666,1219,o),
(624,1240,o),
(598,1240,qs),
(573,1240,o),
(523,1219,o),
(482,1183,o),
(454,1136,o),
(449,1110,qs),
(445,1084,o),
(458,1037,o),
(487,1001,o),
(530,980,o),
(555,980,qs)
);
}
);
width = 1747;
},
{
layerId = "87233CA6-F023-426F-ADAE-E8786DEFE8CF";
shapes = (
{
closed = 1;
nodes = (
(213,0,l),
(118,116,l),
(1637,1440,l),
(1731,1324,l)
);
},
{
closed = 1;
nodes = (
(1140,-30,o),
(1022,27,o),
(942,125,o),
(908,256,o),
(920,330,qs),
(932,403,o),
(1011,534,o),
(1123,632,o),
(1261,690,o),
(1332,690,qs),
(1406,690,o),
(1525,634,o),
(1605,536,o),
(1638,405,o),
(1626,330,qs),
(1614,255,o),
(1537,124,o),
(1425,27,o),
(1287,-30,o),
(1213,-30,qs)
);
},
{
closed = 1;
nodes = (
(1279,122,o),
(1359,155,o),
(1425,212,o),
(1470,288,o),
(1476,331,q),
(1483,373,o),
(1464,448,o),
(1418,505,o),
(1349,538,o),
(1307,538,qs),
(1265,538,o),
(1186,505,o),
(1121,448,o),
(1077,373,o),
(1069,330,qs),
(1062,288,o),
(1082,212,o),
(1128,155,o),
(1197,122,o),
(1238,122,qs)
);
},
{
closed = 1;
nodes = (
(443,750,o),
(325,807,o),
(246,904,o),
(212,1035,o),
(224,1110,qs),
(236,1183,o),
(315,1314,o),
(427,1412,o),
(565,1470,o),
(636,1470,qs),
(710,1470,o),
(829,1413,o),
(908,1316,o),
(942,1185,o),
(930,1110,qs),
(918,1036,o),
(840,905,o),
(727,807,o),
(590,750,o),
(517,750,qs)
);
},
{
closed = 1;
nodes = (
(583,902,o),
(663,935,o),
(728,992,o),
(774,1068,o),
(780,1111,q),
(787,1153,o),
(768,1228,o),
(721,1285,o),
(653,1318,o),
(611,1318,qs),
(569,1318,o),
(490,1285,o),
(425,1228,o),
(380,1153,o),
(373,1110,qs),
(366,1068,o),
(386,992,o),
(432,935,o),
(501,902,o),
(542,902,qs)
);
}
);
width = 1749;
},
{
layerId = "C35D8726-4A09-4B72-A1E9-09A0D38B7D70";
shapes = (
{
closed = 1;
nodes = (
(158,0,l),
(109,60,l),
(1694,1440,l),
(1743,1382,l)
);
},
{
closed = 1;
nodes = (
(1142,-30,o),
(1024,27,o),
(944,125,o),
(910,256,o),
(922,330,qs),
(934,403,o),
(1013,534,o),
(1125,632,o),
(1263,690,o),
(1334,690,qs),
(1408,690,o),
(1527,634,o),
(1607,536,o),
(1640,405,o),
(1628,330,qs),
(1616,255,o),
(1539,124,o),
(1426,27,o),
(1289,-30,o),
(1215,-30,qs)
);
},
{
closed = 1;
nodes = (
(1284,54,o),
(1390,98,o),
(1476,173,o),
(1536,274,o),
(1545,331,qs),
(1554,387,o),
(1529,488,o),
(1468,563,o),
(1376,606,o),
(1320,606,qs),
(1264,606,o),
(1159,562,o),
(1073,487,o),
(1014,387,o),
(1004,330,qs),
(995,274,o),
(1021,173,o),
(1082,98,o),
(1174,54,o),
(1229,54,qs)
);
},
{
closed = 1;
nodes = (
(443,750,o),
(325,807,o),
(246,904,o),
(212,1035,o),
(224,1110,qs),
(236,1183,o),
(315,1314,o),
(427,1412,o),
(565,1470,o),
(636,1470,qs),
(710,1470,o),
(829,1413,o),
(908,1316,o),
(942,1185,o),
(930,1110,qs),
(918,1036,o),
(840,905,o),
(727,807,o),
(590,750,o),
(517,750,qs)
);
},
{
closed = 1;
nodes = (
(586,834,o),
(692,878,o),
(778,953,o),
(838,1054,o),
(847,1111,qs),
(856,1167,o),
(831,1268,o),
(770,1343,o),
(678,1386,o),
(622,1386,qs),
(566,1386,o),
(461,1342,o),
(375,1267,o),
(316,1167,o),
(306,1110,qs),
(297,1054,o),
(323,953,o),
(384,878,o),
(476,834,o),
(531,834,qs)
);
}
);
width = 1751;
}
);
unicode = 37;
},
{
glyphname = ampersand;
layers = (
{
layerId = "8DF6C0F1-DE73-4D1F-9C90-51BE488A4B4C";
shapes = (
{
closed = 1;
nodes = (
(426,-30,o),
(250,26,o),
(128,138,o),
(73,308,o),
(92,422,qs),
(112,541,o),
(223,720,o),
(326,794,q),
(305,824,o),
(276,883,o),
(259,947,o),
(257,1016,o),
(263,1056,qs),
(280,1160,o),
(380,1314,o),
(523,1416,o),
(699,1466,o),
(792,1466,qs),
(869,1466,o),
(1004,1427,o),
(1107,1348,o),
(1169,1229,o),
(1174,1148,q),
(901,1094,l),
(898,1127,o),
(871,1173,o),
(828,1200,o),
(773,1212,o),
(742,1212,qs),
(705,1212,o),
(634,1193,o),
(578,1154,o),
(538,1094,o),
(531,1052,qs),
(525,1018,o),
(546,957,o),
(583,903,o),
(629,856,o),
(648,834,qs),
(921,528,l),
(926,558,o),
(936,619,o),
(946,681,o),
(956,743,o),
(962,774,q),
(1193,774,l),
(1147,500,ls),
(1140,455,o),
(1123,364,o),
(1106,320,q),
(1252,158,l),
(1050,-28,l),
(942,98,l),
(891,59,o),
(792,10,o),
(690,-19,o),
(585,-30,o),
(529,-30,qs)
);
},
{
closed = 1;
nodes = (
(607,228,o),
(658,233,o),
(708,245,o),
(757,265,o),
(780,280,q),
(489,604,l),
(433,581,o),
(372,494,o),
(363,438,qs),
(354,381,o),
(384,302,o),
(446,251,o),
(534,228,o),
(583,228,qs)
);
}
);
width = 1312;
},
{
layerId = "87233CA6-F023-426F-ADAE-E8786DEFE8CF";
shapes = (
{
closed = 1;
nodes = (
(417,-30,o),
(246,22,o),
(126,128,o),
(70,290,o),
(88,400,qs),
(110,530,o),
(248,721,o),
(370,782,q),
(344,816,o),
(303,881,o),
(277,953,o),
(270,1033,o),
(278,1081,qs),
(294,1176,o),
(385,1321,o),
(516,1419,o),
(679,1468,o),
(766,1468,qs),
(833,1468,o),
(953,1438,o),
(1049,1375,o),
(1114,1278,o),
(1125,1210,q),
(953,1165,l),
(946,1204,o),
(906,1257,o),
(847,1290,o),
(777,1305,o),
(740,1305,qs),
(688,1305,o),
(591,1278,o),
(514,1223,o),
(460,1139,o),
(450,1081,qs),
(443,1035,o),
(462,960,o),
(501,896,o),
(554,839,o),
(579,809,q),
(935,410,l),
(945,447,o),
(960,522,o),
(972,599,o),
(983,676,o),
(989,713,q),
(1144,713,l),
(1105,482,ls),
(1097,430,o),
(1075,327,o),
(1053,276,q),
(1205,107,l),
(1075,-13,l),
(948,132,l),
(903,84,o),
(799,22,o),
(687,-15,o),
(571,-30,o),
(514,-30,qs)
);
},
{
closed = 1;
nodes = (
(587,135,o),
(667,145,o),
(743,171,o),
(813,216,o),
(846,251,q),
(478,658,l),
(384,629,o),
(278,503,o),
(262,408,qs),
(250,336,o),
(289,233,o),
(369,166,o),
(482,135,o),
(545,135,qs)
);
}
);
width = 1276;
},
{
layerId = "C35D8726-4A09-4B72-A1E9-09A0D38B7D70";
shapes = (
{
closed = 1;
nodes = (
(409,-30,o),
(243,19,o),
(124,120,o),
(68,275,o),
(85,380,qs),
(108,521,o),
(269,722,o),
(409,772,q),
(379,809,o),
(327,880,o),
(293,958,o),
(282,1048,o),
(291,1102,qs),
(306,1190,o),
(389,1327,o),
(510,1421,o),
(661,1470,o),
(744,1470,qs),
(801,1470,o),
(909,1448,o),
(999,1399,o),
(1066,1320,o),
(1082,1264,q),
(999,1228,l),
(988,1271,o),
(936,1331,o),
(864,1369,o),
(780,1386,o),
(738,1386,qs),
(673,1386,o),
(554,1352,o),
(458,1283,o),
(391,1178,o),
(380,1106,qs),
(371,1049,o),
(388,962,o),
(429,889,o),
(488,824,o),
(519,788,qs),
(947,306,l),
(962,349,o),
(981,438,o),
(995,527,o),
(1006,617,o),
(1013,660,q),
(1101,660,l),
(1069,466,ls),
(1059,408,o),
(1033,294,o),
(1006,238,q),
(1163,62,l),
(1096,0,l),
(954,162,l),
(914,106,o),
(806,32,o),
(685,-12,o),
(559,-30,o),
(501,-30,qs)
);
},
{
closed = 1;
nodes = (
(569,54,o),
(675,68,o),
(773,107,o),
(862,174,o),
(904,226,q),
(468,706,l),
(342,671,o),
(195,510,o),
(173,382,qs),
(159,296,o),
(205,172,o),
(301,92,o),
(437,54,o),
(511,54,qs)
);
}
);
width = 1245;
}
);
unicode = 38;
},
{
glyphname = parenleft;
layers = (
{
layerId = "8DF6C0F1-DE73-4D1F-9C90-51BE488A4B4C";
shapes = (
{
closed = 1;
nodes = (
(476,-388,l),
(431,-319,o),
(360,-166,o),
(333,-79,qs),
(280,95,o),
(260,472,o),
(295,660,q),
(309,754,o),
(358,941,o),
(396,1037,qs),
(469,1228,o),
(686,1571,o),
(823,1708,q),
(997,1560,l),
(925,1486,o),
(807,1340,o),
(761,1267,qs),
(669,1119,o),
(564,820,o),
(536,660,q),
(524,580,o),
(513,426,o),
(514,351,qs),
(517,200,o),
(604,-93,o),
(699,-240,q)
);
}
);
width = 880;
},
{
layerId = "87233CA6-F023-426F-ADAE-E8786DEFE8CF";
shapes = (
{
closed = 1;
nodes = (
(491,-365,l),
(445,-297,o),
(372,-146,o),
(344,-62,qs),
(289,107,o),
(262,474,o),
(295,660,q),
(310,753,o),
(361,937,o),
(399,1030,qs),
(474,1216,o),
(693,1549,o),
(831,1685,q),
(940,1588,l),
(871,1517,o),
(752,1373,o),
(702,1297,qs),
(602,1144,o),
(478,826,o),
(449,660,q),
(436,577,o),
(428,416,o),
(433,336,qs),
(443,174,o),
(541,-130,o),
(633,-267,q)
);
}
);
width = 823;
},
{
layerId = "C35D8726-4A09-4B72-A1E9-09A0D38B7D70";
shapes = (
{
closed = 1;
nodes = (
(505,-344,l),
(457,-277,o),
(383,-129,o),
(354,-47,qs),
(296,117,o),
(264,475,o),
(295,660,qs),
(310,753,o),
(364,933,o),
(401,1024,q),
(478,1205,o),
(700,1529,o),
(838,1664,q),
(890,1612,l),
(823,1545,o),
(704,1401,o),
(650,1323,q),
(544,1166,o),
(402,832,o),
(373,660,qs),
(359,575,o),
(353,407,o),
(362,322,q),
(378,152,o),
(486,-162,o),
(575,-290,q)
);
}
);
width = 773;
}
);
leftKerningGroup = parenleft2;
rightKerningGroup = parenleft;
unicode = 40;
},
{
glyphname = parenright;
layers = (
{
layerId = "8DF6C0F1-DE73-4D1F-9C90-51BE488A4B4C";
shapes = (
{
closed = 1;
nodes = (
(-36,-240,l),
(36,-166,o),
(153,-20,o),
(200,54,qs),
(292,201,o),
(397,500,o),
(425,660,q),
(437,740,o),
(449,894,o),
(448,970,qs),
(445,1120,o),
(357,1413,o),
(262,1560,q),
(485,1708,l),
(530,1639,o),
(602,1487,o),
(629,1400,qs),
(682,1226,o),
(701,848,o),
(666,660,q),
(652,566,o),
(603,379,o),
(566,284,qs),
(492,93,o),
(275,-251,o),
(138,-388,q)
);
}
);
width = 880;
},
{
layerId = "87233CA6-F023-426F-ADAE-E8786DEFE8CF";
shapes = (
{
closed = 1;
nodes = (
(-35,-267,l),
(33,-198,o),
(150,-54,o),
(201,23,qs),
(301,175,o),
(427,495,o),
(455,660,q),
(468,743,o),
(477,905,o),
(473,985,qs),
(463,1145,o),
(363,1448,o),
(272,1588,q),
(412,1685,l),
(459,1617,o),
(532,1467,o),
(560,1382,qs),
(616,1214,o),
(642,846,o),
(609,660,q),
(594,567,o),
(543,383,o),
(506,290,qs),
(430,105,o),
(211,-229,o),
(73,-365,q)
);
}
);
width = 823;
},
{
layerId = "C35D8726-4A09-4B72-A1E9-09A0D38B7D70";
shapes = (
{
closed = 1;
nodes = (
(-35,-290,l),
(31,-226,o),
(148,-84,o),
(202,-5,qs),
(309,153,o),
(453,491,o),
(481,660,qs),
(495,746,o),
(501,914,o),
(494,999,qs),
(479,1167,o),
(369,1478,o),
(280,1612,q),
(349,1664,l),
(397,1597,o),
(471,1449,o),
(500,1367,qs),
(558,1203,o),
(590,845,o),
(559,660,qs),
(544,567,o),
(491,387,o),
(453,296,qs),
(376,115,o),
(155,-209,o),
(17,-344,q)
);
}
);
width = 773;
}
);
leftKerningGroup = parenright2;
rightKerningGroup = parenright;
unicode = 41;
},
{
glyphname = asterisk;
layers = (
{
layerId = "8DF6C0F1-DE73-4D1F-9C90-51BE488A4B4C";
shapes = (
{
closed = 1;
nodes = (
(364,710,l),
(197,850,l),
(370,1018,l),
(163,1074,l),
(274,1302,l),
(463,1212,l),
(483,1440,l),
(718,1440,l),
(663,1212,l),
(881,1302,l),
(916,1074,l),
(691,1018,l),
(808,850,l),
(595,710,l),
(511,900,l)
);
}
);
width = 916;
},
{
layerId = "87233CA6-F023-426F-ADAE-E8786DEFE8CF";
shapes = (
{
closed = 1;
nodes = (
(321,765,l),
(212,857,l),
(397,1054,l),
(172,1125,l),
(244,1274,l),
(461,1187,l),
(494,1440,l),
(648,1440,l),
(598,1187,l),
(843,1274,l),
(866,1125,l),
(617,1054,l),
(737,857,l),
(597,765,l),
(494,973,l)
);
}
);
width = 857;
},
{
layerId = "C35D8726-4A09-4B72-A1E9-09A0D38B7D70";
shapes = (
{
closed = 1;
nodes = (
(283,814,l),
(225,864,l),
(420,1086,l),
(179,1170,l),
(218,1250,l),
(459,1166,l),
(504,1440,l),
(587,1440,l),
(541,1166,l),
(810,1250,l),
(822,1170,l),
(553,1086,l),
(674,864,l),
(599,814,l),
(479,1036,l)
);
}
);
width = 806;
}
);
unicode = 42;
},
{
glyphname = plus;
layers = (
{
layerId = "8DF6C0F1-DE73-4D1F-9C90-51BE488A4B4C";
shapes = (
{
closed = 1;
nodes = (
(424,270,l),
(481,616,l),
(142,616,l),
(177,826,l),
(516,826,l),
(573,1170,l),
(779,1170,l),
(722,826,l),
(1059,826,l),
(1024,616,l),
(687,616,l),
(630,270,l)
);
}
);
width = 1100;
},
{
layerId = "87233CA6-F023-426F-ADAE-E8786DEFE8CF";
shapes = (
{
closed = 1;
nodes = (
(461,265,l),
(524,649,l),
(147,649,l),
(171,792,l),
(548,792,l),
(611,1175,l),
(752,1175,l),
(688,792,l),
(1064,792,l),
(1040,649,l),
(664,649,l),
(601,265,l)
);
}
);
width = 1111;
},
{
layerId = "C35D8726-4A09-4B72-A1E9-09A0D38B7D70";
shapes = (
{
closed = 1;
nodes = (
(493,260,l),
(562,678,l),
(152,678,l),
(166,762,l),
(576,762,l),
(645,1180,l),
(728,1180,l),
(658,762,l),
(1068,762,l),
(1054,678,l),
(644,678,l),
(575,260,l)
);
}
);
width = 1120;
}
);
unicode = 43;
},
{
glyphname = comma;
layers = (
{
layerId = "8DF6C0F1-DE73-4D1F-9C90-51BE488A4B4C";
shapes = (
{
closed = 1;
nodes = (
(162,272,l),
(414,272,l),
(144,-329,l),
(-22,-329,l)
);
}
);
width = 599;
},
{
layerId = "87233CA6-F023-426F-ADAE-E8786DEFE8CF";
shapes = (
{
closed = 1;
nodes = (
(145,223,l),
(312,223,l),
(84,-282,l),
(-27,-282,l)
);
}
);
width = 520;
},
{
layerId = "C35D8726-4A09-4B72-A1E9-09A0D38B7D70";
shapes = (
{
closed = 1;
nodes = (
(131,180,l),
(222,180,l),
(32,-240,l),
(-32,-240,l)
);
}
);
width = 450;
}
);
leftKerningGroup = comma;
unicode = 44;
},
{
glyphname = hyphen;
layers = (
{
layerId = "8DF6C0F1-DE73-4D1F-9C90-51BE488A4B4C";
shapes = (
{
closed = 1;
nodes = (
(112,435,l),
(147,645,l),
(735,645,l),
(700,435,l)
);
}
);
width = 806;
},
{
layerId = "87233CA6-F023-426F-ADAE-E8786DEFE8CF";
shapes = (
{
closed = 1;
nodes = (
(118,469,l),
(142,611,l),
(730,611,l),
(706,469,l)
);
}
);
width = 806;
},
{
layerId = "C35D8726-4A09-4B72-A1E9-09A0D38B7D70";
shapes = (
{
closed = 1;
nodes = (
(123,498,l),
(137,582,l),
(725,582,l),
(711,498,l)
);
}
);
width = 806;
}
);
unicode = 45;
},
{
glyphname = period;
layers = (
{
layerId = "8DF6C0F1-DE73-4D1F-9C90-51BE488A4B4C";
shapes = (
{
closed = 1;
nodes = (
(197,-22,o),
(144,2,o),
(108,44,o),
(94,102,o),
(100,136,qs),
(106,170,o),
(139,228,o),
(188,270,o),
(249,294,o),
(282,294,qs),
(315,294,o),
(368,270,o),
(403,228,o),
(417,170,o),
(412,136,qs),
(406,102,o),
(373,44,o),
(324,2,o),
(263,-22,o),
(230,-22,qs)
);
}
);
width = 604;
},
{
layerId = "87233CA6-F023-426F-ADAE-E8786DEFE8CF";
shapes = (
{
closed = 1;
nodes = (
(156,-13,o),
(118,4,o),
(93,34,o),
(82,75,o),
(87,99,q),
(91,124,o),
(114,165,o),
(150,195,o),
(193,212,o),
(217,212,qs),
(241,212,o),
(278,195,o),
(303,165,o),
(314,124,o),
(310,99,qs),
(306,75,o),
(281,34,o),
(246,4,o),
(203,-13,o),
(179,-13,qs)
);
}
);
width = 501;
},
{
layerId = "C35D8726-4A09-4B72-A1E9-09A0D38B7D70";
shapes = (
{
closed = 1;
nodes = (
(120,-6,o),
(96,5,o),
(80,25,o),
(72,52,o),
(75,67,qs),
(78,83,o),
(93,110,o),
(116,130,o),
(144,141,o),
(160,141,qs),
(176,141,o),
(200,130,o),
(216,110,o),
(223,83,o),
(220,67,qs),
(218,52,o),
(201,25,o),
(178,5,o),
(151,-6,o),
(135,-6,qs)
);
}
);
width = 410;
}
);
leftKerningGroup = comma;
unicode = 46;
},
{
glyphname = slash;
layers = (
{
layerId = "8DF6C0F1-DE73-4D1F-9C90-51BE488A4B4C";
shapes = (
{
closed = 1;
nodes = (
(655,1440,l),
(40,0,l),
(307,0,l),
(921,1440,l)
);
}
);
width = 861;
},
{
layerId = "87233CA6-F023-426F-ADAE-E8786DEFE8CF";
shapes = (
{
closed = 1;
nodes = (
(655,1440,l),
(40,0,l),
(212,0,l),
(826,1440,l)
);
}
);
width = 766;
},
{
layerId = "C35D8726-4A09-4B72-A1E9-09A0D38B7D70";
shapes = (
{
closed = 1;
nodes = (
(655,1440,l),
(40,0,l),
(128,0,l),
(743,1440,l)
);
}
);
width = 682;
}
);
unicode = 47;
},
{
glyphname = zero;
layers = (
{
layerId = "8DF6C0F1-DE73-4D1F-9C90-51BE488A4B4C";
shapes = (
{
closed = 1;
nodes = (
(331,-30,o),
(188,273,o),
(188,563,cs),
(188,1030,o),
(372,1469,o),
(891,1469,cs),
(1221,1469,o),
(1361,1166,o),
(1361,876,cs),
(1361,410,o),
(1179,-30,o),
(660,-30,cs)
);
},
{
closed = 1;
nodes = (
(1005,225,o),
(1077,630,o),
(1077,867,cs),
(1077,1011,o),
(1033,1213,o),
(852,1213,cs),
(544,1213,o),
(472,808,o),
(472,572,cs),
(472,427,o),
(521,225,o),
(700,225,cs)
);
}
);
width = 1379;
},
{
layerId = "87233CA6-F023-426F-ADAE-E8786DEFE8CF";
shapes = (
{
closed = 1;
nodes = (
(288,-33,o),
(148,245,o),
(148,549,cs),
(148,963,o),
(313,1461,o),
(799,1461,cs),
(1142,1461,o),
(1274,1180,o),
(1274,876,cs),
(1274,464,o),
(1111,-33,o),
(626,-33,cs)
);
},
{
closed = 1;
nodes = (
(996,131,o),
(1094,597,o),
(1094,873,cs),
(1094,1078,o),
(1020,1297,o),
(779,1297,cs),
(426,1297,o),
(329,830,o),
(329,555,cs),
(329,352,o),
(406,131,o),
(644,131,cs)
);
}
);
width = 1336;
},
{
layerId = "C35D8726-4A09-4B72-A1E9-09A0D38B7D70";
shapes = (
{
closed = 1;
nodes = (
(326,-35,o),
(190,221,o),
(190,536,cs),
(190,904,o),
(342,1454,o),
(795,1454,cs),
(1149,1454,o),
(1274,1192,o),
(1274,876,cs),
(1274,511,o),
(1122,-35,o),
(672,-35,cs)
);
},
{
closed = 1;
nodes = (
(1065,49,o),
(1185,568,o),
(1185,877,cs),
(1185,1135,o),
(1084,1370,o),
(792,1370,cs),
(400,1370,o),
(279,849,o),
(279,541,cs),
(279,287,o),
(382,49,o),
(671,49,cs)
);
}
);
width = 1298;
}
);
unicode = 48;
},
{
glyphname = one;
layers = (
{
layerId = "8DF6C0F1-DE73-4D1F-9C90-51BE488A4B4C";
shapes = (
{
closed = 1;
nodes = (
(466,0,l),
(638,1152,l),
(347,991,l),
(264,1198,l),
(686,1440,l),
(953,1440,l),
(730,0,l)
);
}
);
width = 965;
},
{
layerId = "87233CA6-F023-426F-ADAE-E8786DEFE8CF";
shapes = (
{
closed = 1;
nodes = (
(380,0,l),
(571,1255,l),
(282,1092,l),
(228,1226,l),
(600,1440,l),
(769,1440,l),
(548,0,l)
);
}
);
width = 823;
},
{
layerId = "C35D8726-4A09-4B72-A1E9-09A0D38B7D70";
shapes = (
{
closed = 1;
nodes = (
(382,0,l),
(589,1345,l),
(301,1181,l),
(272,1250,l),
(602,1440,l),
(684,1440,l),
(464,0,l)
);
}
);
width = 699;
}
);
unicode = 49;
},
{
glyphname = two;
layers = (
{
layerId = "8DF6C0F1-DE73-4D1F-9C90-51BE488A4B4C";
shapes = (
{
closed = 1;
nodes = (
(120,257,l),
(796,784,ls),
(891,856,o),
(968,915,o),
(968,1049,cs),
(968,1162,o),
(873,1216,o),
(772,1216,cs),
(635,1216,o),
(549,1157,o),
(502,1023,c),
(224,1097,l),
(339,1376,o),
(527,1469,o),
(818,1469,cs),
(1040,1469,o),
(1251,1322,o),
(1251,1078,cs),
(1251,862,o),
(1135,710,o),
(976,588,cs),
(540,257,l),
(1125,257,l),
(1086,0,l),
(81,0,l)
);
}
);
width = 1197;
},
{
layerId = "87233CA6-F023-426F-ADAE-E8786DEFE8CF";
shapes = (
{
closed = 1;
nodes = (
(72,165,l),
(754,733,ls),
(862,823,o),
(978,925,o),
(978,1082,cs),
(978,1236,o),
(830,1308,o),
(698,1308,cs),
(533,1308,o),
(403,1212,o),
(355,1049,c),
(184,1095,l),
(271,1346,o),
(461,1471,o),
(723,1471,cs),
(940,1471,o),
(1155,1341,o),
(1155,1098,cs),
(1155,891,o),
(1028,744,o),
(881,622,cs),
(331,165,l),
(1012,165,l),
(987,0,l),
(47,0,l)
);
}
);
width = 1138;
},
{
layerId = "C35D8726-4A09-4B72-A1E9-09A0D38B7D70";
shapes = (
{
closed = 1;
nodes = (
(106,84,l),
(792,689,ls),
(911,794,o),
(1061,934,o),
(1061,1112,cs),
(1061,1299,o),
(868,1388,o),
(708,1388,cs),
(518,1388,o),
(351,1260,o),
(302,1072,c),
(224,1094,l),
(290,1320,o),
(478,1472,o),
(715,1472,cs),
(926,1472,o),
(1145,1358,o),
(1145,1116,cs),
(1145,917,o),
(1010,771,o),
(874,652,cs),
(223,84,l),
(989,84,l),
(975,0,l),
(93,0,l)
);
}
);
width = 1086;
}
);
unicode = 50;
},
{
glyphname = three;
layers = (
{
layerId = "8DF6C0F1-DE73-4D1F-9C90-51BE488A4B4C";
shapes = (
{
closed = 1;
nodes = (
(332,-30,o),
(149,177,o),
(123,440,c),
(400,482,l),
(412,313,o),
(508,221,o),
(679,221,cs),
(810,221,o),
(924,315,o),
(924,457,cs),
(924,587,o),
(832,650,o),
(710,650,cs),
(539,650,l),
(572,867,l),
(934,1184,l),
(310,1184,l),
(349,1440,l),
(1295,1440,l),
(1257,1184,l),
(877,851,l),
(878,851,ls),
(1058,851,o),
(1207,656,o),
(1207,486,cs),
(1207,106,o),
(939,-30,o),
(604,-30,cs)
);
}
);
width = 1256;
},
{
layerId = "87233CA6-F023-426F-ADAE-E8786DEFE8CF";
shapes = (
{
closed = 1;
nodes = (
(263,-30,o),
(102,140,o),
(78,396,c),
(251,425,l),
(273,226,o),
(375,132,o),
(579,132,cs),
(770,132,o),
(931,270,o),
(931,475,cs),
(931,645,o),
(804,704,o),
(651,704,cs),
(511,704,l),
(533,849,l),
(971,1276,l),
(290,1276,l),
(315,1440,l),
(1204,1440,l),
(1179,1276,l),
(732,842,l),
(734,842,ls),
(938,842,o),
(1108,712,o),
(1108,497,cs),
(1108,154,o),
(855,-30,o),
(538,-30,cs)
);
}
);
width = 1195;
},
{
layerId = "C35D8726-4A09-4B72-A1E9-09A0D38B7D70";
shapes = (
{
closed = 1;
nodes = (
(277,-30,o),
(134,106,o),
(113,358,c),
(194,374,l),
(225,150,o),
(332,54,o),
(565,54,cs),
(808,54,o),
(1011,231,o),
(1011,491,cs),
(1011,697,o),
(852,751,o),
(674,751,cs),
(560,751,l),
(572,834,l),
(1077,1356,l),
(346,1356,l),
(359,1440,l),
(1197,1440,l),
(1184,1356,l),
(679,834,l),
(682,834,ls),
(906,834,o),
(1095,760,o),
(1095,506,cs),
(1095,196,o),
(855,-30,o),
(554,-30,cs)
);
}
);
width = 1142;
}
);
unicode = 51;
},
{
glyphname = four;
layers = (
{
layerId = "8DF6C0F1-DE73-4D1F-9C90-51BE488A4B4C";
shapes = (
{
closed = 1;
nodes = (
(719,0,l),
(757,244,l),
(96,244,l),
(135,498,l),
(719,1440,l),
(1009,1440,l),
(424,498,l),
(797,498,l),
(863,929,l),
(1127,929,l),
(1061,498,l),
(1196,498,l),
(1156,244,l),
(1023,244,l),
(985,0,l)
);
}
);
width = 1238;
},
{
layerId = "87233CA6-F023-426F-ADAE-E8786DEFE8CF";
shapes = (
{
closed = 1;
nodes = (
(731,0,l),
(775,277,l),
(61,277,l),
(87,440,l),
(707,1440,l),
(890,1440,l),
(271,440,l),
(799,440,l),
(874,929,l),
(1042,929,l),
(966,440,l),
(1102,440,l),
(1077,277,l),
(942,277,l),
(899,0,l)
);
}
);
width = 1192;
},
{
layerId = "C35D8726-4A09-4B72-A1E9-09A0D38B7D70";
shapes = (
{
closed = 1;
nodes = (
(814,0,l),
(862,305,l),
(104,305,l),
(118,389,l),
(767,1440,l),
(859,1440,l),
(209,389,l),
(873,389,l),
(956,929,l),
(1039,929,l),
(956,389,l),
(1092,389,l),
(1079,305,l),
(944,305,l),
(896,0,l)
);
}
);
width = 1152;
}
);
unicode = 52;
},
{
glyphname = five;
layers = (
{
layerId = "8DF6C0F1-DE73-4D1F-9C90-51BE488A4B4C";
shapes = (
{
closed = 1;
nodes = (
(329,-30,o),
(147,183,o),
(124,440,c),
(403,482,l),
(412,334,o),
(494,222,o),
(651,222,cs),
(798,222,o),
(924,294,o),
(924,457,cs),
(924,585,o),
(830,650,o),
(709,650,cs),
(243,650,l),
(413,1440,l),
(1258,1440,l),
(1220,1184,l),
(623,1184,l),
(565,907,l),
(755,907,ls),
(990,907,o),
(1208,746,o),
(1208,490,cs),
(1208,109,o),
(942,-30,o),
(605,-30,cs)
);
}
);
width = 1256;
},
{
layerId = "87233CA6-F023-426F-ADAE-E8786DEFE8CF";
shapes = (
{
closed = 1;
nodes = (
(274,-30,o),
(107,154,o),
(78,396,c),
(252,425,l),
(274,253,o),
(375,132,o),
(562,132,cs),
(766,132,o),
(926,231,o),
(926,455,cs),
(926,627,o),
(807,702,o),
(646,702,cs),
(217,702,l),
(376,1440,l),
(1162,1440,l),
(1138,1276,l),
(508,1276,l),
(420,866,l),
(675,866,ls),
(901,866,o),
(1103,720,o),
(1103,473,cs),
(1103,118,o),
(855,-30,o),
(534,-30,cs)
);
}
);
width = 1195;
},
{
layerId = "C35D8726-4A09-4B72-A1E9-09A0D38B7D70";
shapes = (
{
closed = 1;
nodes = (
(301,-30,o),
(148,130,o),
(113,358,c),
(194,374,l),
(230,183,o),
(346,53,o),
(560,53,cs),
(814,53,o),
(1003,177,o),
(1003,453,cs),
(1003,663,o),
(862,748,o),
(666,748,cs),
(271,748,l),
(418,1440,l),
(1153,1440,l),
(1142,1356,l),
(483,1356,l),
(371,831,l),
(680,831,ls),
(899,831,o),
(1087,698,o),
(1087,460,cs),
(1087,125,o),
(855,-30,o),
(546,-30,cs)
);
}
);
width = 1142;
}
);
unicode = 53;
},
{
glyphname = six;
layers = (
{
layerId = "8DF6C0F1-DE73-4D1F-9C90-51BE488A4B4C";
shapes = (
{
closed = 1;
nodes = (
(272,-30,o),
(111,190,o),
(111,554,cs),
(111,1010,o),
(333,1469,o),
(851,1469,cs),
(975,1469,o),
(1114,1440,o),
(1230,1392,c),
(1158,1151,l),
(1072,1195,o),
(984,1221,o),
(889,1221,cs),
(594,1221,o),
(461,1077,o),
(403,813,c),
(487,899,o),
(592,923,o),
(708,923,cs),
(971,923,o),
(1192,795,o),
(1192,500,cs),
(1192,162,o),
(963,-30,o),
(646,-30,cs)
);
},
{
closed = 1;
nodes = (
(786,225,o),
(905,300,o),
(905,457,cs),
(905,608,o),
(767,662,o),
(641,662,cs),
(501,662,o),
(384,590,o),
(384,432,cs),
(384,282,o),
(523,225,o),
(648,225,cs)
);
}
);
width = 1189;
},
{
layerId = "87233CA6-F023-426F-ADAE-E8786DEFE8CF";
shapes = (
{
closed = 1;
nodes = (
(213,-30,o),
(72,186,o),
(72,518,cs),
(72,971,o),
(282,1469,o),
(808,1469,cs),
(925,1469,o),
(1048,1444,o),
(1156,1402,c),
(1111,1245,l),
(1023,1286,o),
(932,1310,o),
(837,1310,cs),
(477,1310,o),
(326,1073,o),
(264,763,c),
(346,881,o),
(491,922,o),
(628,922,cs),
(894,922,o),
(1120,788,o),
(1120,490,cs),
(1120,164,o),
(900,-30,o),
(593,-30,cs)
);
},
{
closed = 1;
nodes = (
(795,134,o),
(938,256,o),
(938,468,cs),
(938,674,o),
(768,756,o),
(593,756,cs),
(394,756,o),
(250,637,o),
(250,423,cs),
(250,215,o),
(418,134,o),
(597,134,cs)
);
}
);
width = 1164;
},
{
layerId = "C35D8726-4A09-4B72-A1E9-09A0D38B7D70";
shapes = (
{
closed = 1;
nodes = (
(237,-30,o),
(112,183,o),
(112,486,cs),
(112,936,o),
(315,1469,o),
(846,1469,cs),
(956,1469,o),
(1065,1448,o),
(1165,1409,c),
(1146,1327,l),
(1055,1367,o),
(962,1387,o),
(866,1387,cs),
(440,1387,o),
(285,1078,o),
(217,720,c),
(298,866,o),
(478,921,o),
(634,921,cs),
(903,921,o),
(1132,781,o),
(1132,481,cs),
(1132,166,o),
(921,-30,o),
(621,-30,cs)
);
},
{
closed = 1;
nodes = (
(878,54,o),
(1043,217,o),
(1043,478,cs),
(1043,732,o),
(845,838,o),
(626,838,cs),
(375,838,o),
(208,678,o),
(208,415,cs),
(208,156,o),
(402,54,o),
(627,54,cs)
);
}
);
width = 1142;
}
);
unicode = 54;
},
{
glyphname = seven;
layers = (
{
layerId = "8DF6C0F1-DE73-4D1F-9C90-51BE488A4B4C";
shapes = (
{
closed = 1;
nodes = (
(171,0,l),
(884,1185,l),
(241,1185,l),
(281,1440,l),
(1212,1440,l),
(1174,1185,l),
(462,0,l)
);
}
);
width = 1090;
},
{
layerId = "87233CA6-F023-426F-ADAE-E8786DEFE8CF";
shapes = (
{
closed = 1;
nodes = (
(135,0,l),
(901,1275,l),
(216,1275,l),
(242,1440,l),
(1108,1440,l),
(1084,1275,l),
(319,0,l)
);
}
);
width = 1025;
},
{
layerId = "C35D8726-4A09-4B72-A1E9-09A0D38B7D70";
shapes = (
{
closed = 1;
nodes = (
(179,0,l),
(991,1353,l),
(270,1353,l),
(283,1440,l),
(1093,1440,l),
(1080,1353,l),
(268,0,l)
);
}
);
width = 969;
}
);
unicode = 55;
},
{
glyphname = eight;
layers = (
{
layerId = "8DF6C0F1-DE73-4D1F-9C90-51BE488A4B4C";
shapes = (
{
closed = 1;
nodes = (
(518,605,o),
(410,550,o),
(410,406,cs),
(410,259,o),
(562,222,o),
(675,222,cs),
(801,222,o),
(911,285,o),
(911,429,cs),
(911,575,o),
(751,605,o),
(640,605,cs)
);
},
{
closed = 1;
nodes = (
(856,859,o),
(969,894,o),
(969,1046,cs),
(969,1152,o),
(877,1214,o),
(784,1214,cs),
(665,1214,o),
(543,1176,o),
(543,1022,cs),
(543,915,o),
(633,859,o),
(729,859,cs)
);
},
{
closed = 1;
nodes = (
(1045,1469,o),
(1246,1315,o),
(1246,1075,cs),
(1246,924,o),
(1180,759,o),
(1035,710,c),
(1134,662,o),
(1192,542,o),
(1192,432,cs),
(1192,125,o),
(942,-33,o),
(668,-33,cs),
(412,-33,o),
(128,75,o),
(128,384,cs),
(128,547,o),
(219,731,o),
(383,768,c),
(303,817,o),
(267,912,o),
(267,1007,cs),
(267,1364,o),
(535,1469,o),
(824,1469,cs)
);
}
);
width = 1256;
},
{
layerId = "87233CA6-F023-426F-ADAE-E8786DEFE8CF";
shapes = (
{
closed = 1;
nodes = (
(443,656,o),
(265,607,o),
(265,388,cs),
(265,217,o),
(431,132,o),
(577,132,cs),
(751,132,o),
(930,204,o),
(930,419,cs),
(930,589,o),
(753,656,o),
(613,656,cs)
);
},
{
closed = 1;
nodes = (
(827,819,o),
(992,870,o),
(992,1076,cs),
(992,1220,o),
(865,1305,o),
(737,1305,cs),
(575,1305,o),
(406,1253,o),
(406,1045,cs),
(406,903,o),
(537,819,o),
(662,819,cs)
);
},
{
closed = 1;
nodes = (
(972,1469,o),
(1166,1320,o),
(1166,1093,cs),
(1166,927,o),
(1077,764,o),
(920,716,c),
(1036,671,o),
(1107,548,o),
(1107,422,cs),
(1107,105,o),
(843,-31,o),
(566,-31,cs),
(330,-31,o),
(88,106,o),
(88,376,cs),
(88,553,o),
(199,736,o),
(378,765,c),
(281,817,o),
(232,923,o),
(232,1035,cs),
(232,1368,o),
(493,1469,o),
(762,1469,cs)
);
}
);
width = 1212;
},
{
layerId = "C35D8726-4A09-4B72-A1E9-09A0D38B7D70";
shapes = (
{
closed = 1;
nodes = (
(451,700,o),
(213,657,o),
(213,373,cs),
(213,181,o),
(390,54,o),
(565,54,cs),
(783,54,o),
(1021,133,o),
(1021,410,cs),
(1021,601,o),
(829,700,o),
(664,700,cs)
);
},
{
closed = 1;
nodes = (
(874,784,o),
(1085,848,o),
(1085,1102,cs),
(1085,1280,o),
(927,1384,o),
(770,1384,cs),
(571,1384,o),
(361,1322,o),
(361,1066,cs),
(361,893,o),
(526,784,o),
(676,784,cs)
);
},
{
closed = 1;
nodes = (
(982,1469,o),
(1170,1324,o),
(1170,1109,cs),
(1170,930,o),
(1063,769,o),
(894,723,c),
(1026,680,o),
(1107,553,o),
(1107,412,cs),
(1107,88,o),
(831,-30,o),
(550,-30,cs),
(333,-30,o),
(127,134,o),
(127,369,cs),
(127,560,o),
(256,740,o),
(447,763,c),
(336,817,o),
(276,934,o),
(276,1059,cs),
(276,1372,o),
(530,1469,o),
(783,1469,cs)
);
}
);
width = 1173;
}
);
unicode = 56;
},
{
glyphname = nine;
layers = (
{
layerId = "8DF6C0F1-DE73-4D1F-9C90-51BE488A4B4C";
shapes = (
{
closed = 1;
nodes = (
(1086,1469,o),
(1247,1249,o),
(1247,884,cs),
(1247,427,o),
(1027,-30,o),
(508,-30,cs),
(384,-30,o),
(244,0,o),
(128,47,c),
(200,289,l),
(287,245,o),
(374,218,o),
(470,218,cs),
(766,218,o),
(897,362,o),
(956,627,c),
(871,541,o),
(767,515,o),
(651,515,cs),
(389,515,o),
(166,643,o),
(166,940,cs),
(166,1278,o),
(395,1469,o),
(713,1469,cs)
);
},
{
closed = 1;
nodes = (
(572,1213,o),
(453,1139,o),
(453,983,cs),
(453,832,o),
(592,778,o),
(717,778,cs),
(858,778,o),
(974,848,o),
(974,1006,cs),
(974,1158,o),
(837,1213,o),
(710,1213,cs)
);
}
);
width = 1189;
},
{
layerId = "87233CA6-F023-426F-ADAE-E8786DEFE8CF";
shapes = (
{
closed = 1;
nodes = (
(1040,1469,o),
(1182,1252,o),
(1182,921,cs),
(1182,468,o),
(968,-30,o),
(444,-30,cs),
(329,-30,o),
(205,-5,o),
(97,38,c),
(142,194,l),
(231,153,o),
(320,129,o),
(417,129,cs),
(775,129,o),
(926,367,o),
(990,675,c),
(907,558,o),
(762,516,o),
(626,516,cs),
(359,516,o),
(133,652,o),
(133,950,cs),
(133,1276,o),
(354,1469,o),
(660,1469,cs)
);
},
{
closed = 1;
nodes = (
(458,1305,o),
(315,1183,o),
(315,971,cs),
(315,765,o),
(484,683,o),
(661,683,cs),
(860,683,o),
(1004,801,o),
(1004,1016,cs),
(1004,1225,o),
(836,1305,o),
(656,1305,cs)
);
}
);
width = 1164;
},
{
layerId = "C35D8726-4A09-4B72-A1E9-09A0D38B7D70";
shapes = (
{
closed = 1;
nodes = (
(1073,1469,o),
(1200,1255,o),
(1200,954,cs),
(1200,505,o),
(991,-30,o),
(464,-30,cs),
(356,-30,o),
(246,-9,o),
(145,30,c),
(165,112,l),
(256,72,o),
(349,52,o),
(445,52,cs),
(870,52,o),
(1025,362,o),
(1094,718,c),
(1012,574,o),
(833,517,o),
(678,517,cs),
(409,517,o),
(178,659,o),
(178,958,cs),
(178,1274,o),
(391,1469,o),
(689,1469,cs)
);
},
{
closed = 1;
nodes = (
(433,1385,o),
(268,1222,o),
(268,960,cs),
(268,708,o),
(465,600,o),
(685,600,cs),
(936,600,o),
(1103,760,o),
(1103,1025,cs),
(1103,1283,o),
(910,1385,o),
(684,1385,cs)
);
}
);
width = 1142;
}
);
unicode = 57;
},
{
glyphname = colon;
layers = (
{
layerId = "8DF6C0F1-DE73-4D1F-9C90-51BE488A4B4C";
shapes = (
{
alignment = -1;
pos = (54,0);
ref = period;
},
{
alignment = -1;
pos = (170,688);
ref = period;
}
);
width = 714;
},
{
layerId = "87233CA6-F023-426F-ADAE-E8786DEFE8CF";
shapes = (
{
closed = 1;
nodes = (
(216,-13,o),
(178,4,o),
(153,34,o),
(142,75,o),
(147,99,q),
(151,124,o),
(174,165,o),
(210,195,o),
(253,212,o),
(277,212,qs),
(301,212,o),
(338,195,o),
(363,165,o),
(374,124,o),
(370,99,qs),
(366,75,o),
(341,34,o),
(306,4,o),
(263,-13,o),
(239,-13,qs)
);
},
{
closed = 1;
nodes = (
(333,692,o),
(295,709,o),
(270,739,o),
(259,780,o),
(264,804,q),
(268,829,o),
(291,870,o),
(327,900,o),
(370,917,o),
(394,917,qs),
(418,917,o),
(455,900,o),
(480,870,o),
(491,829,o),
(487,804,qs),
(483,780,o),
(458,739,o),
(423,709,o),
(380,692,o),
(356,692,qs)
);
}
);
width = 621;
},
{
layerId = "C35D8726-4A09-4B72-A1E9-09A0D38B7D70";
shapes = (
{
alignment = -1;
pos = (65,0);
ref = period;
},
{
alignment = -1;
pos = (184,720);
ref = period;
}
);
width = 540;
}
);
leftKerningGroup = colon;
unicode = 58;
},
{
glyphname = less;
layers = (
{
layerId = "8DF6C0F1-DE73-4D1F-9C90-51BE488A4B4C";
shapes = (
{
closed = 1;
nodes = (
(684,146,l),
(290,630,l),
(845,1114,l),
(981,946,l),
(608,630,l),
(877,314,l)
);
}
);
width = 1219;
},
{
layerId = "87233CA6-F023-426F-ADAE-E8786DEFE8CF";
shapes = (
{
closed = 1;
nodes = (
(674,158,l),
(290,630,l),
(831,1102,l),
(919,995,l),
(496,630,l),
(799,265,l)
);
}
);
width = 1169;
},
{
layerId = "C35D8726-4A09-4B72-A1E9-09A0D38B7D70";
shapes = (
{
closed = 1;
nodes = (
(666,168,l),
(290,630,l),
(819,1092,l),
(865,1038,l),
(398,630,l),
(730,222,l)
);
}
);
width = 1126;
}
);
unicode = 60;
},
{
glyphname = equal;
layers = (
{
layerId = "8DF6C0F1-DE73-4D1F-9C90-51BE488A4B4C";
shapes = (
{
closed = 1;
nodes = (
(283,810,l),
(318,1020,l),
(1318,1020,l),
(1283,810,l)
);
},
{
closed = 1;
nodes = (
(219,420,l),
(254,630,l),
(1253,630,l),
(1219,420,l)
);
}
);
width = 1436;
},
{
layerId = "87233CA6-F023-426F-ADAE-E8786DEFE8CF";
shapes = (
{
closed = 1;
nodes = (
(286,824,l),
(309,967,l),
(1309,967,l),
(1285,824,l)
);
},
{
closed = 1;
nodes = (
(228,473,l),
(251,616,l),
(1251,616,l),
(1228,473,l)
);
}
);
width = 1436;
},
{
layerId = "C35D8726-4A09-4B72-A1E9-09A0D38B7D70";
shapes = (
{
closed = 1;
nodes = (
(288,836,l),
(302,920,l),
(1301,920,l),
(1287,836,l)
);
},
{
closed = 1;
nodes = (
(235,520,l),
(249,604,l),
(1249,604,l),
(1235,520,l)
);
}
);
width = 1436;
}
);
unicode = 61;
},
{
glyphname = greater;
layers = (
{
layerId = "8DF6C0F1-DE73-4D1F-9C90-51BE488A4B4C";
shapes = (
{
closed = 1;
nodes = (
(309,314,l),
(683,630,l),
(413,946,l),
(606,1114,l),
(1000,630,l),
(446,146,l)
);
}
);
width = 1219;
},
{
layerId = "87233CA6-F023-426F-ADAE-E8786DEFE8CF";
shapes = (
{
closed = 1;
nodes = (
(321,265,l),
(745,630,l),
(442,995,l),
(566,1102,l),
(950,630,l),
(410,158,l)
);
}
);
width = 1169;
},
{
layerId = "C35D8726-4A09-4B72-A1E9-09A0D38B7D70";
shapes = (
{
closed = 1;
nodes = (
(332,222,l),
(799,630,l),
(467,1038,l),
(531,1092,l),
(907,630,l),
(378,168,l)
);
}
);
width = 1126;
}
);
unicode = 62;
},
{
glyphname = question;
layers = (
{
layerId = "8DF6C0F1-DE73-4D1F-9C90-51BE488A4B4C";
shapes = (
{
closed = 1;
nodes = (
(823,391,l),
(531,391,l),
(558,559,ls),
(600,816,o),
(1034,785,o),
(1034,1043,cs),
(1034,1139,o),
(951,1210,o),
(803,1210,cs),
(625,1210,o),
(519,1106,o),
(466,946,c),
(188,989,l),
(308,1336,o),
(581,1470,o),
(873,1470,cs),
(1169,1470,o),
(1340,1335,o),
(1340,1091,cs),
(1340,573,o),
(876,711,o),
(830,434,cs)
);
},
{
closed = 1;
nodes = (
(534,-22,o),
(481,32,o),
(481,108,cs),
(481,208,o),
(564,294,o),
(665,294,cs),
(743,294,o),
(796,241,o),
(796,165,cs),
(796,65,o),
(713,-22,o),
(612,-22,cs)
);
}
);
width = 1313;
},
{
layerId = "87233CA6-F023-426F-ADAE-E8786DEFE8CF";
shapes = (
{
closed = 1;
nodes = (
(646,378,l),
(469,378,l),
(486,485,ls),
(552,870,o),
(975,768,o),
(975,1105,cs),
(975,1237,o),
(877,1309,o),
(718,1309,cs),
(537,1309,o),
(406,1210,o),
(365,1029,c),
(198,1050,l),
(273,1339,o),
(502,1470,o),
(759,1470,cs),
(1005,1470,o),
(1159,1351,o),
(1159,1134,cs),
(1159,658,o),
(713,790,o),
(655,433,cs)
);
},
{
closed = 1;
nodes = (
(440,-13,o),
(402,25,o),
(402,78,cs),
(402,148,o),
(460,208,o),
(531,208,cs),
(585,208,o),
(623,171,o),
(623,118,cs),
(623,49,o),
(564,-13,o),
(494,-13,cs)
);
}
);
width = 1132;
},
{
layerId = "C35D8726-4A09-4B72-A1E9-09A0D38B7D70";
shapes = (
{
closed = 1;
nodes = (
(513,368,l),
(422,368,l),
(432,430,ls),
(511,912,o),
(931,756,o),
(931,1154,cs),
(931,1310,o),
(821,1384,o),
(655,1384,cs),
(471,1384,o),
(322,1288,o),
(289,1091,c),
(205,1095,l),
(246,1341,o),
(442,1470,o),
(673,1470,cs),
(882,1470,o),
(1022,1364,o),
(1022,1166,cs),
(1022,723,o),
(591,843,o),
(524,432,cs)
);
},
{
closed = 1;
nodes = (
(368,-6,o),
(343,20,o),
(343,56,cs),
(343,103,o),
(383,144,o),
(430,144,cs),
(468,144,o),
(493,118,o),
(493,82,cs),
(493,36,o),
(452,-6,o),
(405,-6,cs)
);
}
);
width = 997;
}
);
unicode = 63;
},
{
glyphname = at;
layers = (
{
layerId = "8DF6C0F1-DE73-4D1F-9C90-51BE488A4B4C";
shapes = (
{
closed = 1;
nodes = (
(421,-210,o),
(149,-3,o),
(149,372,cs),
(149,865,o),
(509,1290,o),
(1015,1290,cs),
(1381,1290,o),
(1667,1102,o),
(1667,712,cs),
(1667,452,o),
(1569,152,o),
(1268,152,cs),
(1172,152,o),
(1064,195,o),
(1039,296,c),
(1106,296,l),
(1040,200,o),
(936,152,o),
(821,152,cs),
(635,152,o),
(506,270,o),
(506,459,cs),
(506,711,o),
(694,928,o),
(953,928,cs),
(1027,928,o),
(1134,895,o),
(1181,836,c),
(1131,778,l),
(1151,900,l),
(1309,900,l),
(1283,751,o),
(1235,603,o),
(1235,451,cs),
(1235,407,o),
(1252,364,o),
(1303,364,cs),
(1434,364,o),
(1445,603,o),
(1445,696,cs),
(1445,958,o),
(1242,1080,o),
(1000,1080,cs),
(609,1080,o),
(374,792,o),
(374,414,cs),
(374,133,o),
(556,0,o),
(823,0,cs),
(895,0,o),
(966,13,o),
(1035,34,c),
(1068,-166,l),
(975,-196,o),
(877,-210,o),
(779,-210,cs)
);
},
{
closed = 1;
nodes = (
(1007,364,o),
(1061,471,o),
(1061,593,cs),
(1061,674,o),
(1019,716,o),
(938,716,cs),
(808,716,o),
(731,626,o),
(731,499,cs),
(731,410,o),
(785,364,o),
(872,364,cs)
);
}
);
width = 1774;
},
{
layerId = "87233CA6-F023-426F-ADAE-E8786DEFE8CF";
shapes = (
{
closed = 1;
nodes = (
(418,-210,o),
(152,22,o),
(152,387,cs),
(152,876,o),
(530,1290,o),
(1025,1290,cs),
(1378,1290,o),
(1649,1100,o),
(1649,726,cs),
(1649,486,o),
(1545,179,o),
(1261,179,cs),
(1156,179,o),
(1056,226,o),
(1040,339,c),
(1090,334,l),
(1031,243,o),
(927,198,o),
(820,198,cs),
(663,198,o),
(555,296,o),
(555,456,cs),
(555,670,o),
(712,851,o),
(931,851,cs),
(1014,851,o),
(1113,819,o),
(1151,741,c),
(1104,694,l),
(1125,823,l),
(1240,823,l),
(1220,705,o),
(1178,555,o),
(1178,438,cs),
(1178,363,o),
(1216,322,o),
(1290,322,cs),
(1461,322,o),
(1498,583,o),
(1498,711,cs),
(1498,1003,o),
(1284,1147,o),
(1010,1147,cs),
(604,1147,o),
(305,819,o),
(305,419,cs),
(305,120,o),
(514,-67,o),
(806,-67,cs),
(911,-67,o),
(1020,-41,o),
(1113,6,c),
(1141,-123,l),
(1028,-179,o),
(902,-210,o),
(775,-210,cs)
);
},
{
closed = 1;
nodes = (
(990,343,o),
(1058,448,o),
(1058,575,cs),
(1058,664,o),
(1004,709,o),
(918,709,cs),
(781,709,o),
(704,613,o),
(704,480,cs),
(704,388,o),
(765,343,o),
(854,343,cs)
);
}
);
width = 1753;
},
{
layerId = "C35D8726-4A09-4B72-A1E9-09A0D38B7D70";
shapes = (
{
closed = 1;
nodes = (
(415,-210,o),
(154,43,o),
(154,401,cs),
(154,885,o),
(548,1290,o),
(1033,1290,cs),
(1375,1290,o),
(1634,1099,o),
(1634,739,cs),
(1634,515,o),
(1524,202,o),
(1255,202,cs),
(1142,202,o),
(1049,254,o),
(1040,376,c),
(1076,368,l),
(1023,281,o),
(919,238,o),
(820,238,cs),
(688,238,o),
(597,319,o),
(597,453,cs),
(597,634,o),
(727,784,o),
(912,784,cs),
(1003,784,o),
(1095,752,o),
(1124,658,c),
(1081,620,l),
(1103,756,l),
(1180,756,l),
(1165,664,o),
(1129,513,o),
(1129,426,cs),
(1129,325,o),
(1184,286,o),
(1278,286,cs),
(1484,286,o),
(1544,565,o),
(1544,725,cs),
(1544,1042,o),
(1320,1206,o),
(1019,1206,cs),
(599,1206,o),
(244,842,o),
(244,423,cs),
(244,109,o),
(477,-126,o),
(791,-126,cs),
(925,-126,o),
(1067,-89,o),
(1181,-18,c),
(1205,-86,l),
(1074,-165,o),
(924,-210,o),
(771,-210,cs)
);
},
{
closed = 1;
nodes = (
(975,324,o),
(1055,428,o),
(1055,560,cs),
(1055,655,o),
(991,702,o),
(900,702,cs),
(758,702,o),
(681,601,o),
(681,464,cs),
(681,368,o),
(748,324,o),
(838,324,cs)
);
}
);
width = 1735;
}
);
unicode = 64;
},
{
glyphname = A;
layers = (
{
layerId = "8DF6C0F1-DE73-4D1F-9C90-51BE488A4B4C";
shapes = (
{
closed = 1;
nodes = (
(-33,0,l),
(637,1440,l),
(1035,1440,l),
(1228,0,l),
(953,0,l),
(779,1270,l),
(830,1270,l),
(242,0,l)
);
},
{
closed = 1;
nodes = (
(276,300,l),
(318,554,l),
(1063,554,l),
(1021,300,l)
);
}
);
width = 1333;
},
{
layerId = "87233CA6-F023-426F-ADAE-E8786DEFE8CF";
shapes = (
{
closed = 1;
nodes = (
(-33,0,l),
(681,1440,l),
(914,1440,l),
(1151,0,l),
(975,0,l),
(751,1340,l),
(807,1340,l),
(143,0,l)
);
},
{
closed = 1;
nodes = (
(249,339,l),
(276,501,l),
(1008,501,l),
(982,339,l)
);
}
);
width = 1256;
},
{
layerId = "C35D8726-4A09-4B72-A1E9-09A0D38B7D70";
shapes = (
{
closed = 1;
nodes = (
(-33,0,l),
(719,1440,l),
(808,1440,l),
(1083,0,l),
(994,0,l),
(727,1402,l),
(786,1402,l),
(56,0,l)
);
},
{
closed = 1;
nodes = (
(225,374,l),
(239,454,l),
(960,454,l),
(947,374,l)
);
}
);
width = 1188;
}
);
leftKerningGroup = A2;
rightKerningGroup = A;
unicode = 65;
},
{
glyphname = B;
layers = (
{
layerId = "8DF6C0F1-DE73-4D1F-9C90-51BE488A4B4C";
shapes = (
{
closed = 1;
nodes = (
(58,0,l),
(297,1440,l),
(861,1440,ls),
(1075,1440,o),
(1224,1331,o),
(1224,1105,cs),
(1224,938,o),
(1134,776,o),
(967,728,c),
(975,778,l),
(1116,747,o),
(1189,646,o),
(1189,503,cs),
(1189,216,o),
(977,0,o),
(684,0,cs)
);
},
{
closed = 1;
nodes = (
(371,256,l),
(699,256,ls),
(828,256,o),
(919,359,o),
(919,485,cs),
(919,582,o),
(849,624,o),
(760,624,cs),
(432,624,l)
);
},
{
closed = 1;
nodes = (
(474,878,l),
(764,878,ls),
(873,878,o),
(948,950,o),
(948,1060,cs),
(948,1145,o),
(896,1186,o),
(815,1186,cs),
(525,1186,l)
);
}
);
width = 1234;
},
{
layerId = "87233CA6-F023-426F-ADAE-E8786DEFE8CF";
shapes = (
{
closed = 1;
nodes = (
(58,0,l),
(297,1440,l),
(846,1440,ls),
(1039,1440,o),
(1188,1332,o),
(1188,1127,cs),
(1188,953,o),
(1076,789,o),
(909,735,c),
(915,784,l),
(1061,743,o),
(1148,637,o),
(1148,483,cs),
(1148,203,o),
(936,0,o),
(656,0,cs)
);
},
{
closed = 1;
nodes = (
(256,164,l),
(649,164,ls),
(825,164,o),
(973,278,o),
(973,463,cs),
(973,591,o),
(879,674,o),
(755,674,cs),
(340,674,l)
);
},
{
closed = 1;
nodes = (
(367,836,l),
(744,836,ls),
(892,836,o),
(1012,956,o),
(1012,1104,cs),
(1012,1220,o),
(924,1278,o),
(817,1278,cs),
(440,1278,l)
);
}
);
width = 1197;
},
{
layerId = "C35D8726-4A09-4B72-A1E9-09A0D38B7D70";
shapes = (
{
closed = 1;
nodes = (
(58,0,l),
(297,1440,l),
(832,1440,ls),
(1007,1440,o),
(1157,1332,o),
(1157,1146,cs),
(1157,967,o),
(1026,801,o),
(859,742,c),
(863,790,l),
(1013,739,o),
(1113,630,o),
(1113,466,cs),
(1113,192,o),
(900,0,o),
(631,0,cs)
);
},
{
closed = 1;
nodes = (
(155,84,l),
(605,84,ls),
(823,84,o),
(1021,208,o),
(1021,444,cs),
(1021,599,o),
(906,718,o),
(750,718,cs),
(260,718,l)
);
},
{
closed = 1;
nodes = (
(273,800,l),
(726,800,ls),
(908,800,o),
(1068,961,o),
(1068,1143,cs),
(1068,1286,o),
(949,1358,o),
(818,1358,cs),
(366,1358,l)
);
}
);
width = 1164;
}
);
rightKerningGroup = B;
unicode = 66;
},
{
glyphname = C;
layers = (
{
layerId = "8DF6C0F1-DE73-4D1F-9C90-51BE488A4B4C";
shapes = (
{
closed = 1;
nodes = (
(307,-30,o),
(90,189,o),
(90,548,cs),
(90,1029,o),
(402,1470,o),
(913,1470,cs),
(1211,1470,o),
(1432,1319,o),
(1478,1014,c),
(1197,938,l),
(1172,1124,o),
(1057,1214,o),
(871,1214,cs),
(525,1214,o),
(374,884,o),
(374,580,cs),
(374,362,o),
(483,226,o),
(707,226,cs),
(900,226,o),
(1046,327,o),
(1125,502,c),
(1381,426,l),
(1241,140,o),
(986,-30,o),
(665,-30,cs)
);
}
);
width = 1452;
},
{
layerId = "87233CA6-F023-426F-ADAE-E8786DEFE8CF";
shapes = (
{
closed = 1;
nodes = (
(281,-30,o),
(89,188,o),
(89,539,cs),
(89,1010,o),
(374,1470,o),
(886,1470,cs),
(1191,1470,o),
(1394,1309,o),
(1428,1000,c),
(1249,954,l),
(1225,1184,o),
(1091,1306,o),
(859,1306,cs),
(454,1306,o),
(269,913,o),
(269,557,cs),
(269,300,o),
(400,134,o),
(665,134,cs),
(905,134,o),
(1080,269,o),
(1171,486,c),
(1335,440,l),
(1205,149,o),
(961,-30,o),
(638,-30,cs)
);
}
);
width = 1404;
},
{
layerId = "C35D8726-4A09-4B72-A1E9-09A0D38B7D70";
shapes = (
{
closed = 1;
nodes = (
(258,-30,o),
(88,188,o),
(88,531,cs),
(88,994,o),
(349,1470,o),
(862,1470,cs),
(1173,1470,o),
(1361,1300,o),
(1384,988,c),
(1294,968,l),
(1272,1237,o),
(1120,1386,o),
(848,1386,cs),
(392,1386,o),
(177,938,o),
(177,536,cs),
(177,245,o),
(327,54,o),
(628,54,cs),
(909,54,o),
(1109,218,o),
(1212,472,c),
(1295,452,l),
(1174,156,o),
(940,-30,o),
(614,-30,cs)
);
}
);
width = 1362;
}
);
leftKerningGroup = C2;
rightKerningGroup = C;
unicode = 67;
},
{
glyphname = D;
layers = (
{
layerId = "8DF6C0F1-DE73-4D1F-9C90-51BE488A4B4C";
shapes = (
{
closed = 1;
nodes = (
(58,0,l),
(297,1440,l),
(779,1440,ls),
(1138,1440,o),
(1348,1267,o),
(1348,880,cs),
(1348,387,o),
(1038,0,o),
(541,0,cs)
);
},
{
closed = 1;
nodes = (
(371,256,l),
(557,256,ls),
(902,256,o),
(1062,498,o),
(1062,840,cs),
(1062,1069,o),
(978,1184,o),
(743,1184,cs),
(525,1184,l)
);
}
);
width = 1374;
},
{
layerId = "87233CA6-F023-426F-ADAE-E8786DEFE8CF";
shapes = (
{
closed = 1;
nodes = (
(58,0,l),
(297,1440,l),
(760,1440,ls),
(1111,1440,o),
(1299,1277,o),
(1299,901,cs),
(1299,390,o),
(1024,0,o),
(504,0,cs)
);
},
{
closed = 1;
nodes = (
(259,164,l),
(519,164,ls),
(940,164,o),
(1119,470,o),
(1119,878,cs),
(1119,1163,o),
(998,1276,o),
(718,1276,cs),
(443,1276,l)
);
}
);
width = 1314;
},
{
layerId = "C35D8726-4A09-4B72-A1E9-09A0D38B7D70";
shapes = (
{
closed = 1;
nodes = (
(58,0,l),
(297,1440,l),
(743,1440,ls),
(1087,1440,o),
(1257,1285,o),
(1257,919,cs),
(1257,393,o),
(1011,0,o),
(472,0,cs)
);
},
{
closed = 1;
nodes = (
(161,84,l),
(486,84,ls),
(974,84,o),
(1169,445,o),
(1169,911,cs),
(1169,1245,o),
(1016,1356,o),
(696,1356,cs),
(371,1356,l)
);
}
);
width = 1262;
}
);
rightKerningGroup = D;
unicode = 68;
},
{
glyphname = E;
layers = (
{
layerId = "8DF6C0F1-DE73-4D1F-9C90-51BE488A4B4C";
shapes = (
{
closed = 1;
nodes = (
(58,0,l),
(297,1440,l),
(1218,1440,l),
(1176,1186,l),
(521,1186,l),
(470,878,l),
(1007,878,l),
(965,624,l),
(428,624,l),
(367,254,l),
(1022,254,l),
(980,0,l)
);
}
);
width = 1139;
},
{
layerId = "87233CA6-F023-426F-ADAE-E8786DEFE8CF";
shapes = (
{
closed = 1;
nodes = (
(58,0,l),
(297,1440,l),
(1187,1440,l),
(1159,1277,l),
(438,1277,l),
(362,816,l),
(965,816,l),
(938,653,l),
(335,653,l),
(254,163,l),
(976,163,l),
(949,0,l)
);
}
);
width = 1108;
},
{
layerId = "C35D8726-4A09-4B72-A1E9-09A0D38B7D70";
shapes = (
{
closed = 1;
nodes = (
(58,0,l),
(297,1440,l),
(1159,1440,l),
(1145,1356,l),
(365,1356,l),
(267,762,l),
(929,762,l),
(915,678,l),
(253,678,l),
(155,84,l),
(935,84,l),
(921,0,l)
);
}
);
width = 1080;
}
);
rightKerningGroup = E;
unicode = 69;
},
{
glyphname = F;
layers = (
{
layerId = "8DF6C0F1-DE73-4D1F-9C90-51BE488A4B4C";
shapes = (
{
closed = 1;
nodes = (
(58,0,l),
(297,1440,l),
(1159,1440,l),
(1114,1168,l),
(518,1168,l),
(467,856,l),
(945,856,l),
(900,584,l),
(422,584,l),
(325,0,l)
);
}
);
width = 1026;
},
{
layerId = "87233CA6-F023-426F-ADAE-E8786DEFE8CF";
shapes = (
{
closed = 1;
nodes = (
(58,0,l),
(297,1440,l),
(1117,1440,l),
(1089,1268,l),
(436,1268,l),
(360,806,l),
(895,806,l),
(866,634,l),
(332,634,l),
(227,0,l)
);
}
);
width = 984;
},
{
layerId = "C35D8726-4A09-4B72-A1E9-09A0D38B7D70";
shapes = (
{
closed = 1;
nodes = (
(58,0,l),
(297,1440,l),
(1081,1440,l),
(1067,1356,l),
(365,1356,l),
(267,762,l),
(851,762,l),
(837,678,l),
(253,678,l),
(141,0,l)
);
}
);
width = 947;
}
);
unicode = 70;
},
{
glyphname = G;
layers = (
{
layerId = "8DF6C0F1-DE73-4D1F-9C90-51BE488A4B4C";
shapes = (
{
closed = 1;
nodes = (
(1099,0,l),
(1313,0,l),
(1446,806,l),
(1202,806,l),
(1125,339,l)
);
},
{
closed = 1;
nodes = (
(701,1470,o),
(522,1395,o),
(382,1262,cs),
(241,1129,o),
(142,944,o),
(105,720,cs),
(62,457,o),
(110,254,o),
(228,126,cs),
(322,24,o),
(460,-30,o),
(632,-30,cs),
(728,-30,o),
(849,-6,o),
(951,43,cs),
(1017,75,o),
(1075,118,o),
(1112,173,c),
(1436,806,l),
(837,806,l),
(795,552,l),
(1153,552,l),
(1123,425,o),
(1034,330,o),
(922,276,cs),
(854,244,o),
(778,226,o),
(702,226,cs),
(565,226,o),
(480,274,o),
(431,348,cs),
(368,443,o),
(364,583,o),
(387,720,cs),
(412,863,o),
(468,1000,o),
(563,1094,cs),
(638,1168,o),
(738,1214,o),
(867,1214,cs),
(954,1214,o),
(1028,1192,o),
(1082,1147,cs),
(1138,1100,o),
(1173,1030,o),
(1178,936,c),
(1457,976,l),
(1441,1136,o),
(1389,1256,o),
(1302,1338,cs),
(1208,1426,o),
(1074,1470,o),
(900,1470,cs)
);
}
);
width = 1454;
},
{
layerId = "87233CA6-F023-426F-ADAE-E8786DEFE8CF";
shapes = (
{
closed = 1;
nodes = (
(1114,0,l),
(1253,0,l),
(1379,760,l),
(1225,760,l),
(1153,320,l)
);
},
{
closed = 1;
nodes = (
(681,1469,o),
(507,1397,o),
(372,1266,cs),
(237,1136,o),
(143,949,o),
(105,720,cs),
(62,459,o),
(105,256,o),
(219,127,cs),
(310,25,o),
(446,-30,o),
(620,-30,cs),
(739,-30,o),
(868,1,o),
(975,64,cs),
(1045,105,o),
(1105,160,o),
(1147,228,c),
(1372,760,l),
(811,760,l),
(784,597,l),
(1195,597,l),
(1162,425,o),
(1075,288,o),
(944,209,cs),
(864,161,o),
(769,134,o),
(660,134,cs),
(516,134,o),
(415,182,o),
(353,263,cs),
(271,367,o),
(252,527,o),
(282,714,cs),
(313,897,o),
(379,1050,o),
(484,1155,cs),
(579,1252,o),
(702,1305,o),
(857,1305,cs),
(952,1305,o),
(1033,1281,o),
(1095,1234,cs),
(1159,1186,o),
(1201,1114,o),
(1214,1017,c),
(1390,1054,l),
(1370,1191,o),
(1314,1293,o),
(1231,1361,cs),
(1143,1433,o),
(1026,1469,o),
(880,1469,cs)
);
}
);
width = 1394;
},
{
layerId = "C35D8726-4A09-4B72-A1E9-09A0D38B7D70";
shapes = (
{
closed = 1;
nodes = (
(1127,0,l),
(1201,0,l),
(1320,720,l),
(1246,720,l),
(1177,303,l)
);
},
{
closed = 1;
nodes = (
(664,1468,o),
(494,1398,o),
(364,1270,cs),
(234,1142,o),
(143,954,o),
(105,720,cs),
(62,460,o),
(101,257,o),
(212,128,cs),
(300,26,o),
(434,-30,o),
(609,-30,cs),
(748,-30,o),
(884,7,o),
(996,82,cs),
(1069,131,o),
(1132,196,o),
(1178,277,c),
(1316,720,l),
(788,720,l),
(774,636,l),
(1232,636,l),
(1197,425,o),
(1111,251,o),
(963,150,cs),
(873,89,o),
(761,54,o),
(623,54,cs),
(473,54,o),
(359,101,o),
(284,188,cs),
(187,300,o),
(154,478,o),
(191,708,cs),
(227,926,o),
(302,1093,o),
(415,1209,cs),
(528,1325,o),
(671,1384,o),
(848,1384,cs),
(951,1384,o),
(1038,1359,o),
(1107,1310,cs),
(1178,1261,o),
(1225,1188,o),
(1246,1088,c),
(1332,1122,l),
(1307,1239,o),
(1248,1325,o),
(1168,1382,cs),
(1086,1439,o),
(984,1468,o),
(862,1468,cs)
);
}
);
width = 1342;
}
);
leftKerningGroup = G2;
rightKerningGroup = G;
unicode = 71;
},
{
glyphname = H;
layers = (
{
layerId = "8DF6C0F1-DE73-4D1F-9C90-51BE488A4B4C";
shapes = (
{
closed = 1;
nodes = (
(58,0,l),
(297,1440,l),
(563,1440,l),
(465,848,l),
(1096,848,l),
(1194,1440,l),
(1461,1440,l),
(1223,0,l),
(956,0,l),
(1054,594,l),
(423,594,l),
(325,0,l)
);
}
);
width = 1419;
},
{
layerId = "87233CA6-F023-426F-ADAE-E8786DEFE8CF";
shapes = (
{
closed = 1;
nodes = (
(58,0,l),
(297,1440,l),
(465,1440,l),
(359,802,l),
(1109,802,l),
(1215,1440,l),
(1384,1440,l),
(1146,0,l),
(977,0,l),
(1083,639,l),
(332,639,l),
(227,0,l)
);
}
);
width = 1342;
},
{
layerId = "C35D8726-4A09-4B72-A1E9-09A0D38B7D70";
shapes = (
{
closed = 1;
nodes = (
(58,0,l),
(297,1440,l),
(379,1440,l),
(267,762,l),
(1121,762,l),
(1234,1440,l),
(1316,1440,l),
(1078,0,l),
(995,0,l),
(1108,678,l),
(253,678,l),
(141,0,l)
);
}
);
width = 1274;
}
);
unicode = 72;
},
{
glyphname = I;
layers = (
{
layerId = "8DF6C0F1-DE73-4D1F-9C90-51BE488A4B4C";
shapes = (
{
closed = 1;
nodes = (
(77,0,l),
(315,1440,l),
(582,1440,l),
(343,0,l)
);
}
);
width = 557;
},
{
layerId = "87233CA6-F023-426F-ADAE-E8786DEFE8CF";
shapes = (
{
closed = 1;
nodes = (
(77,0,l),
(315,1440,l),
(483,1440,l),
(245,0,l)
);
}
);
width = 459;
},
{
layerId = "C35D8726-4A09-4B72-A1E9-09A0D38B7D70";
shapes = (
{
closed = 1;
nodes = (
(77,0,l),
(315,1440,l),
(397,1440,l),
(159,0,l)
);
}
);
width = 373;
}
);
leftKerningGroup = I2;
rightKerningGroup = I;
unicode = 73;
},
{
glyphname = J;
layers = (
{
layerId = "8DF6C0F1-DE73-4D1F-9C90-51BE488A4B4C";
shapes = (
{
closed = 1;
nodes = (
(148,-30,o),
(8,84,o),
(-20,296,c),
(253,360,l),
(253,287,o),
(316,224,o),
(389,224,cs),
(481,224,o),
(528,272,o),
(554,337,cs),
(572,381,o),
(581,431,o),
(589,480,cs),
(748,1440,l),
(1018,1440,l),
(859,480,ls),
(847,408,o),
(839,333,o),
(814,265,cs),
(745,80,o),
(550,-30,o),
(359,-30,cs)
);
}
);
width = 994;
},
{
layerId = "87233CA6-F023-426F-ADAE-E8786DEFE8CF";
shapes = (
{
closed = 1;
nodes = (
(126,-29,o),
(-4,81,o),
(-24,271,c),
(150,312,l),
(154,209,o),
(237,134,o),
(339,134,cs),
(446,134,o),
(526,195,o),
(566,284,cs),
(588,335,o),
(597,394,o),
(606,450,cs),
(770,1440,l),
(940,1440,l),
(776,450,ls),
(764,382,o),
(756,312,o),
(732,247,cs),
(667,76,o),
(494,-29,o),
(315,-29,cs)
);
}
);
width = 917;
},
{
layerId = "C35D8726-4A09-4B72-A1E9-09A0D38B7D70";
shapes = (
{
closed = 1;
nodes = (
(106,-28,o),
(-14,79,o),
(-28,250,c),
(60,270,l),
(68,141,o),
(168,56,o),
(295,56,cs),
(416,56,o),
(525,128,o),
(576,237,cs),
(602,294,o),
(611,362,o),
(621,424,cs),
(789,1440,l),
(871,1440,l),
(703,424,ls),
(692,359,o),
(683,293,o),
(660,231,cs),
(599,72,o),
(445,-28,o),
(277,-28,cs)
);
}
);
width = 849;
}
);
leftKerningGroup = J2;
rightKerningGroup = J;
unicode = 74;
},
{
glyphname = K;
layers = (
{
layerId = "8DF6C0F1-DE73-4D1F-9C90-51BE488A4B4C";
shapes = (
{
closed = 1;
nodes = (
(1100,1440,l),
(1426,1440,l),
(240,323,l),
(304,696,l)
);
},
{
closed = 1;
nodes = (
(894,0,l),
(451,696,l),
(716,799,l),
(1225,0,l)
);
},
{
closed = 1;
nodes = (
(58,0,l),
(297,1440,l),
(554,1440,l),
(315,0,l)
);
}
);
width = 1293;
},
{
layerId = "87233CA6-F023-426F-ADAE-E8786DEFE8CF";
shapes = (
{
closed = 1;
nodes = (
(1088,1440,l),
(1301,1440,l),
(210,427,l),
(250,666,l)
);
},
{
closed = 1;
nodes = (
(898,0,l),
(439,742,l),
(606,814,l),
(1113,0,l)
);
},
{
closed = 1;
nodes = (
(58,0,l),
(297,1440,l),
(461,1440,l),
(222,0,l)
);
}
);
width = 1181;
},
{
layerId = "C35D8726-4A09-4B72-A1E9-09A0D38B7D70";
shapes = (
{
closed = 1;
nodes = (
(1078,1440,l),
(1191,1440,l),
(183,518,l),
(203,639,l)
);
},
{
closed = 1;
nodes = (
(902,0,l),
(429,782,l),
(509,828,l),
(1015,0,l)
);
},
{
closed = 1;
nodes = (
(58,0,l),
(297,1440,l),
(379,1440,l),
(141,0,l)
);
}
);
width = 1083;
}
);
rightKerningGroup = K;
unicode = 75;
},
{
glyphname = L;
layers = (
{
layerId = "8DF6C0F1-DE73-4D1F-9C90-51BE488A4B4C";
shapes = (
{
closed = 1;
nodes = (
(77,0,l),
(315,1440,l),
(582,1440,l),
(385,254,l),
(993,254,l),
(951,0,l)
);
}
);
width = 1047;
},
{
layerId = "87233CA6-F023-426F-ADAE-E8786DEFE8CF";
shapes = (
{
closed = 1;
nodes = (
(77,0,l),
(315,1440,l),
(483,1440,l),
(272,163,l),
(930,163,l),
(903,0,l)
);
}
);
width = 998;
},
{
layerId = "C35D8726-4A09-4B72-A1E9-09A0D38B7D70";
shapes = (
{
closed = 1;
nodes = (
(77,0,l),
(315,1440,l),
(397,1440,l),
(173,84,l),
(875,84,l),
(861,0,l)
);
}
);
width = 956;
}
);
rightKerningGroup = L;
unicode = 76;
},
{
glyphname = M;
layers = (
{
layerId = "8DF6C0F1-DE73-4D1F-9C90-51BE488A4B4C";
shapes = (
{
closed = 1;
nodes = (
(58,0,l),
(297,1440,l),
(565,1440,l),
(850,519,l),
(1439,1440,l),
(1708,1440,l),
(1470,0,l),
(1201,0,l),
(1350,900,l),
(910,211,l),
(688,211,l),
(476,900,l),
(327,0,l)
);
}
);
width = 1666;
},
{
layerId = "87233CA6-F023-426F-ADAE-E8786DEFE8CF";
shapes = (
{
closed = 1;
nodes = (
(58,0,l),
(297,1440,l),
(464,1440,l),
(784,366,l),
(1456,1440,l),
(1625,1440,l),
(1387,1,l),
(1218,1,l),
(1396,1080,l),
(827,168,l),
(674,168,l),
(407,1080,l),
(228,0,l)
);
}
);
width = 1583;
},
{
layerId = "C35D8726-4A09-4B72-A1E9-09A0D38B7D70";
shapes = (
{
closed = 1;
nodes = (
(58,0,l),
(297,1440,l),
(375,1440,l),
(726,232,l),
(1471,1440,l),
(1553,1440,l),
(1315,2,l),
(1233,2,l),
(1437,1238,l),
(754,130,l),
(662,130,l),
(346,1238,l),
(141,0,l)
);
}
);
width = 1511;
}
);
unicode = 77;
},
{
glyphname = N;
layers = (
{
layerId = "8DF6C0F1-DE73-4D1F-9C90-51BE488A4B4C";
shapes = (
{
closed = 1;
nodes = (
(58,0,l),
(297,1440,l),
(567,1440,l),
(1022,480,l),
(1181,1440,l),
(1451,1440,l),
(1213,0,l),
(942,0,l),
(488,960,l),
(329,0,l)
);
}
);
width = 1409;
},
{
layerId = "87233CA6-F023-426F-ADAE-E8786DEFE8CF";
shapes = (
{
closed = 1;
nodes = (
(58,0,l),
(297,1440,l),
(467,1440,l),
(1023,304,l),
(1211,1440,l),
(1381,1440,l),
(1143,0,l),
(972,0,l),
(417,1137,l),
(229,0,l)
);
}
);
width = 1339;
},
{
layerId = "C35D8726-4A09-4B72-A1E9-09A0D38B7D70";
shapes = (
{
closed = 1;
nodes = (
(58,0,l),
(297,1440,l),
(379,1440,l),
(1024,150,l),
(1238,1440,l),
(1320,1440,l),
(1082,0,l),
(999,0,l),
(355,1292,l),
(141,0,l)
);
}
);
width = 1277;
}
);
unicode = 78;
},
{
glyphname = O;
layers = (
{
layerId = "8DF6C0F1-DE73-4D1F-9C90-51BE488A4B4C";
shapes = (
{
closed = 1;
nodes = (
(307,-30,o),
(90,190,o),
(90,548,cs),
(90,1029,o),
(402,1470,o),
(913,1470,cs),
(1271,1470,o),
(1488,1252,o),
(1488,894,cs),
(1488,412,o),
(1179,-30,o),
(665,-30,cs)
);
},
{
closed = 1;
nodes = (
(1056,226,o),
(1203,564,o),
(1203,860,cs),
(1203,1083,o),
(1089,1214,o),
(862,1214,cs),
(528,1214,o),
(375,884,o),
(375,590,cs),
(375,363,o),
(480,226,o),
(716,226,cs)
);
}
);
width = 1477;
},
{
layerId = "87233CA6-F023-426F-ADAE-E8786DEFE8CF";
shapes = (
{
closed = 1;
nodes = (
(281,-30,o),
(89,189,o),
(89,539,cs),
(89,1010,o),
(374,1470,o),
(886,1470,cs),
(1242,1470,o),
(1435,1254,o),
(1435,904,cs),
(1435,431,o),
(1153,-30,o),
(638,-30,cs)
);
},
{
closed = 1;
nodes = (
(1069,134,o),
(1254,526,o),
(1254,878,cs),
(1254,1139,o),
(1126,1306,o),
(855,1306,cs),
(455,1306,o),
(269,913,o),
(269,561,cs),
(269,300,o),
(398,134,o),
(669,134,cs)
);
}
);
width = 1423;
},
{
layerId = "C35D8726-4A09-4B72-A1E9-09A0D38B7D70";
shapes = (
{
closed = 1;
nodes = (
(258,-30,o),
(88,188,o),
(88,531,cs),
(88,994,o),
(349,1470,o),
(862,1470,cs),
(1216,1470,o),
(1388,1255,o),
(1388,913,cs),
(1388,448,o),
(1131,-30,o),
(614,-30,cs)
);
},
{
closed = 1;
nodes = (
(1081,54,o),
(1298,493,o),
(1298,894,cs),
(1298,1188,o),
(1158,1386,o),
(848,1386,cs),
(392,1386,o),
(177,938,o),
(177,536,cs),
(177,245,o),
(327,54,o),
(628,54,cs)
);
}
);
width = 1375;
}
);
leftKerningGroup = G2;
rightKerningGroup = O;
unicode = 79;
},
{
glyphname = P;
layers = (
{
layerId = "8DF6C0F1-DE73-4D1F-9C90-51BE488A4B4C";
shapes = (
{
closed = 1;
nodes = (
(58,0,l),
(297,1440,l),
(893,1440,ls),
(914,1440,o),
(982,1437,o),
(1009,1432,qs),
(1071,1422,o),
(1167,1379,o),
(1203,1347,q),
(1273,1281,o),
(1316,1085,o),
(1296,964,qs),
(1286,903,o),
(1249,794,o),
(1222,745,qs),
(1166,645,o),
(984,516,o),
(854,496,qs),
(840,494,o),
(808,491,o),
(790,490,qs),
(772,489,o),
(745,488,o),
(735,488,qs),
(406,488,l),
(325,0,l)
);
},
{
closed = 1;
nodes = (
(448,742,l),
(765,742,ls),
(786,742,o),
(836,746,o),
(857,752,qs),
(886,760,o),
(931,785,o),
(949,803,qs),
(984,838,o),
(1021,925,o),
(1027,964,qs),
(1030,984,o),
(1032,1025,o),
(1030,1047,qs),
(1026,1091,o),
(979,1161,o),
(927,1176,qs),
(907,1182,o),
(859,1186,o),
(839,1186,qs),
(521,1186,l)
);
}
);
width = 1260;
},
{
layerId = "87233CA6-F023-426F-ADAE-E8786DEFE8CF";
shapes = (
{
closed = 1;
nodes = (
(58,0,l),
(297,1440,l),
(852,1440,ls),
(873,1440,o),
(927,1437,o),
(954,1432,qs),
(1009,1423,o),
(1098,1383,o),
(1132,1352,qs),
(1200,1290,o),
(1247,1102,o),
(1228,987,qs),
(1218,930,o),
(1181,827,o),
(1154,780,qs),
(1098,684,o),
(923,561,o),
(807,543,qs),
(793,541,o),
(765,538,o),
(751,537,qs),
(736,536,o),
(712,535,o),
(702,535,qs),
(315,535,l),
(227,0,l)
);
},
{
closed = 1;
nodes = (
(342,698,l),
(723,698,ls),
(742,698,o),
(790,702,o),
(813,707,qs),
(849,715,o),
(909,744,o),
(935,766,qs),
(986,810,o),
(1045,926,o),
(1055,987,qs),
(1060,1019,o),
(1060,1078,o),
(1055,1108,qs),
(1045,1167,o),
(973,1252,o),
(906,1268,qs),
(884,1273,o),
(838,1277,o),
(819,1277,qs),
(438,1277,l)
);
}
);
width = 1187;
},
{
layerId = "C35D8726-4A09-4B72-A1E9-09A0D38B7D70";
shapes = (
{
closed = 1;
nodes = (
(58,0,l),
(297,1440,l),
(816,1440,ls),
(837,1440,o),
(879,1437,o),
(905,1432,q),
(955,1424,o),
(1038,1386,o),
(1070,1357,qs),
(1136,1297,o),
(1186,1117,o),
(1168,1008,qs),
(1159,954,o),
(1122,855,o),
(1095,810,qs),
(1039,719,o),
(870,600,o),
(765,584,qs),
(751,582,o),
(727,579,o),
(716,578,qs),
(705,577,o),
(684,576,o),
(673,576,qs),
(236,576,l),
(141,0,l)
);
},
{
closed = 1;
nodes = (
(250,660,l),
(687,660,ls),
(704,660,o),
(750,664,o),
(775,668,qs),
(817,676,o),
(890,709,o),
(923,734,qs),
(987,785,o),
(1066,927,o),
(1080,1008,qs),
(1087,1049,o),
(1085,1125,o),
(1077,1161,qs),
(1061,1233,o),
(967,1332,o),
(887,1348,qs),
(864,1353,o),
(819,1356,o),
(802,1356,qs),
(365,1356,l)
);
}
);
width = 1124;
}
);
unicode = 80;
},
{
glyphname = Q;
layers = (
{
layerId = "8DF6C0F1-DE73-4D1F-9C90-51BE488A4B4C";
shapes = (
{
closed = 1;
nodes = (
(307,-30,o),
(90,190,o),
(90,548,cs),
(90,1029,o),
(402,1470,o),
(913,1470,cs),
(1271,1470,o),
(1488,1252,o),
(1488,894,cs),
(1488,711,o),
(1443,534,o),
(1360,385,cs),
(1315,304,o),
(1220,226,o),
(1139,182,c),
(1141,178,l),
(1222,222,o),
(1338,254,o),
(1431,254,cs),
(1574,254,l),
(1532,0,l),
(1100,0,ls),
(954,0,o),
(811,-30,o),
(665,-30,cs)
);
},
{
closed = 1;
nodes = (
(1056,226,o),
(1203,564,o),
(1203,860,cs),
(1203,1083,o),
(1089,1214,o),
(862,1214,cs),
(528,1214,o),
(375,884,o),
(375,590,cs),
(375,363,o),
(480,226,o),
(716,226,cs)
);
}
);
width = 1651;
},
{
layerId = "87233CA6-F023-426F-ADAE-E8786DEFE8CF";
shapes = (
{
closed = 1;
nodes = (
(281,-30,o),
(89,189,o),
(89,539,cs),
(89,1010,o),
(374,1470,o),
(886,1470,cs),
(1242,1470,o),
(1435,1254,o),
(1435,904,cs),
(1435,659,o),
(1357,414,o),
(1204,249,c),
(1166,196,o),
(1095,148,o),
(1036,120,c),
(1038,116,l),
(1096,144,o),
(1180,163,o),
(1246,163,cs),
(1496,163,l),
(1469,0,l),
(1047,0,ls),
(910,0,o),
(775,-30,o),
(638,-30,cs)
);
},
{
closed = 1;
nodes = (
(1069,134,o),
(1254,526,o),
(1254,878,cs),
(1254,1139,o),
(1126,1306,o),
(855,1306,cs),
(456,1306,o),
(269,913,o),
(269,561,cs),
(269,300,o),
(398,134,o),
(669,134,cs)
);
}
);
width = 1583;
},
{
layerId = "C35D8726-4A09-4B72-A1E9-09A0D38B7D70";
shapes = (
{
closed = 1;
nodes = (
(258,-30,o),
(88,188,o),
(88,531,cs),
(88,994,o),
(349,1470,o),
(862,1470,cs),
(1216,1470,o),
(1388,1255,o),
(1388,913,cs),
(1388,613,o),
(1281,308,o),
(1067,129,cs),
(1035,102,o),
(985,79,o),
(946,65,c),
(947,61,l),
(986,75,o),
(1041,84,o),
(1083,84,cs),
(1428,84,l),
(1414,0,l),
(1001,0,ls),
(871,0,o),
(743,-30,o),
(614,-30,cs)
);
},
{
closed = 1;
nodes = (
(1081,54,o),
(1298,493,o),
(1298,894,cs),
(1298,1188,o),
(1158,1386,o),
(848,1386,cs),
(392,1386,o),
(177,938,o),
(177,536,cs),
(177,245,o),
(327,54,o),
(628,54,cs)
);
}
);
width = 1524;
}
);
leftKerningGroup = G2;
rightKerningGroup = O;
unicode = 81;
},
{
glyphname = R;
layers = (
{
layerId = "8DF6C0F1-DE73-4D1F-9C90-51BE488A4B4C";
shapes = (
{
closed = 1;
nodes = (
(864,0,l),
(663,586,l),
(946,640,l),
(1166,0,l)
);
},
{
closed = 1;
nodes = (
(58,0,l),
(297,1440,l),
(893,1440,ls),
(914,1440,o),
(982,1437,o),
(1009,1432,qs),
(1071,1422,o),
(1167,1381,o),
(1203,1350,qs),
(1274,1287,o),
(1319,1101,o),
(1299,984,qs),
(1291,936,o),
(1257,841,o),
(1229,793,qs),
(1201,745,o),
(1129,662,o),
(1082,627,qs),
(1035,592,o),
(925,546,o),
(861,536,qs),
(847,534,o),
(815,531,o),
(797,530,qs),
(779,529,o),
(751,528,o),
(742,528,qs),
(412,528,l),
(325,0,l)
);
},
{
closed = 1;
nodes = (
(454,782,l),
(772,782,ls),
(793,782,o),
(844,783,o),
(864,792,qs),
(908,811,o),
(969,856,o),
(987,882,qs),
(1005,908,o),
(1026,958,o),
(1031,984,qs),
(1035,1010,o),
(1031,1065,o),
(1023,1095,q),
(1014,1124,o),
(967,1165,o),
(927,1176,qs),
(907,1182,o),
(859,1186,o),
(839,1186,qs),
(521,1186,l)
);
}
);
width = 1298;
},
{
layerId = "87233CA6-F023-426F-ADAE-E8786DEFE8CF";
shapes = (
{
closed = 1;
nodes = (
(895,0,l),
(678,637,l),
(861,662,l),
(1088,0,l)
);
},
{
closed = 1;
nodes = (
(58,0,l),
(297,1440,l),
(852,1440,ls),
(873,1440,o),
(927,1437,o),
(954,1432,qs),
(1009,1423,o),
(1098,1385,o),
(1132,1355,qs),
(1200,1296,o),
(1250,1120,o),
(1232,1013,qs),
(1224,964,o),
(1189,872,o),
(1162,827,qs),
(1134,782,o),
(1063,707,o),
(1019,676,qs),
(975,644,o),
(873,603,o),
(815,594,qs),
(801,592,o),
(773,589,o),
(759,588,qs),
(745,587,o),
(721,586,o),
(711,586,qs),
(323,586,l),
(227,0,l)
);
},
{
closed = 1;
nodes = (
(351,749,l),
(732,749,ls),
(751,749,o),
(799,752,o),
(822,758,qs),
(877,773,o),
(959,824,o),
(989,861,qs),
(1018,897,o),
(1053,972,o),
(1060,1013,qs),
(1066,1054,o),
(1057,1132,o),
(1040,1170,qs),
(1023,1207,o),
(956,1256,o),
(906,1268,qs),
(884,1273,o),
(838,1277,o),
(819,1277,qs),
(438,1277,l)
);
}
);
width = 1235;
},
{
layerId = "C35D8726-4A09-4B72-A1E9-09A0D38B7D70";
shapes = (
{
closed = 1;
nodes = (
(922,0,l),
(691,682,l),
(787,682,l),
(1020,0,l)
);
},
{
closed = 1;
nodes = (
(58,0,l),
(297,1440,l),
(816,1440,ls),
(837,1440,o),
(879,1437,o),
(905,1432,q),
(955,1424,o),
(1038,1388,o),
(1070,1360,qs),
(1136,1303,o),
(1189,1137,o),
(1173,1038,qs),
(1165,989,o),
(1129,899,o),
(1103,857,q),
(1075,815,o),
(1006,746,o),
(964,718,qs),
(922,690,o),
(827,653,o),
(775,644,qs),
(761,642,o),
(737,639,o),
(726,638,qs),
(715,637,o),
(694,636,o),
(683,636,qs),
(246,636,l),
(141,0,l)
);
},
{
closed = 1;
nodes = (
(260,720,l),
(697,720,ls),
(714,720,o),
(760,724,o),
(785,728,qs),
(849,739,o),
(951,796,o),
(990,842,qs),
(1029,887,o),
(1076,984,o),
(1085,1038,qs),
(1094,1092,o),
(1079,1190,o),
(1055,1235,qs),
(1031,1280,o),
(947,1336,o),
(887,1348,qs),
(864,1353,o),
(819,1356,o),
(802,1356,qs),
(365,1356,l)
);
}
);
width = 1180;
}
);
rightKerningGroup = R;
unicode = 82;
},
{
glyphname = S;
layers = (
{
layerId = "8DF6C0F1-DE73-4D1F-9C90-51BE488A4B4C";
shapes = (
{
closed = 1;
nodes = (
(307,-30,o),
(77,134,o),
(77,440,c),
(362,482,l),
(372,319,o),
(490,224,o),
(650,224,cs),
(771,224,o),
(951,287,o),
(951,433,cs),
(951,666,o),
(223,545,o),
(223,954,cs),
(223,1290,o),
(509,1468,o),
(818,1468,cs),
(1096,1468,o),
(1298,1338,o),
(1324,1046,c),
(1027,996,l),
(1019,1140,o),
(907,1214,o),
(771,1214,cs),
(668,1214,o),
(511,1155,o),
(511,1031,cs),
(511,808,o),
(1240,924,o),
(1240,508,cs),
(1240,156,o),
(908,-30,o),
(591,-30,cs)
);
}
);
width = 1303;
},
{
layerId = "87233CA6-F023-426F-ADAE-E8786DEFE8CF";
shapes = (
{
closed = 1;
nodes = (
(294,-30,o),
(66,111,o),
(60,396,c),
(238,424,l),
(254,229,o),
(407,133,o),
(592,133,cs),
(769,133,o),
(982,228,o),
(982,432,cs),
(982,731,o),
(220,584,o),
(220,998,cs),
(220,1303,o),
(502,1469,o),
(779,1469,cs),
(1049,1469,o),
(1240,1331,o),
(1253,1048,c),
(1069,1016,l),
(1065,1206,o),
(932,1306,o),
(750,1306,cs),
(599,1306,o),
(402,1216,o),
(402,1041,cs),
(402,759,o),
(1161,893,o),
(1161,477,cs),
(1161,144,o),
(858,-30,o),
(557,-30,cs)
);
}
);
width = 1219;
},
{
layerId = "C35D8726-4A09-4B72-A1E9-09A0D38B7D70";
shapes = (
{
closed = 1;
nodes = (
(283,-30,o),
(56,90,o),
(45,358,c),
(130,374,l),
(151,151,o),
(335,54,o),
(541,54,cs),
(767,54,o),
(1009,176,o),
(1009,431,cs),
(1009,788,o),
(217,619,o),
(217,1037,cs),
(217,1315,o),
(495,1470,o),
(744,1470,cs),
(1008,1470,o),
(1190,1324,o),
(1190,1050,c),
(1105,1034,l),
(1105,1264,o),
(953,1386,o),
(731,1386,cs),
(538,1386,o),
(306,1270,o),
(306,1050,cs),
(306,716,o),
(1091,865,o),
(1091,450,cs),
(1091,134,o),
(814,-30,o),
(527,-30,cs)
);
}
);
width = 1146;
}
);
leftKerningGroup = S2;
rightKerningGroup = S;
unicode = 83;
},
{
glyphname = T;
layers = (
{
layerId = "8DF6C0F1-DE73-4D1F-9C90-51BE488A4B4C";
shapes = (
{
closed = 1;
nodes = (
(394,0,l),
(590,1186,l),
(146,1186,l),
(188,1440,l),
(1344,1440,l),
(1302,1186,l),
(857,1186,l),
(661,0,l)
);
}
);
width = 1192;
},
{
layerId = "87233CA6-F023-426F-ADAE-E8786DEFE8CF";
shapes = (
{
closed = 1;
nodes = (
(433,0,l),
(644,1277,l),
(161,1277,l),
(188,1440,l),
(1323,1440,l),
(1296,1277,l),
(812,1277,l),
(601,0,l)
);
}
);
width = 1171;
},
{
layerId = "C35D8726-4A09-4B72-A1E9-09A0D38B7D70";
shapes = (
{
closed = 1;
nodes = (
(467,0,l),
(691,1356,l),
(174,1356,l),
(188,1440,l),
(1305,1440,l),
(1291,1356,l),
(773,1356,l),
(549,0,l)
);
}
);
width = 1153;
}
);
leftKerningGroup = T2;
rightKerningGroup = T;
unicode = 84;
},
{
glyphname = U;
layers = (
{
layerId = "8DF6C0F1-DE73-4D1F-9C90-51BE488A4B4C";
shapes = (
{
closed = 1;
nodes = (
(542,-30,o),
(398,5,o),
(340,41,q),
(221,112,o),
(119,366,o),
(148,540,qs),
(296,1438,l),
(567,1440,l),
(419,542,ls),
(407,471,o),
(435,355,o),
(470,313,qs),
(504,271,o),
(607,226,o),
(670,226,qs),
(735,226,o),
(853,272,o),
(901,314,qs),
(949,356,o),
(1015,472,o),
(1026,542,qs),
(1175,1440,l),
(1445,1440,l),
(1296,540,ls),
(1282,453,o),
(1221,303,o),
(1174,239,qs),
(1079,110,o),
(800,-30,o),
(628,-30,qs)
);
}
);
width = 1403;
},
{
layerId = "87233CA6-F023-426F-ADAE-E8786DEFE8CF";
shapes = (
{
closed = 1;
nodes = (
(527,-30,o),
(389,4,o),
(332,39,qs),
(217,108,o),
(117,355,o),
(145,524,qs),
(297,1439,l),
(467,1440,l),
(318,540,ls),
(301,436,o),
(344,282,o),
(393,232,qs),
(441,181,o),
(569,132,o),
(636,132,qs),
(704,132,o),
(848,182,o),
(913,232,qs),
(977,282,o),
(1072,436,o),
(1088,540,qs),
(1237,1440,l),
(1408,1440,l),
(1256,524,ls),
(1243,440,o),
(1183,295,o),
(1137,233,qs),
(1044,107,o),
(773,-30,o),
(609,-30,qs)
);
}
);
width = 1365;
},
{
layerId = "C35D8726-4A09-4B72-A1E9-09A0D38B7D70";
shapes = (
{
closed = 1;
nodes = (
(513,-30,o),
(381,3,o),
(325,37,qs),
(214,104,o),
(116,346,o),
(143,510,qs),
(297,1440,l),
(379,1440,l),
(230,538,ls),
(208,405,o),
(265,218,o),
(325,161,qs),
(386,103,o),
(535,50,o),
(606,50,qs),
(677,50,o),
(843,103,o),
(923,161,qs),
(1002,218,o),
(1121,405,o),
(1143,538,qs),
(1292,1440,l),
(1375,1440,l),
(1221,510,ls),
(1208,429,o),
(1149,288,o),
(1104,227,qs),
(1013,105,o),
(750,-30,o),
(592,-30,qs)
);
}
);
width = 1332;
}
);
leftKerningGroup = U2;
rightKerningGroup = U;
unicode = 85;
},
{
glyphname = V;
layers = (
{
layerId = "8DF6C0F1-DE73-4D1F-9C90-51BE488A4B4C";
shapes = (
{
closed = 1;
nodes = (
(371,0,l),
(178,1440,l),
(453,1440,l),
(610,256,l),
(1164,1440,l),
(1439,1440,l),
(769,0,l)
);
}
);
width = 1278;
},
{
layerId = "87233CA6-F023-426F-ADAE-E8786DEFE8CF";
shapes = (
{
closed = 1;
nodes = (
(415,0,l),
(178,1440,l),
(354,1440,l),
(560,185,l),
(1186,1440,l),
(1362,1440,l),
(648,0,l)
);
}
);
width = 1201;
},
{
layerId = "C35D8726-4A09-4B72-A1E9-09A0D38B7D70";
shapes = (
{
closed = 1;
nodes = (
(454,0,l),
(178,1440,l),
(267,1440,l),
(517,122,l),
(1206,1440,l),
(1294,1440,l),
(542,0,l)
);
}
);
width = 1133;
}
);
leftKerningGroup = V2;
rightKerningGroup = V;
unicode = 86;
},
{
glyphname = W;
layers = (
{
layerId = "8DF6C0F1-DE73-4D1F-9C90-51BE488A4B4C";
shapes = (
{
closed = 1;
nodes = (
(363,0,l),
(188,1440,l),
(468,1440,l),
(569,450,l),
(997,1438,l),
(1277,1440,l),
(1378,450,l),
(1807,1440,l),
(2087,1440,l),
(1435,0,l),
(1172,0,l),
(1060,972,l),
(625,0,l)
);
}
);
width = 1935;
},
{
layerId = "87233CA6-F023-426F-ADAE-E8786DEFE8CF";
shapes = (
{
closed = 1;
nodes = (
(367,0,l),
(198,1440,l),
(373,1440,l),
(500,291,l),
(1006,1439,l),
(1183,1440,l),
(1309,291,l),
(1816,1440,l),
(1992,1440,l),
(1345,0,l),
(1177,0,l),
(1045,1139,l),
(535,0,l)
);
}
);
width = 1850;
},
{
layerId = "C35D8726-4A09-4B72-A1E9-09A0D38B7D70";
shapes = (
{
closed = 1;
nodes = (
(371,0,l),
(206,1440,l),
(290,1440,l),
(439,152,l),
(1013,1440,l),
(1100,1440,l),
(1249,152,l),
(1823,1440,l),
(1909,1440,l),
(1267,0,l),
(1181,0,l),
(1031,1286,l),
(457,0,l)
);
}
);
width = 1776;
}
);
leftKerningGroup = V2;
rightKerningGroup = V;
unicode = 87;
},
{
glyphname = X;
layers = (
{
layerId = "8DF6C0F1-DE73-4D1F-9C90-51BE488A4B4C";
shapes = (
{
closed = 1;
nodes = (
(-51,0,l),
(544,728,l),
(201,1440,l),
(529,1440,l),
(749,960,l),
(1124,1440,l),
(1454,1440,l),
(875,728,l),
(1227,0,l),
(900,0,l),
(672,496,l),
(278,0,l)
);
}
);
width = 1314;
},
{
layerId = "87233CA6-F023-426F-ADAE-E8786DEFE8CF";
shapes = (
{
closed = 1;
nodes = (
(-51,0,l),
(556,729,l),
(200,1440,l),
(405,1440,l),
(681,874,l),
(1144,1440,l),
(1351,1440,l),
(759,729,l),
(1124,0,l),
(919,0,l),
(633,583,l),
(155,0,l)
);
}
);
width = 1211;
},
{
layerId = "C35D8726-4A09-4B72-A1E9-09A0D38B7D70";
shapes = (
{
closed = 1;
nodes = (
(-51,0,l),
(566,730,l),
(199,1440,l),
(297,1440,l),
(622,798,l),
(1162,1440,l),
(1260,1440,l),
(658,730,l),
(1033,0,l),
(935,0,l),
(599,660,l),
(47,0,l)
);
}
);
width = 1120;
}
);
leftKerningGroup = X2;
rightKerningGroup = X;
unicode = 88;
},
{
glyphname = Y;
layers = (
{
layerId = "8DF6C0F1-DE73-4D1F-9C90-51BE488A4B4C";
shapes = (
{
closed = 1;
nodes = (
(413,0,l),
(510,586,l),
(169,1440,l),
(481,1440,l),
(697,898,l),
(1093,1440,l),
(1404,1440,l),
(781,586,l),
(684,0,l)
);
}
);
width = 1234;
},
{
layerId = "87233CA6-F023-426F-ADAE-E8786DEFE8CF";
shapes = (
{
closed = 1;
nodes = (
(406,0,l),
(505,600,l),
(169,1440,l),
(365,1440,l),
(623,797,l),
(1093,1440,l),
(1288,1440,l),
(675,600,l),
(576,0,l)
);
}
);
width = 1118;
},
{
layerId = "C35D8726-4A09-4B72-A1E9-09A0D38B7D70";
shapes = (
{
closed = 1;
nodes = (
(399,0,l),
(501,612,l),
(169,1440,l),
(263,1440,l),
(558,708,l),
(1093,1440,l),
(1187,1440,l),
(583,612,l),
(482,0,l)
);
}
);
width = 1017;
}
);
leftKerningGroup = Y2;
rightKerningGroup = Y;
unicode = 89;
},
{
glyphname = Z;
layers = (
{
layerId = "8DF6C0F1-DE73-4D1F-9C90-51BE488A4B4C";
shapes = (
{
closed = 1;
nodes = (
(22,0,l),
(28,34,l),
(889,1186,l),
(277,1186,l),
(319,1440,l),
(1397,1440,l),
(1392,1406,l),
(535,256,l),
(1182,256,l),
(1139,0,l)
);
}
);
width = 1318;
},
{
layerId = "87233CA6-F023-426F-ADAE-E8786DEFE8CF";
shapes = (
{
closed = 1;
nodes = (
(22,0,l),
(27,32,l),
(984,1277,l),
(260,1277,l),
(288,1440,l),
(1294,1440,l),
(1289,1406,l),
(336,163,l),
(1073,163,l),
(1046,0,l)
);
}
);
width = 1215;
},
{
layerId = "C35D8726-4A09-4B72-A1E9-09A0D38B7D70";
shapes = (
{
closed = 1;
nodes = (
(22,0,l),
(27,30,l),
(1068,1356,l),
(246,1356,l),
(260,1440,l),
(1203,1440,l),
(1198,1406,l),
(161,82,l),
(978,82,l),
(965,0,l)
);
}
);
width = 1124;
}
);
rightKerningGroup = Z;
unicode = 90;
},
{
glyphname = bracketleft;
layers = (
{
layerId = "8DF6C0F1-DE73-4D1F-9C90-51BE488A4B4C";
shapes = (
{
closed = 1;
nodes = (
(116,-420,l),
(484,1800,l),
(933,1800,l),
(893,1560,l),
(679,1560,l),
(391,-180,l),
(605,-180,l),
(565,-420,l)
);
}
);
width = 812;
},
{
layerId = "87233CA6-F023-426F-ADAE-E8786DEFE8CF";
shapes = (
{
closed = 1;
nodes = (
(114,-433,l),
(481,1781,l),
(864,1781,l),
(838,1624,l),
(608,1624,l),
(294,-276,l),
(523,-276,l),
(497,-433,l)
);
}
);
width = 775;
},
{
layerId = "C35D8726-4A09-4B72-A1E9-09A0D38B7D70";
shapes = (
{
closed = 1;
nodes = (
(112,-444,l),
(478,1764,l),
(803,1764,l),
(789,1680,l),
(546,1680,l),
(209,-360,l),
(452,-360,l),
(438,-444,l)
);
}
);
width = 743;
}
);
leftKerningGroup = parenleft2;
rightKerningGroup = parenleft;
unicode = 91;
},
{
glyphname = backslash;
layers = (
{
layerId = "8DF6C0F1-DE73-4D1F-9C90-51BE488A4B4C";
shapes = (
{
closed = 1;
nodes = (
(545,1440,l),
(683,0,l),
(417,0,l),
(279,1440,l)
);
}
);
width = 861;
},
{
layerId = "87233CA6-F023-426F-ADAE-E8786DEFE8CF";
shapes = (
{
closed = 1;
nodes = (
(450,1440,l),
(588,0,l),
(417,0,l),
(279,1440,l)
);
}
);
width = 766;
},
{
layerId = "C35D8726-4A09-4B72-A1E9-09A0D38B7D70";
shapes = (
{
closed = 1;
nodes = (
(367,1440,l),
(505,0,l),
(417,0,l),
(279,1440,l)
);
}
);
width = 682;
}
);
unicode = 92;
},
{
glyphname = bracketright;
layers = (
{
layerId = "8DF6C0F1-DE73-4D1F-9C90-51BE488A4B4C";
shapes = (
{
closed = 1;
nodes = (
(420,-420,l),
(787,1800,l),
(338,1800,l),
(298,1560,l),
(512,1560,l),
(224,-180,l),
(10,-180,l),
(-29,-420,l)
);
}
);
width = 812;
},
{
layerId = "87233CA6-F023-426F-ADAE-E8786DEFE8CF";
shapes = (
{
closed = 1;
nodes = (
(381,-433,l),
(747,1781,l),
(364,1781,l),
(338,1624,l),
(567,1624,l),
(253,-276,l),
(23,-276,l),
(-2,-433,l)
);
}
);
width = 775;
},
{
layerId = "C35D8726-4A09-4B72-A1E9-09A0D38B7D70";
shapes = (
{
closed = 1;
nodes = (
(347,-444,l),
(712,1764,l),
(387,1764,l),
(373,1680,l),
(616,1680,l),
(278,-360,l),
(35,-360,l),
(21,-444,l)
);
}
);
width = 743;
}
);
leftKerningGroup = parenright2;
rightKerningGroup = parenright;
unicode = 93;
},
{
glyphname = asciicircum;
layers = (
{
layerId = "8DF6C0F1-DE73-4D1F-9C90-51BE488A4B4C";
shapes = (
{
closed = 1;
nodes = (
(286,986,l),
(840,1470,l),
(1235,987,l),
(1043,819,l),
(786,1146,l),
(423,818,l)
);
}
);
width = 1312;
},
{
layerId = "87233CA6-F023-426F-ADAE-E8786DEFE8CF";
shapes = (
{
closed = 1;
nodes = (
(288,999,l),
(828,1471,l),
(1214,1000,l),
(1092,892,l),
(793,1261,l),
(376,891,l)
);
}
);
width = 1289;
},
{
layerId = "C35D8726-4A09-4B72-A1E9-09A0D38B7D70";
shapes = (
{
closed = 1;
nodes = (
(290,1010,l),
(818,1472,l),
(1196,1011,l),
(1134,955,l),
(800,1362,l),
(334,954,l)
);
}
);
width = 1269;
}
);
unicode = 94;
},
{
glyphname = grave;
layers = (
{
layerId = "8DF6C0F1-DE73-4D1F-9C90-51BE488A4B4C";
shapes = (
{
closed = 1;
nodes = (
(802,1980,l),
(815,1590,l),
(648,1590,l),
(550,1980,l)
);
}
);
width = 1033;
},
{
layerId = "87233CA6-F023-426F-ADAE-E8786DEFE8CF";
shapes = (
{
closed = 1;
nodes = (
(727,1932,l),
(744,1606,l),
(631,1606,l),
(559,1932,l)
);
}
);
width = 932;
},
{
layerId = "C35D8726-4A09-4B72-A1E9-09A0D38B7D70";
shapes = (
{
closed = 1;
nodes = (
(661,1890,l),
(681,1620,l),
(616,1620,l),
(567,1890,l)
);
}
);
width = 843;
}
);
unicode = 96;
},
{
glyphname = a;
layers = (
{
hints = (
{
horizontal = 1;
place = (-480,21);
target = up;
type = BottomGhost;
},
{
horizontal = 1;
place = (-30,254);
type = Stem;
},
{
horizontal = 1;
place = (856,254);
type = Stem;
}
);
layerId = "8DF6C0F1-DE73-4D1F-9C90-51BE488A4B4C";
shapes = (
{
closed = 1;
nodes = (
(1201,1080,l),
(945,1080,l),
(923,947,l),
(909,980,o),
(890,1010,o),
(866,1034,cs),
(817,1082,o),
(746,1110,o),
(649,1110,cs),
(388,1110,o),
(148,874,o),
(93,540,cs),
(37,204,o),
(200,-30,o),
(461,-30,cs),
(568,-30,o),
(653,2,o),
(722,61,cs),
(746,82,o),
(769,106,o),
(789,133,c),
(766,0,l),
(1022,0,l)
);
},
{
closed = 1;
nodes = (
(394,224,o),
(333,353,o),
(364,540,cs),
(396,732,o),
(500,856,o),
(663,856,cs),
(856,856,o),
(881,691,o),
(856,542,cs),
(824,347,o),
(720,224,o),
(559,224,cs)
);
}
);
width = 1218;
},
{
hints = (
{
horizontal = 1;
place = (-30,163);
type = Stem;
},
{
horizontal = 1;
place = (947,163);
type = Stem;
}
);
layerId = "87233CA6-F023-426F-ADAE-E8786DEFE8CF";
shapes = (
{
closed = 1;
nodes = (
(1155,1080,l),
(993,1080,l),
(965,910,l),
(953,941,o),
(937,970,o),
(918,994,c),
(862,1071,o),
(772,1110,o),
(653,1110,cs),
(368,1110,o),
(149,875,o),
(94,541,cs),
(38,202,o),
(182,-30,o),
(465,-30,cs),
(596,-30,o),
(700,16,o),
(781,98,c),
(804,120,o),
(824,144,o),
(843,171,c),
(815,0,l),
(976,0,l)
);
},
{
closed = 1;
nodes = (
(303,133,o),
(225,299,o),
(265,541,cs),
(306,787,o),
(439,947,o),
(652,947,cs),
(881,947,o),
(941,763,o),
(904,542,cs),
(863,295,o),
(728,133,o),
(517,133,cs)
);
}
);
width = 1172;
},
{
hints = (
{
horizontal = 1;
place = (-480,21);
target = up;
type = BottomGhost;
},
{
horizontal = 1;
place = (-30,84);
type = Stem;
},
{
horizontal = 1;
place = (1026,84);
type = Stem;
},
{
horizontal = 1;
place = (1080,-20);
target = down;
type = TopGhost;
}
);
layerId = "C35D8726-4A09-4B72-A1E9-09A0D38B7D70";
shapes = (
{
closed = 1;
nodes = (
(1114,1080,l),
(1035,1080,l),
(1001,877,l),
(991,907,o),
(979,934,o),
(964,958,cs),
(901,1062,o),
(794,1110,o),
(656,1110,cs),
(350,1110,o),
(149,875,o),
(94,542,cs),
(38,201,o),
(167,-30,o),
(468,-30,cs),
(620,-30,o),
(741,29,o),
(833,130,cs),
(854,153,o),
(873,177,o),
(890,204,c),
(857,0,l),
(935,0,l)
);
},
{
closed = 1;
nodes = (
(223,54,o),
(130,252,o),
(178,542,cs),
(227,835,o),
(386,1026,o),
(642,1026,cs),
(903,1026,o),
(993,826,o),
(946,542,cs),
(897,249,o),
(735,54,o),
(481,54,cs)
);
}
);
width = 1131;
}
);
leftKerningGroup = a2;
rightKerningGroup = a;
unicode = 97;
},
{
glyphname = b;
layers = (
{
hints = (
{
horizontal = 1;
place = (-30,254);
type = Stem;
},
{
horizontal = 1;
place = (0,21);
target = up;
type = BottomGhost;
},
{
horizontal = 1;
place = (856,254);
type = Stem;
},
{
horizontal = 1;
place = (1440,-20);
target = down;
type = TopGhost;
}
);
layerId = "8DF6C0F1-DE73-4D1F-9C90-51BE488A4B4C";
shapes = (
{
closed = 1;
nodes = (
(57,0,l),
(312,0,l),
(334,133,l),
(343,111,o),
(356,89,o),
(370,71,cs),
(419,7,o),
(495,-30,o),
(608,-30,cs),
(869,-30,o),
(1109,206,o),
(1164,540,cs),
(1220,876,o),
(1058,1110,o),
(797,1110,cs),
(686,1110,o),
(598,1074,o),
(528,1011,cs),
(507,992,o),
(487,970,o),
(469,947,c),
(551,1440,l),
(295,1440,l)
);
},
{
closed = 1;
nodes = (
(864,856,o),
(925,727,o),
(894,540,cs),
(862,348,o),
(757,224,o),
(594,224,cs),
(425,224,o),
(371,354,o),
(402,542,cs),
(428,701,o),
(516,856,o),
(699,856,cs)
);
}
);
width = 1216;
},
{
hints = (
{
horizontal = 1;
place = (-30,163);
type = Stem;
},
{
horizontal = 1;
place = (0,21);
target = up;
type = BottomGhost;
},
{
horizontal = 1;
place = (947,163);
type = Stem;
},
{
horizontal = 1;
place = (1440,-20);
target = down;
type = TopGhost;
}
);
layerId = "87233CA6-F023-426F-ADAE-E8786DEFE8CF";
shapes = (
{
closed = 1;
nodes = (
(58,0,l),
(219,0,l),
(247,170,l),
(256,145,o),
(269,121,o),
(283,101,c),
(336,18,o),
(427,-30,o),
(559,-30,cs),
(844,-30,o),
(1064,205,o),
(1119,539,cs),
(1175,878,o),
(1030,1110,o),
(748,1110,cs),
(615,1110,o),
(509,1062,o),
(427,979,cs),
(406,958,o),
(387,935,o),
(369,909,c),
(458,1440,l),
(296,1440,l)
);
},
{
closed = 1;
nodes = (
(909,947,o),
(987,781,o),
(947,539,cs),
(906,293,o),
(772,133,o),
(560,133,cs),
(342,133,o),
(269,300,o),
(308,540,cs),
(346,771,o),
(474,947,o),
(695,947,cs)
);
}
);
width = 1171;
},
{
hints = (
{
horizontal = 1;
place = (-30,84);
type = Stem;
},
{
horizontal = 1;
place = (0,21);
target = up;
type = BottomGhost;
},
{
horizontal = 1;
place = (1026,84);
type = Stem;
},
{
horizontal = 1;
place = (1440,-20);
target = down;
type = TopGhost;
}
);
layerId = "C35D8726-4A09-4B72-A1E9-09A0D38B7D70";
shapes = (
{
closed = 1;
nodes = (
(58,0,l),
(137,0,l),
(171,203,l),
(180,176,o),
(192,150,o),
(206,127,cs),
(264,27,o),
(367,-30,o),
(516,-30,cs),
(822,-30,o),
(1024,205,o),
(1079,538,cs),
(1135,879,o),
(1006,1110,o),
(705,1110,cs),
(553,1110,o),
(431,1051,o),
(339,950,cs),
(318,927,o),
(299,903,o),
(282,876,c),
(376,1440,l),
(297,1440,l)
);
},
{
closed = 1;
nodes = (
(949,1026,o),
(1042,828,o),
(994,538,cs),
(945,245,o),
(786,54,o),
(530,54,cs),
(269,54,o),
(179,254,o),
(226,538,cs),
(275,831,o),
(437,1026,o),
(691,1026,cs)
);
}
);
width = 1131;
}
);
leftKerningGroup = I2;
rightKerningGroup = b;
unicode = 98;
},
{
glyphname = c;
layers = (
{
layerId = "8DF6C0F1-DE73-4D1F-9C90-51BE488A4B4C";
shapes = (
{
closed = 1;
nodes = (
(431,-30,o),
(300,7,o),
(249,45,qs),
(146,120,o),
(66,377,o),
(93,540,qs),
(107,622,o),
(163,768,o),
(206,833,qs),
(291,963,o),
(546,1110,o),
(704,1110,qs),
(796,1110,o),
(941,1062,o),
(996,1014,qs),
(1050,965,o),
(1107,834,o),
(1110,750,q),
(837,678,l),
(832,720,o),
(803,786,o),
(779,809,qs),
(754,832,o),
(694,856,o),
(657,856,qs),
(616,856,o),
(545,835,o),
(515,815,qs),
(455,773,o),
(382,631,o),
(367,540,qs),
(355,469,o),
(366,356,o),
(390,312,q),
(412,267,o),
(493,224,o),
(553,224,qs),
(641,224,o),
(747,308,o),
(783,386,q),
(1040,328,l),
(1004,241,o),
(899,110,o),
(830,63,qs),
(761,16,o),
(602,-30,o),
(512,-30,qs)
);
}
);
width = 1109;
},
{
layerId = "87233CA6-F023-426F-ADAE-E8786DEFE8CF";
shapes = (
{
closed = 1;
nodes = (
(412,-30,o),
(285,6,o),
(237,43,qs),
(139,117,o),
(67,373,o),
(93,540,q),
(108,625,o),
(162,773,o),
(203,837,qs),
(284,967,o),
(525,1110,o),
(681,1110,qs),
(762,1110,o),
(895,1068,o),
(949,1027,q),
(1001,985,o),
(1061,872,o),
(1069,799,q),
(898,747,l),
(889,795,o),
(847,868,o),
(814,894,qs),
(781,921,o),
(700,947,o),
(652,947,qs),
(597,947,o),
(504,921,o),
(465,895,qs),
(385,842,o),
(288,660,o),
(267,540,q),
(253,448,o),
(268,302,o),
(299,245,qs),
(330,189,o),
(438,133,o),
(517,133,qs),
(619,133,o),
(773,231,o),
(824,324,q),
(983,278,l),
(943,202,o),
(840,89,o),
(777,49,qs),
(714,9,o),
(571,-30,o),
(491,-30,qs)
);
}
);
width = 1065;
},
{
layerId = "C35D8726-4A09-4B72-A1E9-09A0D38B7D70";
shapes = (
{
closed = 1;
nodes = (
(395,-30,o),
(272,6,o),
(226,42,qs),
(133,114,o),
(68,370,o),
(93,540,q),
(109,627,o),
(162,777,o),
(201,841,q),
(277,970,o),
(507,1110,o),
(661,1110,qs),
(733,1110,o),
(855,1074,o),
(907,1039,qs),
(958,1003,o),
(1020,905,o),
(1033,842,q),
(951,808,l),
(938,860,o),
(885,940,o),
(845,969,qs),
(804,998,o),
(706,1026,o),
(647,1026,qs),
(581,1026,o),
(469,996,o),
(421,965,qs),
(324,903,o),
(205,685,o),
(179,540,q),
(163,429,o),
(182,254,o),
(220,187,qs),
(258,120,o),
(390,54,o),
(486,54,qs),
(600,54,o),
(795,164,o),
(860,270,q),
(933,234,l),
(889,168,o),
(789,71,o),
(730,37,qs),
(672,3,o),
(544,-30,o),
(473,-30,qs)
);
}
);
width = 1026;
}
);
leftKerningGroup = c2;
rightKerningGroup = c;
unicode = 99;
},
{
glyphname = d;
layers = (
{
hints = (
{
horizontal = 1;
place = (-30,254);
type = Stem;
},
{
horizontal = 1;
place = (0,21);
target = up;
type = BottomGhost;
},
{
horizontal = 1;
place = (856,254);
type = Stem;
},
{
horizontal = 1;
place = (1440,-20);
target = down;
type = TopGhost;
}
);
layerId = "8DF6C0F1-DE73-4D1F-9C90-51BE488A4B4C";
shapes = (
{
closed = 1;
nodes = (
(1005,1440,l),
(924,948,l),
(912,976,o),
(896,1001,o),
(877,1023,cs),
(827,1078,o),
(754,1110,o),
(649,1110,cs),
(388,1110,o),
(149,876,o),
(93,540,cs),
(38,206,o),
(200,-30,o),
(461,-30,cs),
(576,-30,o),
(667,8,o),
(738,76,cs),
(756,93,o),
(773,112,o),
(789,133,c),
(767,0,l),
(1022,0,l),
(1261,1440,l)
);
},
{
closed = 1;
nodes = (
(824,856,o),
(888,735,o),
(856,540,cs),
(825,352,o),
(728,224,o),
(559,224,cs),
(396,224,o),
(332,348,o),
(364,540,cs),
(395,727,o),
(498,856,o),
(663,856,cs)
);
}
);
width = 1218;
},
{
hints = (
{
horizontal = 1;
place = (-30,163);
type = Stem;
},
{
horizontal = 1;
place = (0,21);
target = up;
type = BottomGhost;
},
{
horizontal = 1;
place = (947,163);
type = Stem;
},
{
horizontal = 1;
place = (1440,-20);
target = down;
type = TopGhost;
}
);
layerId = "87233CA6-F023-426F-ADAE-E8786DEFE8CF";
shapes = (
{
closed = 1;
nodes = (
(1052,1440,l),
(965,910,l),
(955,937,o),
(942,962,o),
(926,984,c),
(872,1064,o),
(783,1110,o),
(653,1110,cs),
(370,1110,o),
(149,878,o),
(93,539,cs),
(38,205,o),
(180,-30,o),
(465,-30,cs),
(598,-30,o),
(705,18,o),
(788,103,cs),
(808,123,o),
(826,146,o),
(843,170,c),
(814,0,l),
(976,0,l),
(1214,1440,l)
);
},
{
closed = 1;
nodes = (
(862,947,o),
(945,786,o),
(903,539,cs),
(864,300,o),
(735,133,o),
(517,133,cs),
(305,133,o),
(223,293,o),
(264,539,cs),
(304,781,o),
(437,947,o),
(652,947,cs)
);
}
);
width = 1172;
},
{
hints = (
{
horizontal = 1;
place = (-30,84);
type = Stem;
},
{
horizontal = 1;
place = (0,21);
target = up;
type = BottomGhost;
},
{
horizontal = 1;
place = (1026,84);
type = Stem;
},
{
horizontal = 1;
place = (1440,-20);
target = down;
type = TopGhost;
}
);
layerId = "C35D8726-4A09-4B72-A1E9-09A0D38B7D70";
shapes = (
{
closed = 1;
nodes = (
(1094,1440,l),
(1001,876,l),
(993,903,o),
(982,927,o),
(969,950,cs),
(911,1051,o),
(808,1110,o),
(656,1110,cs),
(355,1110,o),
(149,879,o),
(93,538,cs),
(38,205,o),
(162,-30,o),
(468,-30,cs),
(617,-30,o),
(739,27,o),
(831,127,cs),
(853,150,o),
(872,176,o),
(890,203,c),
(856,0,l),
(935,0,l),
(1173,1440,l)
);
},
{
closed = 1;
nodes = (
(896,1026,o),
(994,831,o),
(945,538,cs),
(898,254,o),
(742,54,o),
(481,54,cs),
(225,54,o),
(128,245,o),
(177,538,cs),
(225,828,o),
(384,1026,o),
(642,1026,cs)
);
}
);
width = 1131;
}
);
leftKerningGroup = c2;
rightKerningGroup = I;
unicode = 100;
},
{
glyphname = e;
layers = (
{
layerId = "8DF6C0F1-DE73-4D1F-9C90-51BE488A4B4C";
shapes = (
{
closed = 1;
nodes = (
(457,-30,o),
(324,6,o),
(269,42,qs),
(213,77,o),
(135,176,o),
(112,239,qs),
(88,302,o),
(77,445,o),
(91,526,qs),
(106,615,o),
(164,768,o),
(209,834,qs),
(298,966,o),
(556,1110,o),
(711,1110,qs),
(792,1110,o),
(923,1070,o),
(974,1030,qs),
(1076,949,o),
(1136,661,o),
(1087,464,q),
(830,464,l),
(847,564,ls),
(861,647,o),
(855,765,o),
(837,802,q),
(818,838,o),
(741,874,o),
(683,874,qs),
(616,874,o),
(511,832,o),
(474,790,qs),
(435,747,o),
(383,623,o),
(369,540,qs),
(356,464,o),
(369,349,o),
(394,307,qs),
(418,265,o),
(503,224,o),
(564,224,qs),
(642,224,o),
(762,294,o),
(802,360,q),
(1049,282,l),
(1007,207,o),
(897,94,o),
(827,52,qs),
(757,10,o),
(612,-30,o),
(537,-30,qs)
);
},
{
closed = 1;
nodes = (
(276,464,l),
(310,666,l),
(995,666,l),
(962,464,l)
);
}
);
width = 1157;
},
{
layerId = "87233CA6-F023-426F-ADAE-E8786DEFE8CF";
shapes = (
{
closed = 1;
nodes = (
(426,-30,o),
(300,5,o),
(249,40,qs),
(198,75,o),
(126,174,o),
(106,237,qs),
(85,301,o),
(78,449,o),
(92,533,qs),
(107,622,o),
(163,775,o),
(205,840,qs),
(288,970,o),
(533,1110,o),
(684,1110,qs),
(762,1110,o),
(888,1073,o),
(937,1035,qs),
(1035,960,o),
(1099,684,o),
(1059,492,q),
(893,492,l),
(904,553,l),
(919,654,o),
(905,804,o),
(875,855,qs),
(845,906,o),
(740,955,o),
(664,955,qs),
(583,955,o),
(453,902,o),
(403,848,qs),
(351,794,o),
(284,641,o),
(268,540,qs),
(251,443,o),
(268,294,o),
(302,240,qs),
(335,187,o),
(444,133,o),
(523,133,qs),
(629,133,o),
(798,233,o),
(858,327,q),
(1005,269,l),
(963,197,o),
(855,88,o),
(788,48,qs),
(720,8,o),
(578,-30,o),
(503,-30,qs)
);
},
{
closed = 1;
nodes = (
(204,492,l),
(227,631,l),
(997,631,l),
(974,492,l)
);
}
);
width = 1122;
},
{
layerId = "C35D8726-4A09-4B72-A1E9-09A0D38B7D70";
shapes = (
{
closed = 1;
nodes = (
(399,-30,o),
(279,4,o),
(232,39,qs),
(184,74,o),
(119,172,o),
(100,236,qs),
(82,300,o),
(79,452,o),
(93,540,qs),
(108,629,o),
(162,781,o),
(201,845,qs),
(280,974,o),
(513,1110,o),
(661,1110,qs),
(736,1110,o),
(857,1075,o),
(904,1040,qs),
(999,970,o),
(1066,705,o),
(1035,516,q),
(949,516,l),
(954,544,l),
(970,661,o),
(948,839,o),
(908,902,qs),
(869,965,o),
(739,1026,o),
(648,1026,qs),
(555,1026,o),
(403,963,o),
(340,899,qs),
(278,835,o),
(198,656,o),
(179,540,qs),
(160,424,o),
(180,246,o),
(222,182,qs),
(263,118,o),
(393,54,o),
(487,54,qs),
(617,54,o),
(830,180,o),
(907,298,q),
(967,258,l),
(924,189,o),
(818,83,o),
(753,45,qs),
(688,7,o),
(549,-30,o),
(473,-30,qs)
);
},
{
closed = 1;
nodes = (
(141,516,l),
(155,600,l),
(999,600,l),
(985,516,l)
);
}
);
width = 1091;
}
);
leftKerningGroup = c2;
rightKerningGroup = e;
unicode = 101;
},
{
glyphname = f;
layers = (
{
layerId = "8DF6C0F1-DE73-4D1F-9C90-51BE488A4B4C";
shapes = (
{
closed = 1;
nodes = (
(149,0,l),
(327,1076,ls),
(345,1187,o),
(406,1338,o),
(506,1430,o),
(656,1470,o),
(763,1470,qs),
(891,1470,l),
(854,1250,l),
(779,1250,ls),
(749,1250,o),
(690,1244,o),
(639,1222,o),
(602,1178,o),
(596,1140,qs),
(407,0,l)
);
},
{
closed = 1;
nodes = (
(130,870,l),
(164,1080,l),
(826,1080,l),
(791,870,l)
);
}
);
width = 734;
},
{
layerId = "87233CA6-F023-426F-ADAE-E8786DEFE8CF";
shapes = (
{
closed = 1;
nodes = (
(162,0,l),
(352,1143,ls),
(366,1231,o),
(419,1355,o),
(504,1433,o),
(628,1470,o),
(712,1470,qs),
(844,1470,l),
(820,1327,l),
(726,1327,ls),
(689,1327,o),
(622,1317,o),
(567,1283,o),
(527,1221,o),
(519,1169,qs),
(325,0,l)
);
},
{
closed = 1;
nodes = (
(141,937,l),
(164,1080,l),
(779,1080,l),
(755,937,l)
);
}
);
width = 687;
},
{
layerId = "C35D8726-4A09-4B72-A1E9-09A0D38B7D70";
shapes = (
{
closed = 1;
nodes = (
(174,0,l),
(373,1202,ls),
(384,1269,o),
(430,1369,o),
(503,1436,o),
(604,1470,o),
(668,1470,qs),
(802,1470,l),
(790,1394,l),
(679,1394,ls),
(636,1394,o),
(562,1380,o),
(504,1337,o),
(462,1259,o),
(451,1194,qs),
(254,0,l)
);
},
{
closed = 1;
nodes = (
(150,996,l),
(164,1080,l),
(738,1080,l),
(724,996,l)
);
}
);
width = 646;
}
);
leftKerningGroup = f2;
rightKerningGroup = f;
unicode = 102;
},
{
glyphname = g;
layers = (
{
hints = (
{
horizontal = 1;
place = (-510,254);
type = Stem;
},
{
horizontal = 1;
place = (10,254);
type = Stem;
},
{
horizontal = 1;
place = (856,254);
type = Stem;
}
);
layerId = "8DF6C0F1-DE73-4D1F-9C90-51BE488A4B4C";
shapes = (
{
closed = 1;
nodes = (
(1201,1080,l),
(945,1080,l),
(925,957,l),
(884,1050,o),
(799,1110,o),
(649,1110,cs),
(353,1110,o),
(145,852,o),
(97,560,cs),
(49,269,o),
(172,10,o),
(467,10,cs),
(617,10,o),
(722,70,o),
(794,163,c),
(777,60,ls),
(749,-110,o),
(648,-256,o),
(470,-256,cs),
(362,-256,o),
(290,-205,o),
(276,-94,c),
(5,-152,l),
(26,-391,o),
(203,-510,o),
(428,-510,cs),
(749,-510,o),
(977,-275,o),
(1032,56,cs)
);
},
{
closed = 1;
nodes = (
(397,264,o),
(340,396,o),
(367,560,cs),
(394,722,o),
(497,856,o),
(663,856,cs),
(831,856,o),
(886,723,o),
(859,560,cs),
(832,395,o),
(735,264,o),
(565,264,cs)
);
}
);
width = 1218;
},
{
hints = (
{
horizontal = 1;
place = (-510,163);
type = Stem;
},
{
horizontal = 1;
place = (10,163);
type = Stem;
},
{
horizontal = 1;
place = (947,163);
type = Stem;
}
);
layerId = "87233CA6-F023-426F-ADAE-E8786DEFE8CF";
shapes = (
{
closed = 1;
nodes = (
(1155,1080,l),
(993,1080,l),
(966,915,l),
(922,1033,o),
(824,1110,o),
(653,1110,cs),
(349,1110,o),
(146,859,o),
(96,559,cs),
(47,259,o),
(168,10,o),
(471,10,cs),
(642,10,o),
(766,87,o),
(848,204,c),
(824,60,ls),
(788,-159,o),
(665,-347,o),
(434,-347,cs),
(304,-347,o),
(212,-285,o),
(184,-156,c),
(12,-202,l),
(53,-406,o),
(203,-510,o),
(407,-510,cs),
(729,-510,o),
(932,-263,o),
(986,58,cs)
);
},
{
closed = 1;
nodes = (
(304,173,o),
(232,345,o),
(268,559,cs),
(303,771,o),
(433,947,o),
(652,947,cs),
(871,947,o),
(941,771,o),
(906,559,cs),
(871,346,o),
(743,173,o),
(524,173,cs)
);
}
);
width = 1172;
},
{
hints = (
{
horizontal = 1;
place = (-510,84);
type = Stem;
},
{
horizontal = 1;
place = (10,84);
type = Stem;
},
{
horizontal = 1;
place = (1026,84);
type = Stem;
},
{
horizontal = 1;
place = (1080,-20);
target = down;
type = TopGhost;
}
);
layerId = "C35D8726-4A09-4B72-A1E9-09A0D38B7D70";
shapes = (
{
closed = 1;
nodes = (
(1114,1080,l),
(1035,1080,l),
(1001,877,l),
(955,1017,o),
(845,1110,o),
(656,1110,cs),
(345,1110,o),
(147,865,o),
(96,558,cs),
(45,251,o),
(165,10,o),
(474,10,cs),
(663,10,o),
(804,102,o),
(896,241,c),
(866,60,ls),
(823,-202,o),
(679,-426,o),
(402,-426,cs),
(253,-426,o),
(143,-354,o),
(103,-210,c),
(19,-246,l),
(76,-418,o),
(203,-510,o),
(388,-510,cs),
(712,-510,o),
(893,-252,o),
(945,60,cs)
);
},
{
closed = 1;
nodes = (
(222,94,o),
(138,300,o),
(181,558,cs),
(223,814,o),
(377,1026,o),
(642,1026,cs),
(906,1026,o),
(990,813,o),
(948,558,cs),
(906,303,o),
(750,94,o),
(488,94,cs)
);
}
);
width = 1131;
}
);
leftKerningGroup = g2;
rightKerningGroup = g;
unicode = 103;
},
{
glyphname = h;
layers = (
{
layerId = "8DF6C0F1-DE73-4D1F-9C90-51BE488A4B4C";
shapes = (
{
closed = 1;
nodes = (
(762,0,l),
(847,510,ls),
(854,553,o),
(861,600,o),
(861,643,cs),
(861,768,o),
(817,856,o),
(681,856,cs),
(503,856,o),
(434,700,o),
(410,548,c),
(274,622,l),
(321,898,o),
(514,1112,o),
(806,1112,cs),
(1039,1112,o),
(1138,978,o),
(1138,754,cs),
(1138,705,o),
(1133,654,o),
(1125,606,cs),
(1025,0,l)
);
},
{
closed = 1;
nodes = (
(57,0,l),
(295,1440,l),
(525,1440,l),
(402,700,l),
(435,700,l),
(319,0,l)
);
}
);
width = 1202;
},
{
layerId = "87233CA6-F023-426F-ADAE-E8786DEFE8CF";
shapes = (
{
closed = 1;
nodes = (
(797,0,l),
(887,543,ls),
(895,589,o),
(900,637,o),
(900,682,cs),
(900,840,o),
(836,945,o),
(668,945,cs),
(450,945,o),
(348,763,o),
(317,570,c),
(214,604,l),
(259,879,o),
(435,1108,o),
(733,1108,cs),
(968,1108,o),
(1073,963,o),
(1073,739,cs),
(1073,692,o),
(1069,643,o),
(1061,596,cs),
(962,0,l)
);
},
{
closed = 1;
nodes = (
(58,0,l),
(296,1440,l),
(443,1440,l),
(310,641,l),
(329,641,l),
(222,0,l)
);
}
);
width = 1140;
},
{
layerId = "C35D8726-4A09-4B72-A1E9-09A0D38B7D70";
shapes = (
{
closed = 1;
nodes = (
(827,0,l),
(922,572,ls),
(930,620,o),
(935,669,o),
(935,717,cs),
(935,903,o),
(853,1022,o),
(657,1022,cs),
(403,1022,o),
(272,819,o),
(236,590,c),
(161,588,l),
(205,862,o),
(365,1104,o),
(670,1104,cs),
(905,1104,o),
(1017,949,o),
(1017,726,cs),
(1017,680,o),
(1013,634,o),
(1005,588,cs),
(907,0,l)
);
},
{
closed = 1;
nodes = (
(58,0,l),
(297,1440,l),
(371,1440,l),
(230,590,l),
(236,590,l),
(138,0,l)
);
}
);
width = 1085;
}
);
leftKerningGroup = h2;
rightKerningGroup = h;
unicode = 104;
},
{
glyphname = j;
layers = (
{
layerId = "8DF6C0F1-DE73-4D1F-9C90-51BE488A4B4C";
shapes = (
{
closed = 1;
nodes = (
(-167,-480,l),
(-125,-226,l),
(-79,-226,ls),
(-34,-226,o),
(31,-205,o),
(51,-184,qs),
(71,-163,o),
(97,-103,o),
(104,-64,qs),
(293,1080,l),
(551,1080,l),
(340,-196,ls),
(329,-261,o),
(274,-364,o),
(230,-403,qs),
(185,-441,o),
(75,-480,o),
(9,-480,qs)
);
},
{
closed = 1;
nodes = (
(409,1191,o),
(359,1214,o),
(341,1237,qs),
(323,1260,o),
(310,1316,o),
(316,1349,qs),
(322,1383,o),
(352,1439,o),
(378,1462,qs),
(404,1485,o),
(461,1507,o),
(493,1507,qs),
(526,1507,o),
(576,1485,o),
(594,1462,qs),
(612,1439,o),
(623,1383,o),
(618,1349,qs),
(613,1316,o),
(582,1260,o),
(556,1237,qs),
(530,1214,o),
(474,1191,o),
(441,1191,qs)
);
}
);
width = 569;
},
{
layerId = "87233CA6-F023-426F-ADAE-E8786DEFE8CF";
shapes = (
{
closed = 1;
nodes = (
(-167,-480,l),
(-139,-316,l),
(-83,-316,ls),
(-46,-316,o),
(14,-296,o),
(37,-277,qs),
(60,-258,o),
(90,-196,o),
(97,-153,qs),
(301,1080,l),
(464,1080,l),
(251,-209,ls),
(240,-276,o),
(191,-377,o),
(153,-412,qs),
(115,-446,o),
(14,-480,o),
(-51,-480,qs)
);
},
{
closed = 1;
nodes = (
(388,1251,o),
(353,1267,o),
(340,1283,qs),
(327,1300,o),
(317,1339,o),
(322,1363,q),
(326,1388,o),
(348,1428,o),
(367,1444,q),
(385,1461,o),
(425,1477,o),
(448,1477,qs),
(472,1477,o),
(508,1461,o),
(520,1444,q),
(534,1428,o),
(541,1388,o),
(537,1363,qs),
(534,1339,o),
(512,1300,o),
(494,1283,q),
(475,1267,o),
(435,1251,o),
(411,1251,qs)
);
}
);
width = 492;
},
{
layerId = "C35D8726-4A09-4B72-A1E9-09A0D38B7D70";
shapes = (
{
closed = 1;
nodes = (
(-167,-480,l),
(-152,-394,l),
(-87,-394,ls),
(-56,-394,o),
(-1,-376,o),
(25,-359,q),
(50,-341,o),
(84,-277,o),
(91,-230,q),
(308,1080,l),
(388,1080,l),
(173,-220,ls),
(162,-289,o),
(118,-388,o),
(86,-419,qs),
(53,-450,o),
(-40,-480,o),
(-104,-480,qs)
);
},
{
closed = 1;
nodes = (
(370,1303,o),
(348,1313,o),
(339,1324,qs),
(330,1335,o),
(324,1360,o),
(327,1376,qs),
(330,1392,o),
(344,1418,o),
(357,1429,qs),
(369,1440,o),
(394,1450,o),
(409,1450,qs),
(424,1450,o),
(448,1440,o),
(456,1429,qs),
(465,1418,o),
(470,1392,o),
(467,1376,qs),
(464,1360,o),
(451,1335,o),
(439,1324,qs),
(427,1313,o),
(400,1303,o),
(385,1303,qs)
);
}
);
width = 425;
}
);
leftKerningGroup = j;
unicode = 106;
},
{
glyphname = k;
layers = (
{
layerId = "8DF6C0F1-DE73-4D1F-9C90-51BE488A4B4C";
shapes = (
{
closed = 1;
nodes = (
(57,0,l),
(297,1440,l),
(540,1440,l),
(302,0,l)
);
},
{
closed = 1;
nodes = (
(856,1080,l),
(1160,1080,l),
(218,225,l),
(274,563,l)
);
},
{
closed = 1;
nodes = (
(409,591,l),
(603,743,l),
(1013,0,l),
(735,0,l)
);
}
);
width = 1052;
},
{
layerId = "87233CA6-F023-426F-ADAE-E8786DEFE8CF";
shapes = (
{
closed = 1;
nodes = (
(58,0,l),
(297,1440,l),
(453,1440,l),
(215,0,l)
);
},
{
closed = 1;
nodes = (
(850,1080,l),
(1051,1080,l),
(188,330,l),
(224,544,l)
);
},
{
closed = 1;
nodes = (
(353,591,l),
(485,691,l),
(899,0,l),
(709,0,l)
);
}
);
width = 965;
},
{
layerId = "C35D8726-4A09-4B72-A1E9-09A0D38B7D70";
shapes = (
{
closed = 1;
nodes = (
(58,0,l),
(297,1440,l),
(377,1440,l),
(138,0,l)
);
},
{
closed = 1;
nodes = (
(845,1080,l),
(956,1080,l),
(162,421,l),
(180,528,l)
);
},
{
closed = 1;
nodes = (
(304,591,l),
(381,646,l),
(799,0,l),
(686,0,l)
);
}
);
width = 889;
}
);
leftKerningGroup = k2;
rightKerningGroup = k;
unicode = 107;
},
{
glyphname = l;
layers = (
{
layerId = "8DF6C0F1-DE73-4D1F-9C90-51BE488A4B4C";
shapes = (
{
closed = 1;
nodes = (
(525,0,l),
(409,0,ls),
(348,0,o),
(247,27,o),
(210,54,qs),
(172,81,o),
(129,164,o),
(124,219,qs),
(122,242,o),
(125,291,o),
(129,318,qs),
(315,1440,l),
(573,1440,l),
(412,467,ls),
(409,446,o),
(401,405,o),
(398,385,qs),
(394,355,o),
(394,303,o),
(404,283,qs),
(414,263,o),
(459,240,o),
(500,240,qs),
(516,240,o),
(549,240,o),
(565,240,q)
);
}
);
width = 630;
},
{
layerId = "87233CA6-F023-426F-ADAE-E8786DEFE8CF";
shapes = (
{
closed = 1;
nodes = (
(436,0,l),
(355,0,ls),
(298,0,o),
(208,31,o),
(178,60,qs),
(147,89,o),
(117,176,o),
(120,231,qs),
(121,253,o),
(126,298,o),
(130,323,qs),
(315,1440,l),
(478,1440,l),
(316,461,ls),
(311,427,o),
(299,360,o),
(293,327,q),
(288,289,o),
(288,230,o),
(298,209,qs),
(308,188,o),
(349,164,o),
(383,161,q),
(400,158,o),
(440,157,o),
(462,157,q)
);
}
);
width = 546;
},
{
layerId = "C35D8726-4A09-4B72-A1E9-09A0D38B7D70";
shapes = (
{
closed = 1;
nodes = (
(358,0,l),
(307,0,ls),
(254,0,o),
(174,34,o),
(150,65,qs),
(125,96,o),
(107,186,o),
(116,241,qs),
(120,263,o),
(127,305,o),
(131,327,qs),
(315,1440,l),
(395,1440,l),
(232,455,ls),
(225,410,o),
(210,321,o),
(202,276,qs),
(195,231,o),
(196,166,o),
(206,145,qs),
(216,123,o),
(252,97,o),
(280,91,qs),
(299,87,o),
(344,84,o),
(372,84,q)
);
}
);
width = 472;
}
);
leftKerningGroup = i2;
rightKerningGroup = i;
unicode = 108;
},
{
glyphname = m;
layers = (
{
layerId = "8DF6C0F1-DE73-4D1F-9C90-51BE488A4B4C";
shapes = (
{
closed = 1;
nodes = (
(1301,0,l),
(1407,638,ls),
(1410,659,o),
(1413,679,o),
(1413,700,cs),
(1413,797,o),
(1364,864,o),
(1262,864,cs),
(1140,864,o),
(1067,765,o),
(1046,654,c),
(951,730,l),
(985,941,o),
(1170,1106,o),
(1385,1106,cs),
(1576,1106,o),
(1686,1004,o),
(1686,811,cs),
(1686,777,o),
(1683,743,o),
(1677,710,cs),
(1559,0,l)
);
},
{
closed = 1;
nodes = (
(57,0,l),
(235,1080,l),
(463,1080,l),
(404,722,l),
(436,722,l),
(317,0,l)
);
},
{
closed = 1;
nodes = (
(680,0,l),
(785,638,ls),
(788,659,o),
(791,681,o),
(791,702,cs),
(791,799,o),
(742,864,o),
(640,864,cs),
(519,864,o),
(444,765,o),
(425,654,c),
(330,734,l),
(365,945,o),
(556,1106,o),
(770,1106,cs),
(964,1106,o),
(1064,992,o),
(1064,801,cs),
(1064,771,o),
(1061,740,o),
(1056,710,cs),
(938,0,l)
);
}
);
width = 1737;
},
{
layerId = "87233CA6-F023-426F-ADAE-E8786DEFE8CF";
shapes = (
{
closed = 1;
nodes = (
(1294,0,l),
(1410,695,ls),
(1414,716,o),
(1416,738,o),
(1416,759,cs),
(1416,875,o),
(1347,955,o),
(1228,955,cs),
(1071,955,o),
(979,831,o),
(954,688,c),
(872,724,l),
(903,937,o),
(1073,1108,o),
(1295,1108,cs),
(1474,1108,o),
(1587,1005,o),
(1587,823,cs),
(1587,792,o),
(1584,762,o),
(1579,731,cs),
(1457,0,l)
);
},
{
closed = 1;
nodes = (
(58,0,l),
(236,1080,l),
(382,1080,l),
(335,796,l),
(353,796,l),
(222,0,l)
);
},
{
closed = 1;
nodes = (
(677,0,l),
(791,687,ls),
(795,710,o),
(798,733,o),
(798,755,cs),
(798,874,o),
(731,955,o),
(608,955,cs),
(454,955,o),
(359,829,o),
(335,688,c),
(256,743,l),
(291,950,o),
(468,1108,o),
(680,1108,cs),
(862,1108,o),
(969,1000,o),
(969,819,cs),
(969,789,o),
(966,758,o),
(961,728,cs),
(839,0,l)
);
}
);
width = 1636;
},
{
layerId = "C35D8726-4A09-4B72-A1E9-09A0D38B7D70";
shapes = (
{
closed = 1;
nodes = (
(1288,0,l),
(1413,744,ls),
(1417,766,o),
(1419,789,o),
(1419,811,cs),
(1419,944,o),
(1332,1034,o),
(1198,1034,cs),
(1010,1034,o),
(902,889,o),
(873,718,c),
(802,718,l),
(831,934,o),
(989,1110,o),
(1216,1110,cs),
(1384,1110,o),
(1500,1006,o),
(1500,834,cs),
(1500,806,o),
(1498,778,o),
(1493,750,cs),
(1367,0,l)
);
},
{
closed = 1;
nodes = (
(58,0,l),
(237,1080,l),
(311,1080,l),
(275,860,l),
(281,860,l),
(138,0,l)
);
},
{
closed = 1;
nodes = (
(674,0,l),
(797,730,ls),
(801,754,o),
(804,778,o),
(804,802,cs),
(804,940,o),
(721,1034,o),
(580,1034,cs),
(397,1034,o),
(285,885,o),
(257,718,c),
(192,750,l),
(227,954,o),
(391,1110,o),
(602,1110,cs),
(772,1110,o),
(885,1007,o),
(885,834,cs),
(885,804,o),
(882,774,o),
(877,744,cs),
(752,0,l)
);
}
);
width = 1547;
}
);
leftKerningGroup = m2;
rightKerningGroup = m;
unicode = 109;
},
{
glyphname = n;
layers = (
{
layerId = "8DF6C0F1-DE73-4D1F-9C90-51BE488A4B4C";
shapes = (
{
closed = 1;
nodes = (
(762,0,l),
(847,510,ls),
(854,553,o),
(861,600,o),
(861,643,cs),
(861,768,o),
(817,856,o),
(681,856,cs),
(503,856,o),
(434,700,o),
(410,548,c),
(274,622,l),
(321,898,o),
(514,1112,o),
(806,1112,cs),
(1039,1112,o),
(1138,978,o),
(1138,754,cs),
(1138,705,o),
(1133,654,o),
(1125,606,cs),
(1025,0,l)
);
},
{
closed = 1;
nodes = (
(57,0,l),
(235,1080,l),
(465,1080,l),
(406,722,l),
(438,722,l),
(319,0,l)
);
}
);
width = 1202;
},
{
layerId = "87233CA6-F023-426F-ADAE-E8786DEFE8CF";
shapes = (
{
closed = 1;
nodes = (
(797,0,l),
(887,543,ls),
(895,589,o),
(900,637,o),
(900,682,cs),
(900,840,o),
(836,945,o),
(668,945,cs),
(450,945,o),
(348,763,o),
(317,570,c),
(214,604,l),
(259,879,o),
(435,1108,o),
(733,1108,cs),
(968,1108,o),
(1073,963,o),
(1073,739,cs),
(1073,692,o),
(1069,643,o),
(1061,596,cs),
(962,0,l)
);
},
{
closed = 1;
nodes = (
(58,0,l),
(236,1080,l),
(383,1080,l),
(336,796,l),
(354,796,l),
(222,0,l)
);
}
);
width = 1140;
},
{
layerId = "C35D8726-4A09-4B72-A1E9-09A0D38B7D70";
shapes = (
{
closed = 1;
nodes = (
(827,0,l),
(922,572,ls),
(930,620,o),
(935,669,o),
(935,717,cs),
(935,903,o),
(853,1022,o),
(657,1022,cs),
(403,1022,o),
(272,819,o),
(236,590,c),
(161,588,l),
(205,862,o),
(365,1104,o),
(670,1104,cs),
(905,1104,o),
(1017,949,o),
(1017,726,cs),
(1017,680,o),
(1013,634,o),
(1005,588,cs),
(907,0,l)
);
},
{
closed = 1;
nodes = (
(58,0,l),
(237,1080,l),
(311,1080,l),
(275,860,l),
(281,860,l),
(138,0,l)
);
}
);
width = 1085;
}
);
leftKerningGroup = m2;
rightKerningGroup = m;
unicode = 110;
},
{
glyphname = o;
layers = (
{
layerId = "8DF6C0F1-DE73-4D1F-9C90-51BE488A4B4C";
shapes = (
{
closed = 1;
nodes = (
(250,-30,o),
(82,148,o),
(82,415,cs),
(82,773,o),
(331,1110,o),
(709,1110,cs),
(981,1110,o),
(1148,931,o),
(1148,662,cs),
(1148,304,o),
(897,-30,o),
(520,-30,cs)
);
},
{
closed = 1;
nodes = (
(776,224,o),
(872,440,o),
(872,627,cs),
(872,764,o),
(812,856,o),
(667,856,cs),
(450,856,o),
(359,640,o),
(359,452,cs),
(359,318,o),
(419,224,o),
(562,224,cs)
);
}
);
width = 1190;
},
{
layerId = "87233CA6-F023-426F-ADAE-E8786DEFE8CF";
shapes = (
{
closed = 1;
nodes = (
(228,-30,o),
(81,146,o),
(81,404,cs),
(81,756,o),
(301,1110,o),
(683,1110,cs),
(951,1110,o),
(1097,937,o),
(1097,676,cs),
(1097,325,o),
(877,-30,o),
(494,-30,cs)
);
},
{
closed = 1;
nodes = (
(800,133,o),
(923,412,o),
(923,655,cs),
(923,833,o),
(842,947,o),
(656,947,cs),
(377,947,o),
(257,670,o),
(257,428,cs),
(257,253,o),
(337,133,o),
(521,133,cs)
);
}
);
width = 1138;
},
{
layerId = "C35D8726-4A09-4B72-A1E9-09A0D38B7D70";
shapes = (
{
closed = 1;
nodes = (
(208,-30,o),
(81,144,o),
(81,395,cs),
(81,742,o),
(274,1110,o),
(661,1110,cs),
(925,1110,o),
(1053,942,o),
(1053,689,cs),
(1053,343,o),
(859,-30,o),
(472,-30,cs)
);
},
{
closed = 1;
nodes = (
(821,54,o),
(967,388,o),
(967,680,cs),
(967,893,o),
(869,1026,o),
(647,1026,cs),
(314,1026,o),
(167,697,o),
(167,407,cs),
(167,197,o),
(265,54,o),
(486,54,cs)
);
}
);
width = 1092;
}
);
leftKerningGroup = c2;
rightKerningGroup = b;
unicode = 111;
},
{
glyphname = p;
layers = (
{
hints = (
{
horizontal = 1;
place = (-480,21);
target = up;
type = BottomGhost;
},
{
horizontal = 1;
place = (-30,254);
type = Stem;
},
{
horizontal = 1;
place = (856,254);
type = Stem;
}
);
layerId = "8DF6C0F1-DE73-4D1F-9C90-51BE488A4B4C";
shapes = (
{
closed = 1;
nodes = (
(235,-480,l),
(336,133,l),
(347,105,o),
(362,81,o),
(380,60,cs),
(429,3,o),
(504,-30,o),
(610,-30,cs),
(871,-30,o),
(1110,204,o),
(1166,540,cs),
(1221,874,o),
(1060,1110,o),
(799,1110,cs),
(687,1110,o),
(598,1074,o),
(528,1010,cs),
(507,991,o),
(488,970,o),
(471,947,c),
(493,1080,l),
(237,1080,l),
(-21,-480,l)
);
},
{
closed = 1;
nodes = (
(434,224,o),
(372,347,o),
(404,542,cs),
(431,702,o),
(515,856,o),
(701,856,cs),
(864,856,o),
(928,732,o),
(896,540,cs),
(865,353,o),
(761,224,o),
(596,224,cs)
);
}
);
width = 1218;
},
{
hints = (
{
horizontal = 1;
place = (-480,21);
target = up;
type = BottomGhost;
},
{
horizontal = 1;
place = (-30,163);
type = Stem;
},
{
horizontal = 1;
place = (947,163);
type = Stem;
}
);
layerId = "87233CA6-F023-426F-ADAE-E8786DEFE8CF";
shapes = (
{
closed = 1;
nodes = (
(141,-480,l),
(248,171,l),
(257,143,o),
(270,119,o),
(286,97,c),
(339,17,o),
(429,-30,o),
(560,-30,cs),
(842,-30,o),
(1064,202,o),
(1120,541,cs),
(1175,875,o),
(1034,1110,o),
(749,1110,cs),
(617,1110,o),
(511,1063,o),
(429,980,cs),
(408,959,o),
(388,935,o),
(371,910,c),
(399,1080,l),
(237,1080,l),
(-21,-480,l)
);
},
{
closed = 1;
nodes = (
(350,133,o),
(269,295,o),
(310,542,cs),
(347,768,o),
(470,947,o),
(696,947,cs),
(908,947,o),
(990,787,o),
(949,541,cs),
(909,299,o),
(775,133,o),
(561,133,cs)
);
}
);
width = 1172;
},
{
hints = (
{
horizontal = 1;
place = (-480,21);
target = up;
type = BottomGhost;
},
{
horizontal = 1;
place = (-30,84);
type = Stem;
},
{
horizontal = 1;
place = (1026,84);
type = Stem;
},
{
horizontal = 1;
place = (1080,-20);
target = down;
type = TopGhost;
}
);
layerId = "C35D8726-4A09-4B72-A1E9-09A0D38B7D70";
shapes = (
{
closed = 1;
nodes = (
(58,-480,l),
(171,204,l),
(179,177,o),
(190,153,o),
(203,130,cs),
(261,29,o),
(364,-30,o),
(516,-30,cs),
(817,-30,o),
(1023,201,o),
(1079,542,cs),
(1134,875,o),
(1011,1110,o),
(705,1110,cs),
(556,1110,o),
(434,1053,o),
(343,954,cs),
(321,930,o),
(301,904,o),
(283,877,c),
(316,1080,l),
(237,1080,l),
(-21,-480,l)
);
},
{
closed = 1;
nodes = (
(276,54,o),
(178,249,o),
(227,542,cs),
(274,826,o),
(430,1026,o),
(691,1026,cs),
(947,1026,o),
(1044,835,o),
(995,542,cs),
(947,252,o),
(788,54,o),
(530,54,cs)
);
}
);
width = 1131;
}
);
leftKerningGroup = m2;
rightKerningGroup = b;
unicode = 112;
},
{
glyphname = q;
layers = (
{
hints = (
{
horizontal = 1;
place = (-480,21);
target = up;
type = BottomGhost;
},
{
horizontal = 1;
place = (-30,254);
type = Stem;
},
{
horizontal = 1;
place = (856,254);
type = Stem;
}
);
layerId = "8DF6C0F1-DE73-4D1F-9C90-51BE488A4B4C";
shapes = (
{
closed = 1;
nodes = (
(1201,1080,l),
(945,1080,l),
(923,947,l),
(909,980,o),
(890,1010,o),
(866,1034,cs),
(817,1082,o),
(746,1110,o),
(649,1110,cs),
(388,1110,o),
(148,874,o),
(93,540,cs),
(37,204,o),
(200,-30,o),
(461,-30,cs),
(568,-30,o),
(653,2,o),
(722,61,cs),
(746,82,o),
(769,106,o),
(789,133,c),
(687,-480,l),
(943,-480,l)
);
},
{
closed = 1;
nodes = (
(394,224,o),
(333,353,o),
(364,540,cs),
(396,732,o),
(500,856,o),
(663,856,cs),
(856,856,o),
(881,691,o),
(856,542,cs),
(824,347,o),
(720,224,o),
(559,224,cs)
);
}
);
width = 1218;
},
{
hints = (
{
horizontal = 1;
place = (-480,21);
target = up;
type = BottomGhost;
},
{
horizontal = 1;
place = (-30,163);
type = Stem;
},
{
horizontal = 1;
place = (947,163);
type = Stem;
}
);
layerId = "87233CA6-F023-426F-ADAE-E8786DEFE8CF";
shapes = (
{
closed = 1;
nodes = (
(1155,1080,l),
(993,1080,l),
(965,910,l),
(953,941,o),
(937,970,o),
(918,994,c),
(862,1071,o),
(772,1110,o),
(653,1110,cs),
(368,1110,o),
(149,875,o),
(94,541,cs),
(38,202,o),
(182,-30,o),
(465,-30,cs),
(596,-30,o),
(700,16,o),
(781,98,c),
(804,120,o),
(824,144,o),
(843,171,c),
(735,-480,l),
(896,-480,l)
);
},
{
closed = 1;
nodes = (
(303,133,o),
(225,299,o),
(265,541,cs),
(306,787,o),
(439,947,o),
(652,947,cs),
(881,947,o),
(941,763,o),
(904,542,cs),
(863,295,o),
(728,133,o),
(517,133,cs)
);
}
);
width = 1172;
},
{
hints = (
{
horizontal = 1;
place = (-480,21);
target = up;
type = BottomGhost;
},
{
horizontal = 1;
place = (-30,84);
type = Stem;
},
{
horizontal = 1;
place = (1026,84);
type = Stem;
},
{
horizontal = 1;
place = (1080,-20);
target = down;
type = TopGhost;
}
);
layerId = "C35D8726-4A09-4B72-A1E9-09A0D38B7D70";
shapes = (
{
closed = 1;
nodes = (
(1114,1080,l),
(1035,1080,l),
(1001,877,l),
(991,907,o),
(979,934,o),
(964,958,cs),
(901,1062,o),
(794,1110,o),
(656,1110,cs),
(350,1110,o),
(149,875,o),
(94,542,cs),
(38,201,o),
(167,-30,o),
(468,-30,cs),
(620,-30,o),
(741,29,o),
(833,130,cs),
(854,153,o),
(873,177,o),
(890,204,c),
(777,-480,l),
(855,-480,l)
);
},
{
closed = 1;
nodes = (
(223,54,o),
(130,252,o),
(178,542,cs),
(227,835,o),
(386,1026,o),
(642,1026,cs),
(903,1026,o),
(993,826,o),
(946,542,cs),
(897,249,o),
(735,54,o),
(481,54,cs)
);
}
);
width = 1131;
}
);
unicode = 113;
},
{
glyphname = r;
layers = (
{
layerId = "8DF6C0F1-DE73-4D1F-9C90-51BE488A4B4C";
shapes = (
{
closed = 1;
nodes = (
(58,0,l),
(237,1080,l),
(465,1080,l),
(421,816,l),
(402,850,l),
(479,997,o),
(613,1100,o),
(781,1100,cs),
(834,1100,o),
(894,1082,o),
(937,1050,c),
(799,828,l),
(780,845,o),
(752,853,o),
(727,853,cs),
(555,853,o),
(437,716,o),
(410,552,cs),
(319,0,l)
);
}
);
width = 778;
},
{
layerId = "87233CA6-F023-426F-ADAE-E8786DEFE8CF";
shapes = (
{
closed = 1;
nodes = (
(58,0,l),
(237,1080,l),
(383,1080,l),
(340,819,l),
(321,853,l),
(396,996,o),
(527,1100,o),
(692,1100,cs),
(732,1100,o),
(793,1084,o),
(825,1059,c),
(738,918,l),
(718,935,o),
(687,940,o),
(661,940,cs),
(439,940,o),
(343,732,o),
(312,541,cs),
(222,0,l)
);
}
);
width = 700;
},
{
layerId = "C35D8726-4A09-4B72-A1E9-09A0D38B7D70";
shapes = (
{
closed = 1;
nodes = (
(58,0,l),
(237,1080,l),
(311,1080,l),
(269,822,l),
(250,856,l),
(324,995,o),
(452,1100,o),
(614,1100,cs),
(642,1100,o),
(705,1085,o),
(727,1066,c),
(684,997,l),
(663,1013,o),
(631,1017,o),
(604,1017,cs),
(338,1017,o),
(261,746,o),
(226,532,cs),
(138,0,l)
);
}
);
width = 632;
}
);
leftKerningGroup = r2;
rightKerningGroup = r;
unicode = 114;
},
{
glyphname = s;
layers = (
{
layerId = "8DF6C0F1-DE73-4D1F-9C90-51BE488A4B4C";
shapes = (
{
closed = 1;
nodes = (
(227,-30,o),
(57,74,o),
(57,324,c),
(329,366,l),
(332,256,o),
(415,204,o),
(517,204,cs),
(595,204,o),
(685,238,o),
(685,330,cs),
(685,471,o),
(161,413,o),
(161,711,cs),
(161,974,o),
(393,1110,o),
(632,1110,cs),
(827,1110,o),
(1016,1012,o),
(1016,790,c),
(744,740,l),
(744,843,o),
(669,877,o),
(578,877,cs),
(514,877,o),
(424,850,o),
(424,772,cs),
(424,632,o),
(954,697,o),
(954,387,cs),
(954,107,o),
(711,-30,o),
(459,-30,cs)
);
}
);
width = 1036;
},
{
layerId = "87233CA6-F023-426F-ADAE-E8786DEFE8CF";
shapes = (
{
closed = 1;
nodes = (
(239,-29,o),
(55,60,o),
(52,290,c),
(224,318,l),
(234,180,o),
(357,125,o),
(481,125,cs),
(605,125,o),
(746,184,o),
(746,328,cs),
(746,522,o),
(164,452,o),
(164,745,cs),
(164,988,o),
(399,1110,o),
(615,1110,cs),
(810,1110,o),
(995,1015,o),
(990,794,c),
(818,762,l),
(818,907,o),
(702,956,o),
(575,956,cs),
(473,956,o),
(332,907,o),
(332,785,cs),
(332,592,o),
(917,675,o),
(917,361,cs),
(917,96,o),
(682,-29,o),
(446,-29,cs)
);
}
);
width = 1005;
},
{
layerId = "C35D8726-4A09-4B72-A1E9-09A0D38B7D70";
shapes = (
{
closed = 1;
nodes = (
(250,-28,o),
(53,47,o),
(47,260,c),
(132,276,l),
(148,113,o),
(307,56,o),
(450,56,cs),
(614,56,o),
(799,137,o),
(799,327,cs),
(799,567,o),
(166,486,o),
(166,774,cs),
(166,1001,o),
(405,1110,o),
(601,1110,cs),
(796,1110,o),
(976,1018,o),
(967,798,c),
(883,782,l),
(883,963,o),
(731,1026,o),
(573,1026,cs),
(438,1026,o),
(252,957,o),
(252,796,cs),
(252,557,o),
(885,655,o),
(885,339,cs),
(885,87,o),
(657,-28,o),
(434,-28,cs)
);
}
);
width = 977;
}
);
leftKerningGroup = s2;
rightKerningGroup = s;
unicode = 115;
},
{
glyphname = t;
layers = (
{
layerId = "8DF6C0F1-DE73-4D1F-9C90-51BE488A4B4C";
shapes = (
{
closed = 1;
nodes = (
(684,0,l),
(620,-13,o),
(555,-19,o),
(490,-19,cs),
(313,-19,o),
(172,43,o),
(172,240,cs),
(172,311,o),
(190,388,o),
(202,458,cs),
(354,1380,l),
(613,1380,l),
(463,474,ls),
(455,426,o),
(444,374,o),
(444,325,cs),
(444,228,o),
(519,217,o),
(597,217,cs),
(638,217,o),
(680,220,o),
(721,226,c)
);
},
{
closed = 1;
nodes = (
(93,870,l),
(128,1080,l),
(863,1080,l),
(828,870,l)
);
}
);
width = 843;
},
{
layerId = "87233CA6-F023-426F-ADAE-E8786DEFE8CF";
shapes = (
{
closed = 1;
nodes = (
(639,0,l),
(586,-11,o),
(534,-17,o),
(480,-17,cs),
(321,-17,o),
(205,46,o),
(205,219,cs),
(205,280,o),
(219,345,o),
(229,405,cs),
(390,1380,l),
(553,1380,l),
(393,412,ls),
(385,366,o),
(374,315,o),
(374,267,cs),
(374,159,o),
(452,138,o),
(543,138,cs),
(583,138,o),
(623,142,o),
(663,148,c)
);
},
{
closed = 1;
nodes = (
(104,937,l),
(128,1080,l),
(818,1080,l),
(794,937,l)
);
}
);
width = 778;
},
{
layerId = "C35D8726-4A09-4B72-A1E9-09A0D38B7D70";
shapes = (
{
closed = 1;
nodes = (
(599,0,l),
(557,-9,o),
(515,-15,o),
(472,-15,cs),
(328,-15,o),
(233,49,o),
(233,201,cs),
(233,252,o),
(244,307,o),
(252,358,cs),
(421,1380,l),
(501,1380,l),
(332,358,ls),
(324,313,o),
(313,263,o),
(313,217,cs),
(313,99,o),
(394,68,o),
(496,68,cs),
(535,68,o),
(574,73,o),
(612,80,c)
);
},
{
closed = 1;
nodes = (
(114,996,l),
(128,1080,l),
(778,1080,l),
(764,996,l)
);
}
);
width = 722;
}
);
leftKerningGroup = t2;
rightKerningGroup = t;
unicode = 116;
},
{
glyphname = u;
layers = (
{
layerId = "8DF6C0F1-DE73-4D1F-9C90-51BE488A4B4C";
shapes = (
{
closed = 1;
nodes = (
(377,-32,o),
(282,-11,o),
(247,11,qs),
(212,33,o),
(163,87,o),
(147,120,qs),
(130,153,o),
(112,222,o),
(109,258,qs),
(103,330,o),
(114,447,o),
(119,474,qs),
(219,1080,l),
(481,1080,l),
(397,570,ls),
(394,551,o),
(388,505,o),
(385,476,qs),
(382,447,o),
(384,389,o),
(390,360,qs),
(396,331,o),
(420,283,o),
(440,263,qs),
(459,243,o),
(520,224,o),
(562,224,qs),
(596,224,o),
(676,246,o),
(715,278,qs),
(754,310,o),
(817,432,o),
(834,532,q),
(970,458,l),
(959,394,o),
(915,275,o),
(881,218,qs),
(847,161,o),
(757,72,o),
(702,37,qs),
(646,2,o),
(514,-32,o),
(438,-32,qs)
);
},
{
closed = 1;
nodes = (
(778,0,l),
(837,358,l),
(805,358,l),
(925,1080,l),
(1185,1080,l),
(1006,0,l)
);
}
);
width = 1202;
},
{
layerId = "87233CA6-F023-426F-ADAE-E8786DEFE8CF";
shapes = (
{
closed = 1;
nodes = (
(398,-28,o),
(317,-12,o),
(284,5,q),
(250,21,o),
(199,64,o),
(181,91,q),
(161,118,o),
(134,178,o),
(126,212,qs),
(110,279,o),
(110,419,o),
(121,484,qs),
(219,1080,l),
(384,1080,l),
(294,537,ls),
(287,497,o),
(282,423,o),
(283,386,q),
(283,350,o),
(297,286,o),
(308,258,qs),
(320,229,o),
(357,185,o),
(382,168,qs),
(406,151,o),
(471,135,o),
(512,135,qs),
(579,135,o),
(694,183,o),
(740,229,qs),
(785,276,o),
(848,416,o),
(864,510,q),
(967,476,l),
(954,397,o),
(905,262,o),
(868,205,qs),
(832,148,o),
(742,62,o),
(688,32,qs),
(633,2,o),
(513,-28,o),
(448,-28,qs)
);
},
{
closed = 1;
nodes = (
(798,0,l),
(844,284,l),
(827,284,l),
(959,1080,l),
(1123,1080,l),
(944,0,l)
);
}
);
width = 1140;
},
{
layerId = "C35D8726-4A09-4B72-A1E9-09A0D38B7D70";
shapes = (
{
closed = 1;
nodes = (
(416,-24,o),
(347,-12,o),
(316,-1,qs),
(284,10,o),
(231,44,o),
(210,66,qs),
(188,88,o),
(153,140,o),
(141,172,qs),
(116,235,o),
(106,395,o),
(122,492,qs),
(219,1080,l),
(299,1080,l),
(204,508,ls),
(194,450,o),
(190,351,o),
(194,308,qs),
(197,265,o),
(220,196,o),
(237,168,qs),
(254,140,o),
(302,99,o),
(331,85,qs),
(359,71,o),
(429,58,o),
(469,58,qs),
(565,58,o),
(709,127,o),
(761,187,qs),
(812,247,o),
(876,402,o),
(890,490,q),
(965,492,l),
(950,399,o),
(896,251,o),
(857,194,qs),
(818,137,o),
(728,54,o),
(675,28,qs),
(622,2,o),
(513,-24,o),
(456,-24,qs)
);
},
{
closed = 1;
nodes = (
(815,0,l),
(851,220,l),
(846,220,l),
(988,1080,l),
(1068,1080,l),
(889,0,l)
);
}
);
width = 1085;
}
);
leftKerningGroup = u;
rightKerningGroup = I;
unicode = 117;
},
{
glyphname = v;
layers = (
{
layerId = "8DF6C0F1-DE73-4D1F-9C90-51BE488A4B4C";
shapes = (
{
closed = 1;
nodes = (
(344,0,l),
(146,1080,l),
(407,1080,l),
(529,332,l),
(899,1080,l),
(1160,1080,l),
(605,0,l)
);
}
);
width = 1086;
},
{
layerId = "87233CA6-F023-426F-ADAE-E8786DEFE8CF";
shapes = (
{
closed = 1;
nodes = (
(344,0,l),
(146,1080,l),
(313,1080,l),
(464,220,l),
(900,1080,l),
(1068,1080,l),
(513,0,l)
);
}
);
width = 994;
},
{
layerId = "C35D8726-4A09-4B72-A1E9-09A0D38B7D70";
shapes = (
{
closed = 1;
nodes = (
(344,0,l),
(146,1080,l),
(231,1080,l),
(408,122,l),
(901,1080,l),
(987,1080,l),
(432,0,l)
);
}
);
width = 913;
}
);
leftKerningGroup = v2;
rightKerningGroup = v;
unicode = 118;
},
{
glyphname = w;
layers = (
{
layerId = "8DF6C0F1-DE73-4D1F-9C90-51BE488A4B4C";
shapes = (
{
closed = 1;
nodes = (
(284,0,l),
(147,1082,l),
(402,1080,l),
(483,436,l),
(781,1080,l),
(998,1080,l),
(1082,436,l),
(1377,1080,l),
(1632,1080,l),
(1137,0,l),
(937,0,l),
(827,704,l),
(484,0,l)
);
}
);
width = 1558;
},
{
layerId = "87233CA6-F023-426F-ADAE-E8786DEFE8CF";
shapes = (
{
closed = 1;
nodes = (
(284,0,l),
(146,1081,l),
(311,1080,l),
(412,280,l),
(780,1080,l),
(927,1080,l),
(1030,280,l),
(1397,1080,l),
(1561,1080,l),
(1065,0,l),
(927,0,l),
(812,829,l),
(423,0,l)
);
}
);
width = 1487;
},
{
layerId = "C35D8726-4A09-4B72-A1E9-09A0D38B7D70";
shapes = (
{
closed = 1;
nodes = (
(284,0,l),
(146,1080,l),
(231,1080,l),
(350,144,l),
(780,1080,l),
(864,1080,l),
(984,144,l),
(1415,1080,l),
(1498,1080,l),
(1002,0,l),
(918,0,l),
(799,938,l),
(369,0,l)
);
}
);
width = 1424;
}
);
leftKerningGroup = v2;
rightKerningGroup = v;
unicode = 119;
},
{
glyphname = x;
layers = (
{
layerId = "8DF6C0F1-DE73-4D1F-9C90-51BE488A4B4C";
shapes = (
{
closed = 1;
nodes = (
(-51,0,l),
(410,546,l),
(136,1080,l),
(443,1080,l),
(597,760,l),
(854,1080,l),
(1161,1080,l),
(710,546,l),
(992,0,l),
(685,0,l),
(526,332,l),
(256,0,l)
);
}
);
width = 1078;
},
{
layerId = "87233CA6-F023-426F-ADAE-E8786DEFE8CF";
shapes = (
{
closed = 1;
nodes = (
(-51,0,l),
(438,546,l),
(137,1080,l),
(333,1080,l),
(556,679,l),
(909,1080,l),
(1106,1080,l),
(628,546,l),
(937,0,l),
(739,0,l),
(512,413,l),
(147,0,l)
);
}
);
width = 1023;
},
{
layerId = "C35D8726-4A09-4B72-A1E9-09A0D38B7D70";
shapes = (
{
closed = 1;
nodes = (
(-51,0,l),
(462,546,l),
(138,1080,l),
(237,1080,l),
(520,608,l),
(957,1080,l),
(1057,1080,l),
(556,546,l),
(888,0,l),
(786,0,l),
(500,484,l),
(51,0,l)
);
}
);
width = 975;
}
);
leftKerningGroup = x2;
rightKerningGroup = x;
unicode = 120;
},
{
glyphname = y;
layers = (
{
layerId = "8DF6C0F1-DE73-4D1F-9C90-51BE488A4B4C";
shapes = (
{
closed = 1;
nodes = (
(183,1080,l),
(444,1080,l),
(566,332,l),
(935,1080,l),
(1196,1080,l),
(641,0,ls),
(486,-301,o),
(381,-480,o),
(78,-480,cs),
(1,-480,l),
(40,-242,l),
(93,-241,ls),
(209,-239,o),
(314,-125,o),
(380,0,c)
);
}
);
width = 1122;
},
{
layerId = "87233CA6-F023-426F-ADAE-E8786DEFE8CF";
shapes = (
{
closed = 1;
nodes = (
(183,1080,l),
(350,1080,l),
(501,220,l),
(936,1080,l),
(1104,1080,l),
(549,0,ls),
(427,-236,o),
(319,-480,o),
(48,-480,cs),
(-19,-480,l),
(6,-328,l),
(50,-328,l),
(208,-327,o),
(309,-135,o),
(380,0,c)
);
}
);
width = 1030;
},
{
layerId = "C35D8726-4A09-4B72-A1E9-09A0D38B7D70";
shapes = (
{
closed = 1;
nodes = (
(183,1080,l),
(267,1080,l),
(444,122,l),
(937,1080,l),
(1024,1080,l),
(468,0,ls),
(376,-179,o),
(264,-480,o),
(22,-480,cs),
(-36,-480,l),
(-23,-404,l),
(13,-404,ls),
(207,-404,o),
(305,-143,o),
(380,0,c)
);
}
);
width = 950;
}
);
leftKerningGroup = y2;
rightKerningGroup = y;
unicode = 121;
},
{
glyphname = z;
layers = (
{
layerId = "8DF6C0F1-DE73-4D1F-9C90-51BE488A4B4C";
shapes = (
{
closed = 1;
nodes = (
(-33,0,l),
(-27,34,l),
(616,844,l),
(165,844,l),
(204,1080,l),
(1058,1080,l),
(1053,1046,l),
(412,236,l),
(899,236,l),
(860,0,l)
);
}
);
width = 1021;
},
{
layerId = "87233CA6-F023-426F-ADAE-E8786DEFE8CF";
shapes = (
{
closed = 1;
nodes = (
(-33,0,l),
(-28,32,l),
(757,923,l),
(172,923,l),
(198,1080,l),
(1050,1080,l),
(1044,1046,l),
(262,157,l),
(864,157,l),
(838,0,l)
);
}
);
width = 1012;
},
{
layerId = "C35D8726-4A09-4B72-A1E9-09A0D38B7D70";
shapes = (
{
closed = 1;
nodes = (
(-33,0,l),
(-28,30,l),
(880,992,l),
(178,992,l),
(192,1080,l),
(1043,1080,l),
(1037,1046,l),
(130,88,l),
(833,88,l),
(818,0,l)
);
}
);
width = 1005;
}
);
leftKerningGroup = z2;
rightKerningGroup = z;
unicode = 122;
},
{
glyphname = braceleft;
layers = (
{
layerId = "8DF6C0F1-DE73-4D1F-9C90-51BE488A4B4C";
shapes = (
{
closed = 1;
nodes = (
(524,-420,ls),
(456,-420,o),
(357,-381,o),
(325,-342,qs),
(293,-303,o),
(273,-195,o),
(285,-126,qs),
(381,458,ls),
(383,468,o),
(380,483,o),
(377,490,q),
(310,618,l),
(294,651,o),
(306,729,o),
(334,762,qs),
(443,890,ls),
(449,898,o),
(457,914,o),
(458,922,qs),
(555,1506,ls),
(566,1575,o),
(622,1682,o),
(667,1722,qs),
(712,1761,o),
(824,1800,o),
(891,1800,qs),
(1031,1800,l),
(988,1544,l),
(869,1544,ls),
(857,1544,o),
(835,1535,o),
(826,1527,qs),
(817,1519,o),
(804,1498,o),
(802,1486,qs),
(709,922,ls),
(701,873,o),
(658,784,o),
(622,742,qs),
(576,690,l),
(605,638,l),
(626,596,o),
(640,507,o),
(632,458,qs),
(539,-106,ls),
(537,-119,o),
(542,-140,o),
(548,-149,q),
(555,-157,o),
(574,-166,o),
(586,-166,qs),
(705,-166,l),
(663,-420,l)
);
}
);
width = 874;
},
{
layerId = "87233CA6-F023-426F-ADAE-E8786DEFE8CF";
shapes = (
{
closed = 1;
nodes = (
(472,-433,ls),
(418,-433,o),
(336,-399,o),
(307,-364,qs),
(279,-329,o),
(260,-240,o),
(270,-185,q),
(375,454,ls),
(377,469,o),
(373,495,o),
(367,507,q),
(304,628,l),
(293,649,o),
(301,700,o),
(319,720,qs),
(423,841,l),
(433,854,o),
(445,880,o),
(448,894,q),
(553,1532,ls),
(562,1587,o),
(611,1677,o),
(651,1712,qs),
(691,1747,o),
(784,1781,o),
(838,1781,qs),
(960,1781,l),
(933,1617,l),
(821,1617,ls),
(802,1617,o),
(767,1603,o),
(751,1589,qs),
(735,1576,o),
(715,1542,o),
(712,1522,qs),
(609,894,ls),
(602,853,o),
(567,780,o),
(538,746,qs),
(475,674,l),
(514,602,l),
(531,568,o),
(542,495,o),
(535,454,qs),
(432,-175,ls),
(429,-195,o),
(436,-228,o),
(448,-242,qs),
(460,-256,o),
(489,-269,o),
(509,-269,qs),
(621,-269,l),
(594,-433,l)
);
}
);
width = 812;
},
{
layerId = "C35D8726-4A09-4B72-A1E9-09A0D38B7D70";
shapes = (
{
closed = 1;
nodes = (
(427,-444,ls),
(384,-444,o),
(317,-414,o),
(292,-383,qs),
(267,-352,o),
(248,-279,o),
(256,-236,q),
(369,450,ls),
(372,469,o),
(367,505,o),
(359,522,q),
(298,636,l),
(293,647,o),
(297,674,o),
(306,684,qs),
(405,798,ls),
(419,815,o),
(435,851,o),
(439,870,q),
(552,1554,ls),
(559,1598,o),
(602,1672,o),
(637,1703,qs),
(673,1734,o),
(749,1764,o),
(792,1764,qs),
(898,1764,l),
(884,1680,l),
(779,1680,ls),
(754,1680,o),
(707,1662,o),
(685,1644,qs),
(663,1625,o),
(638,1580,o),
(634,1554,qs),
(521,870,ls),
(515,836,o),
(487,776,o),
(464,750,qs),
(386,660,l),
(434,570,ls),
(448,544,o),
(457,484,o),
(451,450,qs),
(338,-236,ls),
(334,-262,o),
(344,-305,o),
(360,-324,qs),
(376,-342,o),
(415,-360,o),
(441,-360,qs),
(547,-360,l),
(533,-444,l)
);
}
);
width = 757;
}
);
leftKerningGroup = parenleft2;
rightKerningGroup = parenleft;
unicode = 123;
},
{
glyphname = bar;
layers = (
{
layerId = "8DF6C0F1-DE73-4D1F-9C90-51BE488A4B4C";
shapes = (
{
closed = 1;
nodes = (
(95,0,l),
(333,1440,l),
(600,1440,l),
(361,0,l)
);
}
);
width = 594;
},
{
layerId = "87233CA6-F023-426F-ADAE-E8786DEFE8CF";
shapes = (
{
closed = 1;
nodes = (
(95,0,l),
(333,1440,l),
(502,1440,l),
(263,0,l)
);
}
);
width = 495;
},
{
layerId = "C35D8726-4A09-4B72-A1E9-09A0D38B7D70";
shapes = (
{
closed = 1;
nodes = (
(95,0,l),
(333,1440,l),
(416,1440,l),
(177,0,l)
);
}
);
width = 409;
}
);
unicode = 124;
},
{
glyphname = braceright;
layers = (
{
layerId = "8DF6C0F1-DE73-4D1F-9C90-51BE488A4B4C";
shapes = (
{
closed = 1;
nodes = (
(-66,-420,l),
(-24,-166,l),
(96,-166,ls),
(108,-166,o),
(130,-157,o),
(139,-149,qs),
(148,-140,o),
(160,-119,o),
(163,-106,q),
(256,458,ls),
(264,507,o),
(307,596,o),
(343,638,qs),
(389,690,l),
(360,742,l),
(339,784,o),
(325,873,o),
(333,922,qs),
(426,1486,ls),
(428,1498,o),
(423,1519,o),
(416,1527,qs),
(409,1535,o),
(391,1544,o),
(379,1544,qs),
(259,1544,l),
(302,1800,l),
(441,1800,ls),
(509,1800,o),
(608,1761,o),
(640,1722,qs),
(672,1682,o),
(692,1575,o),
(680,1506,qs),
(584,922,ls),
(583,914,o),
(585,898,o),
(588,890,q),
(655,762,l),
(671,729,o),
(658,651,o),
(631,618,qs),
(522,490,ls),
(516,483,o),
(509,468,o),
(507,458,qs),
(410,-126,ls),
(399,-195,o),
(343,-303,o),
(298,-342,qs),
(253,-381,o),
(141,-420,o),
(73,-420,qs)
);
}
);
width = 874;
},
{
layerId = "87233CA6-F023-426F-ADAE-E8786DEFE8CF";
shapes = (
{
closed = 1;
nodes = (
(-63,-433,l),
(-36,-269,l),
(76,-269,ls),
(95,-269,o),
(131,-256,o),
(146,-242,qs),
(162,-228,o),
(181,-195,o),
(184,-175,qs),
(289,454,ls),
(295,495,o),
(330,568,o),
(360,602,qs),
(422,674,l),
(383,746,l),
(366,780,o),
(355,853,o),
(361,894,qs),
(465,1522,ls),
(468,1542,o),
(461,1576,o),
(449,1589,qs),
(437,1603,o),
(408,1617,o),
(389,1617,qs),
(276,1617,l),
(304,1781,l),
(425,1781,ls),
(480,1781,o),
(562,1747,o),
(590,1712,qs),
(619,1677,o),
(637,1587,o),
(628,1532,qs),
(523,894,ls),
(521,880,o),
(524,854,o),
(529,841,q),
(594,720,l),
(604,700,o),
(595,649,o),
(578,628,q),
(475,507,ls),
(464,495,o),
(452,469,o),
(449,454,qs),
(343,-185,ls),
(334,-240,o),
(286,-329,o),
(246,-364,qs),
(206,-399,o),
(113,-433,o),
(58,-433,qs)
);
}
);
width = 812;
},
{
layerId = "C35D8726-4A09-4B72-A1E9-09A0D38B7D70";
shapes = (
{
closed = 1;
nodes = (
(-61,-444,l),
(-47,-360,l),
(59,-360,ls),
(84,-360,o),
(131,-342,o),
(152,-324,qs),
(174,-305,o),
(199,-262,o),
(203,-236,qs),
(317,450,ls),
(323,484,o),
(351,544,o),
(374,570,qs),
(451,660,l),
(404,750,ls),
(390,776,o),
(381,836,o),
(386,870,q),
(499,1554,ls),
(503,1580,o),
(494,1625,o),
(478,1644,qs),
(462,1662,o),
(422,1680,o),
(397,1680,qs),
(291,1680,l),
(305,1764,l),
(411,1764,ls),
(454,1764,o),
(521,1734,o),
(547,1703,qs),
(572,1672,o),
(589,1598,o),
(582,1554,qs),
(469,870,ls),
(466,851,o),
(470,815,o),
(478,798,q),
(540,684,ls),
(545,674,o),
(540,647,o),
(532,636,q),
(433,522,ls),
(419,505,o),
(402,469,o),
(399,450,qs),
(285,-236,ls),
(278,-279,o),
(237,-352,o),
(201,-383,qs),
(165,-414,o),
(88,-444,o),
(45,-444,qs)
);
}
);
width = 757;
}
);
leftKerningGroup = parenright2;
rightKerningGroup = parenright;
unicode = 125;
},
{
glyphname = asciitilde;
layers = (
{
layerId = "8DF6C0F1-DE73-4D1F-9C90-51BE488A4B4C";
shapes = (
{
closed = 1;
nodes = (
(869,390,o),
(756,453,o),
(708,494,q),
(683,514,o),
(638,551,o),
(616,567,qs),
(594,583,o),
(552,599,o),
(532,599,qs),
(511,599,o),
(479,575,o),
(467,552,qs),
(455,528,o),
(446,468,o),
(450,432,q),
(218,432,l),
(214,494,o),
(226,604,o),
(243,655,qs),
(276,754,o),
(426,872,o),
(541,872,qs),
(609,872,o),
(722,809,o),
(771,768,qs),
(820,726,o),
(906,663,o),
(947,663,qs),
(968,663,o),
(1001,687,o),
(1013,711,qs),
(1025,734,o),
(1033,794,o),
(1029,830,q),
(1262,830,l),
(1265,768,o),
(1253,658,o),
(1237,608,qs),
(1204,508,o),
(1054,390,o),
(937,390,qs)
);
}
);
width = 1408;
},
{
layerId = "87233CA6-F023-426F-ADAE-E8786DEFE8CF";
shapes = (
{
closed = 1;
nodes = (
(805,451,o),
(701,502,o),
(655,536,q),
(631,552,o),
(586,581,o),
(565,595,q),
(543,608,o),
(501,620,o),
(481,620,qs),
(455,620,o),
(418,598,o),
(407,577,qs),
(395,554,o),
(387,505,o),
(392,478,q),
(231,478,l),
(227,524,o),
(239,607,o),
(255,645,qs),
(285,719,o),
(408,808,o),
(496,808,qs),
(557,808,o),
(663,757,o),
(710,723,qs),
(758,689,o),
(842,638,o),
(884,638,qs),
(907,638,o),
(943,660,o),
(956,682,qs),
(968,703,o),
(976,754,o),
(972,784,q),
(1134,784,l),
(1137,738,o),
(1126,655,o),
(1111,618,qs),
(1081,542,o),
(956,451,o),
(866,451,qs)
);
}
);
width = 1293;
},
{
layerId = "C35D8726-4A09-4B72-A1E9-09A0D38B7D70";
shapes = (
{
closed = 1;
nodes = (
(749,504,o),
(652,545,o),
(608,572,q),
(585,585,o),
(541,608,o),
(520,619,qs),
(499,629,o),
(457,639,o),
(436,639,qs),
(406,639,o),
(365,618,o),
(354,598,qs),
(343,577,o),
(336,537,o),
(341,518,q),
(242,518,l),
(239,550,o),
(250,610,o),
(265,636,q),
(293,689,o),
(393,752,o),
(457,752,qs),
(512,752,o),
(611,711,o),
(657,684,qs),
(703,657,o),
(786,616,o),
(828,616,qs),
(853,616,o),
(892,636,o),
(906,656,qs),
(919,676,o),
(927,719,o),
(923,743,q),
(1022,743,l),
(1025,711,o),
(1015,653,o),
(1001,626,qs),
(973,571,o),
(870,504,o),
(803,504,qs)
);
}
);
width = 1193;
}
);
unicode = 126;
},
{
glyphname = exclamdown;
leftMetricsKey = "=123";
widthMetricsKey = "=523";
layers = (
{
layerId = "8DF6C0F1-DE73-4D1F-9C90-51BE488A4B4C";
widthMetricsKey = "=706";
shapes = (
{
closed = 1;
nodes = (
(443,1102,o),
(478,1087,o),
(503,1056,cs),
(529,1025,o),
(538,988,o),
(530,944,cs),
(523,899,o),
(502,862,o),
(466,831,cs),
(431,801,o),
(390,786,o),
(345,786,cs),
(299,786,o),
(264,801,o),
(239,831,cs),
(214,862,o),
(205,899,o),
(212,944,cs),
(220,988,o),
(241,1025,o),
(276,1056,cs),
(311,1087,o),
(352,1102,o),
(398,1102,cs)
);
},
{
closed = 1;
nodes = (
(440,660,l),
(400,247,l),
(300,-360,l),
(12,-360,l),
(112,247,l),
(208,660,l)
);
}
);
width = 706;
},
{
layerId = "87233CA6-F023-426F-ADAE-E8786DEFE8CF";
widthMetricsKey = "=608";
shapes = (
{
closed = 1;
nodes = (
(383,1093,o),
(408,1083,o),
(426,1060,c),
(445,1038,o),
(451,1012,o),
(446,981,cs),
(440,949,o),
(425,922,o),
(399,900,cs),
(374,878,o),
(346,868,o),
(314,868,cs),
(281,868,o),
(256,878,o),
(237,900,cs),
(219,922,o),
(213,949,o),
(218,981,cs),
(224,1013,o),
(239,1039,o),
(264,1061,cs),
(290,1083,o),
(318,1093,o),
(351,1093,cs)
);
},
{
closed = 1;
nodes = (
(349,692,l),
(303,265,l),
(200,-360,l),
(21,-360,l),
(124,265,l),
(213,692,l)
);
}
);
width = 608;
},
{
layerId = "C35D8726-4A09-4B72-A1E9-09A0D38B7D70";
shapes = (
{
closed = 1;
nodes = (
(394,1086,o),
(410,1079,o),
(421,1064,c),
(434,1050,o),
(438,1033,o),
(435,1013,cs),
(431,992,o),
(421,974,o),
(404,960,cs),
(388,946,o),
(370,939,o),
(349,939,cs),
(328,939,o),
(312,946,o),
(299,960,cs),
(287,974,o),
(283,992,o),
(287,1013,cs),
(290,1034,o),
(300,1051,o),
(317,1065,cs),
(334,1079,o),
(352,1086,o),
(373,1086,cs)
);
},
{
closed = 1;
nodes = (
(332,720,l),
(282,280,l),
(176,-360,l),
(92,-360,l),
(198,280,l),
(280,720,l)
);
}
);
width = 523;
}
);
unicode = 161;
},
{
glyphname = cent;
layers = (
{
layerId = "8DF6C0F1-DE73-4D1F-9C90-51BE488A4B4C";
shapes = (
{
closed = 1;
nodes = (
(429,-58,l),
(460,126,l),
(393,137,o),
(284,186,o),
(242,225,qs),
(157,303,o),
(94,542,o),
(118,690,qs),
(130,764,o),
(179,897,o),
(215,957,qs),
(288,1077,o),
(507,1231,o),
(646,1252,q),
(677,1440,l),
(883,1440,l),
(852,1250,l),
(921,1236,o),
(1031,1178,o),
(1071,1132,qs),
(1111,1086,o),
(1155,971,o),
(1158,900,q),
(880,828,l),
(875,870,o),
(845,936,o),
(820,959,qs),
(794,982,o),
(733,1006,o),
(696,1006,qs),
(654,1006,o),
(581,985,o),
(551,965,qs),
(490,923,o),
(415,781,o),
(400,690,qs),
(388,619,o),
(400,506,o),
(424,462,q),
(447,417,o),
(530,374,o),
(591,374,qs),
(681,374,o),
(789,458,o),
(826,536,q),
(1088,478,l),
(1026,333,o),
(810,157,o),
(666,130,q),
(635,-58,l)
);
}
);
width = 1132;
},
{
layerId = "87233CA6-F023-426F-ADAE-E8786DEFE8CF";
shapes = (
{
closed = 1;
nodes = (
(434,-59,l),
(465,124,l),
(395,132,o),
(283,176,o),
(241,214,qs),
(155,291,o),
(94,534,o),
(118,690,q),
(132,769,o),
(182,908,o),
(218,970,qs),
(290,1092,o),
(509,1241,o),
(652,1255,q),
(682,1440,l),
(822,1440,l),
(792,1254,l),
(859,1245,o),
(969,1197,o),
(1012,1157,qs),
(1055,1116,o),
(1107,1013,o),
(1115,949,q),
(940,897,l),
(930,945,o),
(888,1018,o),
(855,1044,qs),
(820,1071,o),
(738,1097,o),
(689,1097,qs),
(633,1097,o),
(538,1071,o),
(498,1045,qs),
(417,992,o),
(317,810,o),
(297,690,q),
(282,598,o),
(299,452,o),
(331,395,qs),
(363,339,o),
(473,283,o),
(554,283,qs),
(659,283,o),
(815,381,o),
(867,474,q),
(1029,428,l),
(956,296,o),
(742,143,o),
(605,126,q),
(574,-59,l)
);
}
);
width = 1086;
},
{
layerId = "C35D8726-4A09-4B72-A1E9-09A0D38B7D70";
shapes = (
{
closed = 1;
nodes = (
(439,-60,l),
(469,122,l),
(396,127,o),
(283,168,o),
(240,205,qs),
(154,280,o),
(94,527,o),
(118,690,q),
(134,774,o),
(184,918,o),
(220,981,qs),
(292,1106,o),
(510,1249,o),
(657,1258,q),
(687,1440,l),
(769,1440,l),
(739,1258,l),
(805,1253,o),
(915,1213,o),
(961,1178,qs),
(1006,1143,o),
(1065,1050,o),
(1077,992,q),
(993,958,l),
(979,1010,o),
(926,1090,o),
(885,1119,qs),
(843,1148,o),
(742,1176,o),
(683,1176,qs),
(615,1176,o),
(501,1146,o),
(452,1115,qs),
(354,1053,o),
(232,835,o),
(206,690,q),
(190,579,o),
(211,404,o),
(250,337,qs),
(289,270,o),
(424,204,o),
(522,204,qs),
(639,204,o),
(837,314,o),
(902,420,q),
(977,384,l),
(895,263,o),
(682,131,o),
(551,122,q),
(521,-60,l)
);
}
);
width = 1045;
}
);
leftKerningGroup = xi;
rightKerningGroup = c;
unicode = 162;
},
{
glyphname = sterling;
layers = (
{
layerId = "8DF6C0F1-DE73-4D1F-9C90-51BE488A4B4C";
shapes = (
{
closed = 1;
nodes = (
(403,188,l),
(428,210,o),
(468,263,o),
(496,321,o),
(514,382,o),
(519,412,qs),
(532,489,o),
(520,635,o),
(499,779,o),
(487,926,o),
(500,1002,qs),
(510,1062,o),
(563,1143,o),
(640,1192,o),
(736,1214,o),
(788,1214,qs),
(838,1214,o),
(922,1183,o),
(983,1126,o),
(1020,1046,o),
(1022,996,q),
(1319,1046,l),
(1310,1151,o),
(1235,1310,o),
(1109,1415,o),
(939,1468,o),
(834,1468,qs),
(720,1468,o),
(515,1416,o),
(352,1304,o),
(240,1125,o),
(219,999,qs),
(206,921,o),
(219,774,o),
(240,632,o),
(253,495,o),
(242,429,qs),
(233,376,o),
(184,288,o),
(137,254,q)
);
},
{
closed = 1;
nodes = (
(4,0,l),
(1091,0,l),
(1133,254,l),
(46,254,l)
);
},
{
closed = 1;
nodes = (
(100,580,l),
(974,580,l),
(1016,834,l),
(142,834,l)
);
}
);
width = 1287;
},
{
layerId = "87233CA6-F023-426F-ADAE-E8786DEFE8CF";
shapes = (
{
closed = 1;
nodes = (
(312,126,l),
(341,148,o),
(384,204,o),
(415,266,o),
(435,332,o),
(440,364,qs),
(454,452,o),
(439,618,o),
(414,783,o),
(399,948,o),
(414,1034,qs),
(425,1105,o),
(493,1208,o),
(589,1274,o),
(708,1305,o),
(772,1305,qs),
(839,1305,o),
(953,1267,o),
(1037,1193,o),
(1085,1086,o),
(1084,1016,q),
(1268,1048,l),
(1267,1149,o),
(1197,1307,o),
(1073,1413,o),
(905,1469,o),
(807,1469,qs),
(703,1469,o),
(513,1419,o),
(360,1312,o),
(254,1146,o),
(235,1031,qs),
(220,943,o),
(237,778,o),
(263,615,o),
(280,453,o),
(266,371,qs),
(255,305,o),
(190,200,o),
(128,163,q)
);
},
{
closed = 1;
nodes = (
(-6,0,l),
(1060,0,l),
(1087,163,l),
(21,163,l)
);
},
{
closed = 1;
nodes = (
(105,628,l),
(945,628,l),
(972,791,l),
(132,791,l)
);
}
);
width = 1226;
},
{
layerId = "C35D8726-4A09-4B72-A1E9-09A0D38B7D70";
shapes = (
{
closed = 1;
nodes = (
(233,71,l),
(265,94,o),
(311,152,o),
(344,217,o),
(365,288,o),
(370,322,qs),
(386,419,o),
(369,604,o),
(340,786,o),
(322,968,o),
(338,1062,qs),
(351,1143,o),
(431,1264,o),
(545,1345,o),
(684,1385,o),
(758,1385,qs),
(839,1385,o),
(981,1340,o),
(1085,1252,o),
(1142,1121,o),
(1139,1034,q),
(1224,1050,l),
(1229,1148,o),
(1163,1304,o),
(1041,1412,o),
(876,1470,o),
(784,1470,qs),
(689,1470,o),
(511,1421,o),
(367,1319,o),
(266,1164,o),
(249,1059,qs),
(233,963,o),
(253,781,o),
(283,600,o),
(303,417,o),
(287,321,qs),
(274,243,o),
(196,123,o),
(120,84,q)
);
},
{
closed = 1;
nodes = (
(-14,0,l),
(1033,0,l),
(1047,84,l),
(0,84,l)
);
},
{
closed = 1;
nodes = (
(110,670,l),
(920,670,l),
(934,754,l),
(124,754,l)
);
}
);
width = 1173;
}
);
unicode = 163;
},
{
glyphname = currency;
layers = (
{
layerId = "8DF6C0F1-DE73-4D1F-9C90-51BE488A4B4C";
shapes = (
{
closed = 1;
nodes = (
(519,196,o),
(347,278,o),
(289,351,qs),
(230,423,o),
(181,613,o),
(199,722,qs),
(217,831,o),
(329,1020,o),
(411,1092,qs),
(493,1164,o),
(693,1246,o),
(799,1246,qs),
(906,1246,o),
(1079,1164,o),
(1139,1092,qs),
(1198,1020,o),
(1246,831,o),
(1228,722,qs),
(1210,613,o),
(1098,423,o),
(1016,351,qs),
(932,278,o),
(733,196,o),
(626,196,qs)
);
},
{
closed = 1;
nodes = (
(179,100,l),
(32,280,l),
(323,534,l),
(471,354,l)
);
},
{
closed = 1;
nodes = (
(384,904,l),
(177,1158,l),
(384,1340,l),
(591,1086,l)
);
},
{
closed = 1;
nodes = (
(1041,100,l),
(834,354,l),
(1040,534,l),
(1247,280,l)
);
},
{
closed = 1;
nodes = (
(704,424,o),
(780,445,o),
(816,465,qs),
(853,485,o),
(914,539,o),
(939,573,qs),
(964,607,o),
(996,680,o),
(1002,720,qs),
(1009,762,o),
(1002,835,o),
(988,869,qs),
(974,903,o),
(930,956,o),
(900,976,qs),
(870,996,o),
(801,1016,o),
(761,1016,qs),
(720,1016,o),
(645,996,o),
(609,976,qs),
(572,956,o),
(511,903,o),
(486,869,qs),
(461,835,o),
(429,762,o),
(422,720,qs),
(415,680,o),
(423,607,o),
(437,573,qs),
(451,539,o),
(494,485,o),
(524,465,qs),
(554,445,o),
(622,424,o),
(663,424,qs)
);
},
{
closed = 1;
nodes = (
(1104,906,l),
(955,1086,l),
(1246,1340,l),
(1393,1158,l)
);
}
);
width = 1324;
},
{
layerId = "87233CA6-F023-426F-ADAE-E8786DEFE8CF";
shapes = (
{
closed = 1;
nodes = (
(489,196,o),
(317,278,o),
(259,351,qs),
(200,423,o),
(151,613,o),
(169,722,qs),
(187,831,o),
(299,1020,o),
(381,1092,qs),
(463,1164,o),
(663,1246,o),
(769,1246,qs),
(876,1246,o),
(1049,1164,o),
(1109,1092,qs),
(1168,1020,o),
(1216,831,o),
(1198,722,qs),
(1180,613,o),
(1068,423,o),
(986,351,qs),
(902,278,o),
(703,196,o),
(596,196,qs)
);
},
{
closed = 1;
nodes = (
(121,132,l),
(27,248,l),
(280,469,l),
(375,353,l)
);
},
{
closed = 1;
nodes = (
(364,970,l),
(183,1192,l),
(316,1308,l),
(496,1087,l)
);
},
{
closed = 1;
nodes = (
(1048,132,l),
(868,353,l),
(1001,469,l),
(1181,248,l)
);
},
{
closed = 1;
nodes = (
(671,347,o),
(767,373,o),
(813,399,qs),
(860,424,o),
(937,492,o),
(969,535,qs),
(1000,578,o),
(1040,669,o),
(1048,720,qs),
(1057,772,o),
(1048,865,o),
(1030,908,qs),
(1011,952,o),
(957,1018,o),
(919,1044,qs),
(881,1069,o),
(794,1094,o),
(744,1094,qs),
(693,1094,o),
(598,1069,o),
(551,1044,qs),
(505,1018,o),
(428,952,o),
(397,908,qs),
(366,865,o),
(325,772,o),
(316,720,qs),
(308,669,o),
(318,578,o),
(335,535,qs),
(352,492,o),
(407,424,o),
(445,399,qs),
(483,373,o),
(569,347,o),
(620,347,qs)
);
},
{
closed = 1;
nodes = (
(1084,971,l),
(990,1087,l),
(1243,1308,l),
(1338,1192,l)
);
}
);
width = 1263;
},
{
layerId = "C35D8726-4A09-4B72-A1E9-09A0D38B7D70";
shapes = (
{
closed = 1;
nodes = (
(462,196,o),
(290,278,o),
(232,351,qs),
(173,423,o),
(124,613,o),
(142,722,qs),
(160,831,o),
(272,1020,o),
(355,1092,qs),
(437,1164,o),
(636,1246,o),
(743,1246,qs),
(850,1246,o),
(1022,1164,o),
(1082,1092,qs),
(1141,1020,o),
(1189,831,o),
(1171,722,qs),
(1153,613,o),
(1042,423,o),
(959,351,qs),
(875,278,o),
(676,196,o),
(569,196,qs)
);
},
{
closed = 1;
nodes = (
(71,160,l),
(22,220,l),
(242,412,l),
(291,352,l)
);
},
{
closed = 1;
nodes = (
(346,1028,l),
(188,1222,l),
(256,1280,l),
(413,1088,l)
);
},
{
closed = 1;
nodes = (
(1055,160,l),
(898,352,l),
(967,412,l),
(1124,220,l)
);
},
{
closed = 1;
nodes = (
(643,280,o),
(756,310,o),
(811,341,qs),
(866,371,o),
(957,450,o),
(995,501,qs),
(1032,552,o),
(1079,660,o),
(1089,720,qs),
(1099,781,o),
(1088,892,o),
(1066,943,qs),
(1044,994,o),
(980,1073,o),
(935,1103,qs),
(890,1132,o),
(788,1162,o),
(729,1162,qs),
(669,1162,o),
(556,1132,o),
(501,1103,qs),
(446,1073,o),
(356,994,o),
(319,943,qs),
(282,892,o),
(234,781,o),
(224,720,qs),
(214,660,o),
(226,552,o),
(246,501,qs),
(266,450,o),
(330,371,o),
(375,341,qs),
(420,310,o),
(523,280,o),
(583,280,qs)
);
},
{
closed = 1;
nodes = (
(1067,1028,l),
(1020,1088,l),
(1240,1280,l),
(1289,1222,l)
);
}
);
width = 1210;
}
);
leftKerningGroup = G2;
rightKerningGroup = O;
unicode = 164;
},
{
glyphname = yen;
layers = (
{
layerId = "8DF6C0F1-DE73-4D1F-9C90-51BE488A4B4C";
shapes = (
{
closed = 1;
nodes = (
(224,526,l),
(259,736,l),
(1082,736,l),
(1047,526,l)
);
},
{
closed = 1;
nodes = (
(168,188,l),
(203,398,l),
(1026,398,l),
(991,188,l)
);
},
{
closed = 1;
nodes = (
(413,0,l),
(510,586,l),
(169,1440,l),
(481,1440,l),
(697,898,l),
(1093,1440,l),
(1404,1440,l),
(781,586,l),
(684,0,l)
);
}
);
width = 1234;
},
{
layerId = "87233CA6-F023-426F-ADAE-E8786DEFE8CF";
shapes = (
{
closed = 1;
nodes = (
(197,519,l),
(220,661,l),
(981,661,l),
(957,519,l)
);
},
{
closed = 1;
nodes = (
(147,218,l),
(170,361,l),
(931,361,l),
(907,218,l)
);
},
{
closed = 1;
nodes = (
(406,0,l),
(505,600,l),
(169,1440,l),
(365,1440,l),
(623,797,l),
(1093,1440,l),
(1288,1440,l),
(675,600,l),
(576,0,l)
);
}
);
width = 1118;
},
{
layerId = "C35D8726-4A09-4B72-A1E9-09A0D38B7D70";
shapes = (
{
closed = 1;
nodes = (
(173,512,l),
(186,596,l),
(892,596,l),
(878,512,l)
);
},
{
closed = 1;
nodes = (
(128,244,l),
(142,328,l),
(848,328,l),
(834,244,l)
);
},
{
closed = 1;
nodes = (
(399,0,l),
(501,612,l),
(169,1440,l),
(263,1440,l),
(558,708,l),
(1093,1440,l),
(1187,1440,l),
(583,612,l),
(482,0,l)
);
}
);
width = 1017;
}
);
leftKerningGroup = Y2;
rightKerningGroup = Y;
unicode = 165;
},
{
glyphname = brokenbar;
layers = (
{
layerId = "8DF6C0F1-DE73-4D1F-9C90-51BE488A4B4C";
shapes = (
{
closed = 1;
nodes = (
(194,600,l),
(333,1440,l),
(600,1440,l),
(461,600,l)
);
},
{
closed = 1;
nodes = (
(22,-440,l),
(161,400,l),
(428,400,l),
(289,-440,l)
);
}
);
width = 594;
},
{
layerId = "87233CA6-F023-426F-ADAE-E8786DEFE8CF";
shapes = (
{
closed = 1;
nodes = (
(207,681,l),
(333,1440,l),
(502,1440,l),
(376,681,l)
);
},
{
closed = 1;
nodes = (
(39,-338,l),
(165,421,l),
(333,421,l),
(207,-338,l)
);
}
);
width = 495;
},
{
layerId = "C35D8726-4A09-4B72-A1E9-09A0D38B7D70";
shapes = (
{
closed = 1;
nodes = (
(219,752,l),
(333,1440,l),
(416,1440,l),
(302,752,l)
);
},
{
closed = 1;
nodes = (
(54,-248,l),
(168,440,l),
(250,440,l),
(136,-248,l)
);
}
);
width = 409;
}
);
unicode = 166;
},
{
glyphname = section;
layers = (
{
layerId = "8DF6C0F1-DE73-4D1F-9C90-51BE488A4B4C";
shapes = (
{
closed = 1;
nodes = (
(199,-270,o),
(36,-161,o),
(36,84,c),
(316,126,l),
(320,26,o),
(385,-36,o),
(485,-36,cs),
(560,-36,o),
(639,4,o),
(639,89,cs),
(639,232,o),
(99,182,o),
(99,466,cs),
(99,679,o),
(307,777,o),
(493,789,cs),
(506,790,o),
(519,790,o),
(531,790,c),
(538,676,l),
(472,654,o),
(373,620,o),
(373,536,cs),
(373,392,o),
(919,449,o),
(919,154,cs),
(919,-121,o),
(683,-270,o),
(428,-270,cs)
);
},
{
closed = 1;
nodes = (
(578,384,l),
(649,405,o),
(735,466,o),
(735,549,cs),
(735,695,o),
(196,633,o),
(196,931,cs),
(196,1181,o),
(422,1330,o),
(654,1330,cs),
(846,1330,o),
(1017,1220,o),
(1017,1010,c),
(736,960,l),
(736,1050,o),
(701,1098,o),
(608,1098,cs),
(543,1098,o),
(468,1070,o),
(468,993,cs),
(468,854,o),
(1015,906,o),
(1015,617,cs),
(1015,386,o),
(838,272,o),
(622,272,cs),
(604,272,o),
(585,273,o),
(567,274,c)
);
}
);
width = 1059;
},
{
layerId = "87233CA6-F023-426F-ADAE-E8786DEFE8CF";
shapes = (
{
closed = 1;
nodes = (
(208,-301,o),
(41,-205,o),
(36,18,c),
(213,46,l),
(222,-80,o),
(329,-147,o),
(449,-147,cs),
(568,-147,o),
(696,-77,o),
(696,56,cs),
(696,250,o),
(98,183,o),
(98,471,cs),
(98,672,o),
(290,782,o),
(472,788,c),
(489,788,o),
(507,787,o),
(524,786,c),
(522,724,l),
(422,698,o),
(273,638,o),
(273,514,cs),
(273,320,o),
(874,398,o),
(874,95,cs),
(874,-162,o),
(651,-301,o),
(414,-301,cs)
);
},
{
closed = 1;
nodes = (
(574,316,l),
(687,326,o),
(805,415,o),
(805,537,cs),
(805,732,o),
(208,661,o),
(208,954,cs),
(208,1186,o),
(434,1319,o),
(645,1319,cs),
(833,1319,o),
(1003,1210,o),
(997,1004,c),
(820,972,l),
(820,1100,o),
(735,1166,o),
(611,1166,cs),
(510,1166,o),
(382,1112,o),
(382,994,cs),
(382,802,o),
(984,878,o),
(984,578,cs),
(984,381,o),
(837,242,o),
(642,242,cs),
(616,242,o),
(590,245,o),
(566,252,c)
);
}
);
width = 1025;
},
{
layerId = "C35D8726-4A09-4B72-A1E9-09A0D38B7D70";
shapes = (
{
closed = 1;
nodes = (
(216,-328,o),
(46,-244,o),
(36,-40,c),
(122,-24,l),
(137,-173,o),
(280,-244,o),
(417,-244,cs),
(575,-244,o),
(745,-148,o),
(745,27,cs),
(745,266,o),
(97,184,o),
(97,475,cs),
(97,666,o),
(275,787,o),
(453,787,cs),
(475,787,o),
(496,785,o),
(517,782,c),
(508,766,l),
(378,736,o),
(185,653,o),
(185,495,cs),
(185,257,o),
(835,354,o),
(835,44,cs),
(835,-197,o),
(623,-328,o),
(401,-328,cs)
);
},
{
closed = 1;
nodes = (
(571,256,l),
(720,256,o),
(867,370,o),
(867,527,cs),
(867,765,o),
(219,685,o),
(219,975,cs),
(219,1191,o),
(445,1310,o),
(637,1310,cs),
(822,1310,o),
(991,1201,o),
(980,998,c),
(893,982,l),
(893,1144,o),
(765,1226,o),
(614,1226,cs),
(482,1226,o),
(307,1148,o),
(307,995,cs),
(307,757,o),
(957,854,o),
(957,544,cs),
(957,376,o),
(837,215,o),
(660,215,cs),
(627,215,o),
(595,221,o),
(565,232,c)
);
}
);
width = 996;
}
);
unicode = 167;
},
{
glyphname = dieresis;
layers = (
{
layerId = "8DF6C0F1-DE73-4D1F-9C90-51BE488A4B4C";
shapes = (
{
closed = 1;
nodes = (
(415,1193,o),
(359,1245,o),
(359,1324,cs),
(359,1423,o),
(443,1509,o),
(543,1509,cs),
(620,1509,o),
(675,1460,o),
(675,1381,cs),
(675,1280,o),
(593,1193,o),
(492,1193,cs)
);
},
{
closed = 1;
nodes = (
(835,1193,o),
(777,1245,o),
(777,1321,cs),
(777,1423,o),
(859,1509,o),
(962,1509,cs),
(1037,1509,o),
(1094,1461,o),
(1094,1384,cs),
(1094,1281,o),
(1013,1193,o),
(909,1193,cs)
);
}
);
width = 1144;
},
{
layerId = "87233CA6-F023-426F-ADAE-E8786DEFE8CF";
shapes = (
{
closed = 1;
nodes = (
(476,1252,o),
(435,1289,o),
(435,1344,cs),
(435,1416,o),
(495,1478,o),
(566,1478,cs),
(621,1478,o),
(661,1442,o),
(661,1386,cs),
(661,1314,o),
(602,1252,o),
(529,1252,cs)
);
},
{
closed = 1;
nodes = (
(828,1252,o),
(786,1289,o),
(786,1343,cs),
(786,1416,o),
(845,1478,o),
(918,1478,cs),
(971,1478,o),
(1012,1443,o),
(1012,1388,cs),
(1012,1314,o),
(954,1252,o),
(880,1252,cs)
);
}
);
width = 1133;
},
{
layerId = "C35D8726-4A09-4B72-A1E9-09A0D38B7D70";
shapes = (
{
closed = 1;
nodes = (
(529,1303,o),
(501,1328,o),
(501,1362,cs),
(501,1409,o),
(540,1450,o),
(587,1450,cs),
(621,1450,o),
(649,1427,o),
(649,1391,cs),
(649,1343,o),
(610,1303,o),
(562,1303,cs)
);
},
{
closed = 1;
nodes = (
(821,1303,o),
(793,1328,o),
(793,1362,cs),
(793,1409,o),
(832,1450,o),
(879,1450,cs),
(913,1450,o),
(941,1427,o),
(941,1391,cs),
(941,1343,o),
(902,1303,o),
(854,1303,cs)
);
}
);
width = 1123;
}
);
unicode = 168;
},
{
glyphname = copyright;
layers = (
{
layerId = "8DF6C0F1-DE73-4D1F-9C90-51BE488A4B4C";
shapes = (
{
closed = 1;
nodes = (
(394,-140,o),
(91,160,o),
(91,566,cs),
(91,1088,o),
(557,1568,o),
(1082,1568,cs),
(1490,1568,o),
(1790,1269,o),
(1790,860,cs),
(1790,338,o),
(1324,-140,o),
(799,-140,cs)
);
},
{
closed = 1;
nodes = (
(679,286,o),
(554,418,o),
(554,627,cs),
(554,902,o),
(756,1142,o),
(1039,1142,cs),
(1204,1142,o),
(1336,1045,o),
(1343,872,c),
(1134,818,l),
(1128,894,o),
(1074,952,o),
(996,952,cs),
(839,952,o),
(768,786,o),
(768,651,cs),
(768,550,o),
(812,478,o),
(921,478,cs),
(1010,478,o),
(1055,523,o),
(1094,598,c),
(1291,556,l),
(1218,387,o),
(1072,286,o),
(888,286,cs)
);
},
{
closed = 1;
nodes = (
(1212,114,o),
(1538,452,o),
(1538,820,cs),
(1538,1107,o),
(1325,1314,o),
(1040,1314,cs),
(670,1314,o),
(344,976,o),
(344,609,cs),
(344,325,o),
(558,114,o),
(841,114,cs)
);
}
);
width = 1783;
},
{
layerId = "87233CA6-F023-426F-ADAE-E8786DEFE8CF";
shapes = (
{
closed = 1;
nodes = (
(359,-71,o),
(89,199,o),
(89,564,cs),
(89,1031,o),
(508,1460,o),
(977,1460,cs),
(1343,1460,o),
(1612,1193,o),
(1612,826,cs),
(1612,358,o),
(1194,-71,o),
(724,-71,cs)
);
},
{
closed = 1;
nodes = (
(592,272,o),
(476,399,o),
(476,597,cs),
(476,867,o),
(649,1120,o),
(938,1120,cs),
(1087,1120,o),
(1215,1039,o),
(1231,882,c),
(1088,841,l),
(1070,932,o),
(1002,987,o),
(910,987,cs),
(714,987,o),
(625,789,o),
(625,619,cs),
(625,495,o),
(680,405,o),
(814,405,cs),
(918,405,o),
(986,456,o),
(1036,544,c),
(1169,508,l),
(1094,360,o),
(958,272,o),
(791,272,cs)
);
},
{
closed = 1;
nodes = (
(1122,95,o),
(1447,434,o),
(1447,802,cs),
(1447,1088,o),
(1233,1295,o),
(950,1295,cs),
(580,1295,o),
(253,958,o),
(253,591,cs),
(253,305,o),
(467,95,o),
(751,95,cs)
);
}
);
width = 1609;
},
{
layerId = "C35D8726-4A09-4B72-A1E9-09A0D38B7D70";
shapes = (
{
closed = 1;
nodes = (
(328,-10,o),
(88,234,o),
(88,563,cs),
(88,982,o),
(466,1366,o),
(886,1366,cs),
(1214,1366,o),
(1456,1126,o),
(1456,797,cs),
(1456,376,o),
(1081,-10,o),
(658,-10,cs)
);
},
{
closed = 1;
nodes = (
(515,260,o),
(407,382,o),
(407,570,cs),
(407,836,o),
(556,1100,o),
(850,1100,cs),
(985,1100,o),
(1110,1034,o),
(1133,890,c),
(1048,862,l),
(1020,966,o),
(939,1018,o),
(834,1018,cs),
(605,1018,o),
(499,791,o),
(499,591,cs),
(499,447,o),
(564,342,o),
(720,342,cs),
(837,342,o),
(925,398,o),
(985,496,c),
(1062,466,l),
(985,336,o),
(859,260,o),
(707,260,cs)
);
},
{
closed = 1;
nodes = (
(1044,78,o),
(1367,419,o),
(1367,786,cs),
(1367,1071,o),
(1153,1278,o),
(871,1278,cs),
(502,1278,o),
(173,943,o),
(173,575,cs),
(173,288,o),
(387,78,o),
(673,78,cs)
);
}
);
width = 1457;
}
);
unicode = 169;
},
{
glyphname = ordfeminine;
layers = (
{
hints = (
{
horizontal = 1;
place = (560,138);
type = Stem;
},
{
horizontal = 1;
place = (788,147);
type = Stem;
},
{
horizontal = 1;
place = (1304,168);
type = Stem;
},
{
place = (477,146);
type = Stem;
}
);
layerId = "8DF6C0F1-DE73-4D1F-9C90-51BE488A4B4C";
shapes = (
{
closed = 1;
nodes = (
(234,710,o),
(152,799,o),
(174,931,cs),
(197,1071,o),
(308,1153,o),
(503,1177,cs),
(677,1198,l),
(678,1211,o),
(678,1223,o),
(675,1234,cs),
(665,1273,o),
(630,1291,o),
(570,1291,cs),
(495,1291,o),
(449,1267,o),
(420,1211,c),
(254,1252,l),
(318,1393,o),
(440,1470,o),
(601,1470,cs),
(813,1470,o),
(897,1368,o),
(861,1150,cs),
(791,730,l),
(599,730,l),
(616,833,l),
(557,751,o),
(480,710,o),
(376,710,cs)
);
},
{
closed = 1;
nodes = (
(536,878,o),
(617,920,o),
(642,999,c),
(646,1017,o),
(649,1035,o),
(653,1053,c),
(504,1035,ls),
(419,1025,o),
(373,998,o),
(365,950,cs),
(357,902,o),
(388,878,o),
(456,878,cs)
);
},
{
closed = 1;
nodes = (
(112,480,l),
(135,618,l),
(799,618,l),
(776,480,l)
);
}
);
width = 732;
},
{
layerId = "87233CA6-F023-426F-ADAE-E8786DEFE8CF";
shapes = (
{
closed = 1;
nodes = (
(255,710,o),
(174,792,o),
(196,922,cs),
(221,1073,o),
(345,1135,o),
(529,1158,cs),
(733,1184,l),
(737,1214,o),
(738,1240,o),
(734,1262,cs),
(723,1324,o),
(676,1353,o),
(590,1353,cs),
(491,1353,o),
(426,1314,o),
(390,1233,c),
(280,1257,l),
(339,1395,o),
(454,1470,o),
(611,1470,cs),
(806,1470,o),
(885,1371,o),
(851,1167,cs),
(779,730,l),
(658,730,l),
(678,854,l),
(613,760,o),
(521,710,o),
(405,710,cs)
);
},
{
closed = 1;
nodes = (
(566,822,o),
(663,887,o),
(699,1000,cs),
(707,1026,o),
(711,1055,o),
(716,1082,c),
(524,1058,ls),
(391,1043,o),
(330,1005,o),
(318,931,cs),
(306,859,o),
(351,822,o),
(451,822,cs)
);
},
{
closed = 1;
nodes = (
(132,501,l),
(150,606,l),
(781,606,l),
(764,501,l)
);
}
);
width = 725;
},
{
guides = (
{
position = "{0, 1440}";
}
);
hints = (
{
horizontal = 1;
place = (593,75);
type = Stem;
},
{
horizontal = 1;
place = (790,67);
type = Stem;
},
{
horizontal = 1;
place = (1403,71);
type = Stem;
},
{
place = (81,625);
type = Stem;
}
);
layerId = "C35D8726-4A09-4B72-A1E9-09A0D38B7D70";
shapes = (
{
closed = 1;
nodes = (
(274,710,o),
(194,785,o),
(216,915,cs),
(242,1074,o),
(378,1120,o),
(552,1142,cs),
(782,1171,l),
(789,1216,o),
(791,1254,o),
(786,1286,cs),
(773,1369,o),
(716,1407,o),
(608,1407,cs),
(487,1407,o),
(406,1356,o),
(363,1252,c),
(303,1262,l),
(357,1397,o),
(467,1470,o),
(620,1470,cs),
(799,1470,o),
(874,1373,o),
(842,1181,cs),
(768,730,l),
(709,730,l),
(732,873,l),
(662,768,o),
(556,710,o),
(430,710,cs)
);
},
{
closed = 1;
nodes = (
(592,773,o),
(704,858,o),
(749,1001,cs),
(760,1034,o),
(766,1072,o),
(771,1107,c),
(541,1079,ls),
(366,1058,o),
(293,1012,o),
(277,915,cs),
(262,822,o),
(318,773,o),
(447,773,cs)
);
},
{
closed = 1;
nodes = (
(150,520,l),
(163,595,l),
(766,595,l),
(753,520,l)
);
}
);
width = 719;
}
);
unicode = 170;
},
{
glyphname = guillemotleft;
layers = (
{
layerId = "8DF6C0F1-DE73-4D1F-9C90-51BE488A4B4C";
shapes = (
{
closed = 1;
nodes = (
(860,94,l),
(587,540,l),
(1008,986,l),
(1129,874,l),
(813,540,l),
(1018,206,l)
);
},
{
closed = 1;
nodes = (
(439,94,l),
(166,540,l),
(587,986,l),
(707,874,l),
(391,540,l),
(597,206,l)
);
}
);
width = 1162;
},
{
layerId = "87233CA6-F023-426F-ADAE-E8786DEFE8CF";
shapes = (
{
closed = 1;
nodes = (
(787,104,l),
(519,541,l),
(932,977,l),
(1017,900,l),
(677,541,l),
(898,181,l)
);
},
{
closed = 1;
nodes = (
(434,104,l),
(166,541,l),
(579,977,l),
(663,900,l),
(323,541,l),
(545,181,l)
);
}
);
width = 1055;
},
{
layerId = "C35D8726-4A09-4B72-A1E9-09A0D38B7D70";
shapes = (
{
closed = 1;
nodes = (
(724,112,l),
(460,542,l),
(866,970,l),
(919,922,l),
(558,542,l),
(793,160,l)
);
},
{
closed = 1;
nodes = (
(430,112,l),
(166,542,l),
(572,970,l),
(625,922,l),
(264,542,l),
(499,160,l)
);
}
);
width = 962;
}
);
unicode = 171;
},
{
glyphname = logicalnot;
layers = (
{
layerId = "8DF6C0F1-DE73-4D1F-9C90-51BE488A4B4C";
shapes = (
{
closed = 1;
nodes = (
(836,366,l),
(874,596,l),
(139,596,l),
(174,806,l),
(1114,806,l),
(1042,366,l)
);
}
);
width = 1159;
},
{
layerId = "87233CA6-F023-426F-ADAE-E8786DEFE8CF";
shapes = (
{
closed = 1;
nodes = (
(905,385,l),
(945,629,l),
(144,629,l),
(168,772,l),
(1109,772,l),
(1045,385,l)
);
}
);
width = 1159;
},
{
layerId = "C35D8726-4A09-4B72-A1E9-09A0D38B7D70";
shapes = (
{
closed = 1;
nodes = (
(965,402,l),
(1008,658,l),
(149,658,l),
(163,742,l),
(1104,742,l),
(1048,402,l)
);
}
);
width = 1159;
}
);
unicode = 172;
},
{
glyphname = registered;
layers = (
{
layerId = "8DF6C0F1-DE73-4D1F-9C90-51BE488A4B4C";
shapes = (
{
closed = 1;
nodes = (
(554,536,o),
(382,618,o),
(324,691,qs),
(265,763,o),
(216,953,o),
(234,1062,qs),
(252,1171,o),
(364,1360,o),
(446,1432,qs),
(528,1504,o),
(728,1586,o),
(834,1586,qs),
(941,1586,o),
(1114,1504,o),
(1174,1432,qs),
(1233,1360,o),
(1281,1171,o),
(1263,1062,qs),
(1245,953,o),
(1133,763,o),
(1051,691,qs),
(967,618,o),
(768,536,o),
(661,536,qs)
);
},
{
closed = 1;
nodes = (
(739,712,o),
(828,736,o),
(871,760,qs),
(914,784,o),
(987,848,o),
(1017,888,qs),
(1047,928,o),
(1085,1014,o),
(1093,1062,qs),
(1101,1111,o),
(1092,1199,o),
(1075,1239,qs),
(1058,1279,o),
(1007,1342,o),
(971,1365,qs),
(936,1388,o),
(855,1412,o),
(808,1412,qs),
(760,1412,o),
(670,1388,o),
(627,1365,qs),
(584,1342,o),
(511,1279,o),
(482,1239,qs),
(453,1199,o),
(415,1111,o),
(407,1062,qs),
(399,1014,o),
(408,928,o),
(424,888,qs),
(440,848,o),
(492,784,o),
(527,760,qs),
(562,736,o),
(644,712,o),
(692,712,qs)
);
},
{
closed = 1;
nodes = (
(546,824,l),
(624,1300,l),
(820,1300,ls),
(857,1300,o),
(913,1279,o),
(930,1257,qs),
(947,1235,o),
(959,1178,o),
(955,1142,q),
(948,1099,o),
(897,1026,o),
(851,1002,q),
(908,824,l),
(808,824,l),
(759,986,l),
(661,986,l),
(634,824,l)
);
},
{
closed = 1;
nodes = (
(675,1070,l),
(786,1070,ls),
(801,1070,o),
(826,1080,o),
(838,1091,qs),
(849,1101,o),
(862,1126,o),
(865,1142,qs),
(868,1159,o),
(864,1186,o),
(858,1196,qs),
(852,1205,o),
(827,1214,o),
(810,1214,qs),
(698,1214,l)
);
}
);
width = 1283;
},
{
layerId = "87233CA6-F023-426F-ADAE-E8786DEFE8CF";
shapes = (
{
closed = 1;
nodes = (
(535,567,o),
(373,644,o),
(318,712,qs),
(263,780,o),
(217,958,o),
(234,1061,qs),
(251,1164,o),
(355,1341,o),
(433,1409,qs),
(510,1476,o),
(698,1553,o),
(798,1553,qs),
(899,1553,o),
(1061,1476,o),
(1116,1409,qs),
(1172,1341,o),
(1217,1164,o),
(1200,1061,qs),
(1183,958,o),
(1079,780,o),
(1001,712,qs),
(923,644,o),
(736,567,o),
(635,567,qs)
);
},
{
closed = 1;
nodes = (
(707,694,o),
(801,719,o),
(846,744,qs),
(891,769,o),
(966,835,o),
(998,877,qs),
(1029,919,o),
(1068,1010,o),
(1077,1061,qs),
(1086,1112,o),
(1077,1204,o),
(1059,1245,qs),
(1041,1287,o),
(988,1353,o),
(951,1378,qs),
(914,1402,o),
(828,1427,o),
(779,1427,qs),
(728,1427,o),
(634,1402,o),
(590,1378,qs),
(545,1353,o),
(468,1287,o),
(438,1245,q),
(407,1204,o),
(367,1112,o),
(358,1061,qs),
(350,1010,o),
(359,919,o),
(377,877,qs),
(394,835,o),
(448,769,o),
(485,744,qs),
(521,719,o),
(607,694,o),
(657,694,qs)
);
},
{
closed = 1;
nodes = (
(518,829,l),
(596,1297,l),
(793,1297,ls),
(826,1297,o),
(878,1275,o),
(896,1253,qs),
(914,1231,o),
(926,1177,o),
(922,1144,q),
(915,1103,o),
(861,1028,o),
(816,1007,q),
(872,829,l),
(783,829,l),
(733,992,l),
(624,992,l),
(597,829,l)
);
},
{
closed = 1;
nodes = (
(637,1068,l),
(757,1068,ls),
(772,1068,o),
(798,1079,o),
(811,1090,qs),
(824,1101,o),
(839,1128,o),
(841,1144,qs),
(844,1162,o),
(838,1190,o),
(830,1200,qs),
(821,1210,o),
(797,1220,o),
(782,1220,qs),
(662,1220,l)
);
}
);
width = 1221;
},
{
layerId = "C35D8726-4A09-4B72-A1E9-09A0D38B7D70";
shapes = (
{
closed = 1;
nodes = (
(518,594,o),
(365,666,o),
(313,730,qs),
(261,794,o),
(218,963,o),
(234,1060,qs),
(250,1157,o),
(348,1324,o),
(421,1388,qs),
(494,1452,o),
(672,1524,o),
(767,1524,qs),
(862,1524,o),
(1014,1452,o),
(1066,1388,qs),
(1118,1324,o),
(1161,1157,o),
(1145,1060,qs),
(1129,963,o),
(1031,794,o),
(957,730,qs),
(884,666,o),
(708,594,o),
(613,594,qs)
);
},
{
closed = 1;
nodes = (
(679,678,o),
(777,704,o),
(824,730,qs),
(870,756,o),
(948,824,o),
(981,868,qs),
(1014,911,o),
(1054,1006,o),
(1063,1060,qs),
(1072,1113,o),
(1063,1208,o),
(1045,1251,qs),
(1027,1294,o),
(971,1363,o),
(933,1389,qs),
(894,1415,o),
(805,1440,o),
(753,1440,qs),
(700,1440,o),
(603,1415,o),
(557,1389,qs),
(510,1363,o),
(431,1294,o),
(399,1251,qs),
(366,1208,o),
(325,1113,o),
(316,1060,qs),
(307,1006,o),
(317,911,o),
(335,868,qs),
(353,824,o),
(409,756,o),
(448,730,qs),
(486,704,o),
(574,678,o),
(627,678,qs)
);
},
{
closed = 1;
nodes = (
(494,834,l),
(571,1294,l),
(770,1294,ls),
(798,1294,o),
(847,1272,o),
(866,1250,qs),
(885,1228,o),
(898,1176,o),
(893,1146,qs),
(887,1107,o),
(829,1030,o),
(785,1012,q),
(841,834,l),
(761,834,l),
(710,998,l),
(592,998,l),
(565,834,l)
);
},
{
closed = 1;
nodes = (
(603,1066,l),
(731,1066,ls),
(746,1066,o),
(774,1078,o),
(788,1090,qs),
(802,1101,o),
(818,1129,o),
(820,1146,qs),
(823,1164,o),
(815,1193,o),
(805,1204,qs),
(794,1215,o),
(770,1226,o),
(757,1226,qs),
(630,1226,l)
);
}
);
width = 1166;
}
);
unicode = 174;
},
{
glyphname = macron;
layers = (
{
layerId = "8DF6C0F1-DE73-4D1F-9C90-51BE488A4B4C";
shapes = (
{
closed = 1;
nodes = (
(428,1680,l),
(462,1888,l),
(995,1888,l),
(961,1680,l)
);
}
);
width = 969;
},
{
layerId = "87233CA6-F023-426F-ADAE-E8786DEFE8CF";
shapes = (
{
closed = 1;
nodes = (
(428,1680,l),
(451,1822,l),
(951,1822,l),
(927,1680,l)
);
}
);
width = 936;
},
{
layerId = "C35D8726-4A09-4B72-A1E9-09A0D38B7D70";
shapes = (
{
closed = 1;
nodes = (
(428,1680,l),
(441,1764,l),
(912,1764,l),
(898,1680,l)
);
}
);
width = 907;
}
);
unicode = 175;
},
{
glyphname = degree;
layers = (
{
layerId = "8DF6C0F1-DE73-4D1F-9C90-51BE488A4B4C";
shapes = (
{
closed = 1;
nodes = (
(414,750,o),
(330,774,o),
(293,799,qs),
(221,847,o),
(153,1010,o),
(169,1110,qs),
(177,1159,o),
(217,1248,o),
(248,1290,qs),
(279,1332,o),
(354,1396,o),
(399,1421,qs),
(444,1446,o),
(535,1470,o),
(582,1470,qs),
(631,1470,o),
(714,1446,o),
(751,1422,q),
(822,1373,o),
(892,1210,o),
(875,1110,qs),
(867,1059,o),
(828,970,o),
(797,929,qs),
(735,847,o),
(561,750,o),
(463,750,qs)
);
},
{
closed = 1;
nodes = (
(518,980,o),
(551,989,o),
(567,998,qs),
(598,1016,o),
(644,1075,o),
(650,1110,qs),
(653,1127,o),
(649,1160,o),
(643,1175,qs),
(630,1204,o),
(578,1240,o),
(544,1240,qs),
(527,1240,o),
(493,1231,o),
(478,1222,qs),
(446,1204,o),
(401,1145,o),
(395,1110,qs),
(392,1093,o),
(395,1060,o),
(402,1046,q),
(415,1016,o),
(467,980,o),
(501,980,qs)
);
}
);
width = 869;
},
{
layerId = "87233CA6-F023-426F-ADAE-E8786DEFE8CF";
shapes = (
{
closed = 1;
nodes = (
(414,750,o),
(330,774,o),
(293,799,qs),
(221,847,o),
(153,1010,o),
(169,1110,qs),
(177,1159,o),
(217,1248,o),
(248,1290,qs),
(279,1332,o),
(354,1396,o),
(399,1421,qs),
(444,1446,o),
(535,1470,o),
(582,1470,qs),
(631,1470,o),
(714,1446,o),
(751,1422,q),
(822,1373,o),
(892,1210,o),
(875,1110,qs),
(867,1059,o),
(828,970,o),
(797,929,qs),
(735,847,o),
(561,750,o),
(463,750,qs)
);
},
{
closed = 1;
nodes = (
(515,902,o),
(568,916,o),
(594,931,qs),
(645,959,o),
(717,1054,o),
(726,1110,qs),
(731,1138,o),
(726,1190,o),
(716,1214,qs),
(695,1261,o),
(612,1318,o),
(557,1318,qs),
(529,1318,o),
(476,1304,o),
(451,1290,qs),
(400,1261,o),
(328,1166,o),
(319,1110,qs),
(314,1082,o),
(319,1030,o),
(329,1007,qs),
(350,959,o),
(432,902,o),
(488,902,qs)
);
}
);
width = 869;
},
{
layerId = "C35D8726-4A09-4B72-A1E9-09A0D38B7D70";
shapes = (
{
closed = 1;
nodes = (
(414,750,o),
(330,774,o),
(293,799,qs),
(221,847,o),
(153,1010,o),
(169,1110,qs),
(177,1159,o),
(217,1248,o),
(248,1290,qs),
(279,1332,o),
(354,1396,o),
(399,1421,qs),
(444,1446,o),
(535,1470,o),
(582,1470,qs),
(631,1470,o),
(714,1446,o),
(751,1422,q),
(822,1373,o),
(892,1210,o),
(875,1110,qs),
(867,1059,o),
(828,970,o),
(797,929,qs),
(735,847,o),
(561,750,o),
(463,750,qs)
);
},
{
closed = 1;
nodes = (
(513,834,o),
(583,853,o),
(618,872,qs),
(686,910,o),
(780,1035,o),
(793,1110,qs),
(799,1148,o),
(793,1216,o),
(779,1248,qs),
(752,1311,o),
(641,1386,o),
(568,1386,qs),
(531,1386,o),
(461,1368,o),
(427,1349,qs),
(359,1311,o),
(264,1185,o),
(252,1110,qs),
(246,1072,o),
(253,1004,o),
(266,972,qs),
(293,909,o),
(402,834,o),
(476,834,qs)
);
}
);
width = 869;
}
);
unicode = 176;
},
{
glyphname = plusminus;
layers = (
{
layerId = "8DF6C0F1-DE73-4D1F-9C90-51BE488A4B4C";
shapes = (
{
closed = 1;
nodes = (
(482,440,l),
(517,656,l),
(149,656,l),
(184,866,l),
(552,866,l),
(587,1080,l),
(793,1080,l),
(758,866,l),
(1124,866,l),
(1090,656,l),
(723,656,l),
(687,440,l)
);
},
{
closed = 1;
nodes = (
(60,120,l),
(95,330,l),
(1036,330,l),
(1001,120,l)
);
}
);
width = 1159;
},
{
layerId = "87233CA6-F023-426F-ADAE-E8786DEFE8CF";
shapes = (
{
closed = 1;
nodes = (
(514,440,l),
(555,689,l),
(154,689,l),
(178,832,l),
(579,832,l),
(620,1080,l),
(760,1080,l),
(719,832,l),
(1119,832,l),
(1095,689,l),
(695,689,l),
(654,440,l)
);
},
{
closed = 1;
nodes = (
(65,150,l),
(89,293,l),
(1030,293,l),
(1006,150,l)
);
}
);
width = 1159;
},
{
layerId = "C35D8726-4A09-4B72-A1E9-09A0D38B7D70";
shapes = (
{
closed = 1;
nodes = (
(542,440,l),
(588,718,l),
(159,718,l),
(173,802,l),
(602,802,l),
(648,1080,l),
(731,1080,l),
(685,802,l),
(1114,802,l),
(1100,718,l),
(671,718,l),
(625,440,l)
);
},
{
closed = 1;
nodes = (
(69,176,l),
(83,260,l),
(1024,260,l),
(1010,176,l)
);
}
);
width = 1159;
}
);
unicode = 177;
},
{
glyphname = twosuperior;
layers = (
{
layerId = "8DF6C0F1-DE73-4D1F-9C90-51BE488A4B4C";
shapes = (
{
closed = 1;
nodes = (
(188,700,l),
(603,1013,ls),
(664,1060,o),
(719,1101,o),
(719,1188,cs),
(719,1257,o),
(665,1296,o),
(600,1296,cs),
(510,1296,o),
(453,1262,o),
(421,1171,c),
(242,1220,l),
(316,1403,o),
(438,1459,o),
(623,1459,cs),
(766,1459,o),
(903,1363,o),
(903,1206,cs),
(903,1073,o),
(832,966,o),
(726,891,cs),
(458,700,l),
(813,700,l),
(790,540,l),
(162,540,l)
);
}
);
width = 818;
},
{
layerId = "87233CA6-F023-426F-ADAE-E8786DEFE8CF";
shapes = (
{
closed = 1;
nodes = (
(144,657,l),
(565,990,l),
(631,1042,o),
(704,1100,o),
(704,1195,cs),
(704,1293,o),
(614,1341,o),
(528,1343,c),
(431,1343,o),
(361,1292,o),
(330,1197,c),
(204,1237,l),
(261,1395,o),
(376,1463,o),
(535,1463,cs),
(680,1463,o),
(836,1370,o),
(836,1205,cs),
(836,1077,o),
(754,979,o),
(656,905,cs),
(330,657,l),
(739,657,l),
(722,540,l),
(125,540,l)
);
}
);
width = 789;
},
{
layerId = "C35D8726-4A09-4B72-A1E9-09A0D38B7D70";
shapes = (
{
closed = 1;
nodes = (
(181,619,l),
(606,969,ls),
(677,1028,o),
(764,1099,o),
(764,1201,cs),
(764,1324,o),
(644,1381,o),
(540,1384,c),
(436,1384,o),
(355,1320,o),
(325,1218,c),
(245,1250,l),
(287,1387,o),
(395,1466,o),
(534,1466,cs),
(680,1466,o),
(852,1376,o),
(852,1205,cs),
(852,1079,o),
(760,990,o),
(670,916,cs),
(294,619,l),
(750,619,l),
(738,540,l),
(168,540,l)
);
}
);
width = 764;
}
);
unicode = 178;
},
{
glyphname = threesuperior;
layers = (
{
layerId = "8DF6C0F1-DE73-4D1F-9C90-51BE488A4B4C";
shapes = (
{
closed = 1;
nodes = (
(330,517,o),
(190,599,o),
(187,813,c),
(364,838,l),
(364,742,o),
(406,676,o),
(520,676,cs),
(608,676,o),
(691,743,o),
(691,839,cs),
(691,878,o),
(677,906,o),
(652,921,cs),
(628,939,o),
(593,946,o),
(558,946,cs),
(449,946,l),
(470,1080,l),
(697,1281,l),
(306,1281,l),
(331,1440,l),
(925,1440,l),
(900,1281,l),
(665,1076,l),
(780,1060,o),
(870,1006,o),
(870,874,cs),
(870,653,o),
(695,517,o),
(491,517,cs)
);
}
);
width = 853;
},
{
layerId = "87233CA6-F023-426F-ADAE-E8786DEFE8CF";
shapes = (
{
closed = 1;
nodes = (
(285,518,o),
(152,605,o),
(144,807,c),
(271,823,l),
(280,702,o),
(345,635,o),
(469,634,c),
(579,634,o),
(671,713,o),
(671,831,cs),
(671,873,o),
(656,907,o),
(630,932,cs),
(604,957,o),
(560,970,o),
(506,971,c),
(413,971,l),
(428,1073,l),
(691,1323,l),
(273,1323,l),
(292,1440,l),
(858,1440,l),
(840,1323,l),
(569,1069,l),
(697,1057,o),
(800,997,o),
(800,853,cs),
(800,649,o),
(646,518,o),
(455,518,cs)
);
}
);
width = 824;
},
{
layerId = "C35D8726-4A09-4B72-A1E9-09A0D38B7D70";
shapes = (
{
closed = 1;
nodes = (
(322,519,o),
(194,611,o),
(182,802,c),
(264,809,l),
(281,667,o),
(365,600,o),
(500,598,cs),
(628,598,o),
(728,688,o),
(728,824,cs),
(728,868,o),
(714,907,o),
(686,941,cs),
(657,974,o),
(607,992,o),
(535,993,cs),
(457,994,l),
(467,1066,l),
(762,1361,l),
(320,1361,l),
(332,1440,l),
(875,1440,l),
(861,1361,l),
(562,1063,l),
(699,1054,o),
(812,990,o),
(812,834,cs),
(812,646,o),
(678,519,o),
(499,519,cs)
);
}
);
width = 799;
}
);
unicode = 179;
},
{
glyphname = acute;
layers = (
{
layerId = "8DF6C0F1-DE73-4D1F-9C90-51BE488A4B4C";
shapes = (
{
closed = 1;
nodes = (
(749,1980,l),
(1001,1980,l),
(774,1590,l),
(607,1590,l)
);
}
);
width = 1033;
},
{
layerId = "87233CA6-F023-426F-ADAE-E8786DEFE8CF";
shapes = (
{
closed = 1;
nodes = (
(707,1932,l),
(875,1932,l),
(695,1606,l),
(582,1606,l)
);
}
);
width = 932;
},
{
layerId = "C35D8726-4A09-4B72-A1E9-09A0D38B7D70";
shapes = (
{
closed = 1;
nodes = (
(670,1890,l),
(764,1890,l),
(625,1620,l),
(560,1620,l)
);
}
);
width = 843;
}
);
unicode = 180;
},
{
glyphname = paragraph;
layers = (
{
layerId = "8DF6C0F1-DE73-4D1F-9C90-51BE488A4B4C";
shapes = (
{
closed = 1;
nodes = (
(533,-282,l),
(661,488,l),
(567,488,ls),
(564,488,o),
(543,488,o),
(526,489,qs),
(509,490,o),
(471,493,o),
(450,496,qs),
(390,505,o),
(296,547,o),
(260,579,q),
(190,645,o),
(143,843,o),
(163,964,qs),
(173,1024,o),
(211,1132,o),
(239,1183,qs),
(294,1283,o),
(475,1414,o),
(605,1432,qs),
(626,1435,o),
(666,1438,o),
(699,1440,o),
(721,1440,o),
(724,1440,qs),
(1085,1440,l),
(800,-282,l)
);
},
{
closed = 1;
nodes = (
(988,-282,l),
(1273,1440,l),
(1540,1440,l),
(1255,-282,l)
);
}
);
width = 1443;
},
{
layerId = "87233CA6-F023-426F-ADAE-E8786DEFE8CF";
shapes = (
{
closed = 1;
nodes = (
(545,-282,l),
(681,535,l),
(592,535,ls),
(585,535,o),
(564,535,o),
(551,536,qs),
(537,537,o),
(507,540,o),
(490,543,qs),
(435,551,o),
(348,592,o),
(314,623,qs),
(246,686,o),
(197,873,o),
(216,987,qs),
(225,1044,o),
(263,1147,o),
(291,1195,qs),
(346,1290,o),
(520,1415,o),
(637,1432,qs),
(654,1435,o),
(686,1438,o),
(713,1439,o),
(735,1440,o),
(742,1440,qs),
(999,1440,l),
(714,-282,l)
);
},
{
closed = 1;
nodes = (
(862,-282,l),
(1147,1440,l),
(1315,1440,l),
(1030,-282,l)
);
}
);
width = 1267;
},
{
layerId = "C35D8726-4A09-4B72-A1E9-09A0D38B7D70";
shapes = (
{
closed = 1;
nodes = (
(556,-282,l),
(698,576,l),
(614,576,ls),
(603,576,o),
(582,577,o),
(572,578,qs),
(561,579,o),
(538,582,o),
(525,584,qs),
(475,592,o),
(393,631,o),
(361,661,qs),
(295,721,o),
(244,899,o),
(262,1008,qs),
(271,1062,o),
(308,1161,o),
(336,1206,qs),
(392,1297,o),
(559,1415,o),
(665,1432,q),
(679,1435,o),
(703,1438,o),
(725,1439,o),
(747,1440,o),
(757,1440,qs),
(923,1440,l),
(638,-282,l)
);
},
{
closed = 1;
nodes = (
(752,-282,l),
(1037,1440,l),
(1119,1440,l),
(834,-282,l)
);
}
);
width = 1113;
}
);
unicode = 182;
},
{
glyphname = periodcentered;
layers = (
{
layerId = "8DF6C0F1-DE73-4D1F-9C90-51BE488A4B4C";
shapes = (
{
closed = 1;
nodes = (
(245,470,o),
(191,493,o),
(173,516,q),
(153,539,o),
(139,595,o),
(144,630,qs),
(150,665,o),
(183,722,o),
(211,745,qs),
(237,768,o),
(297,790,o),
(332,790,qs),
(363,790,o),
(413,768,o),
(432,745,qs),
(451,722,o),
(464,665,o),
(458,630,qs),
(452,595,o),
(420,539,o),
(394,516,qs),
(368,493,o),
(310,470,o),
(279,470,qs)
);
}
);
width = 532;
},
{
layerId = "87233CA6-F023-426F-ADAE-E8786DEFE8CF";
shapes = (
{
closed = 1;
nodes = (
(218,513,o),
(179,530,o),
(166,546,qs),
(151,563,o),
(141,605,o),
(144,630,qs),
(148,655,o),
(173,698,o),
(193,715,qs),
(213,731,o),
(256,747,o),
(282,747,qs),
(305,747,o),
(342,731,o),
(355,715,qs),
(369,698,o),
(379,655,o),
(374,630,qs),
(370,605,o),
(346,563,o),
(327,546,qs),
(308,530,o),
(266,513,o),
(243,513,qs)
);
}
);
width = 448;
},
{
layerId = "C35D8726-4A09-4B72-A1E9-09A0D38B7D70";
shapes = (
{
closed = 1;
nodes = (
(195,550,o),
(169,562,o),
(159,573,qs),
(149,584,o),
(142,613,o),
(144,630,qs),
(147,647,o),
(164,677,o),
(178,688,qs),
(192,699,o),
(221,710,o),
(238,710,qs),
(254,710,o),
(279,699,o),
(288,688,qs),
(297,677,o),
(304,647,o),
(301,630,qs),
(298,613,o),
(282,584,o),
(269,573,qs),
(256,562,o),
(228,550,o),
(212,550,qs)
);
}
);
width = 375;
}
);
unicode = 183;
},
{
glyphname = cedilla;
layers = (
{
layerId = "8DF6C0F1-DE73-4D1F-9C90-51BE488A4B4C";
shapes = (
{
closed = 1;
nodes = (
(167,-484,o),
(102,-462,o),
(76,-446,q),
(158,-290,l),
(177,-296,o),
(204,-302,o),
(215,-302,qs),
(241,-302,o),
(275,-272,o),
(278,-256,qs),
(281,-238,o),
(266,-211,o),
(249,-203,qs),
(231,-194,o),
(189,-178,o),
(164,-170,q),
(267,34,l),
(422,36,l),
(369,-72,l),
(422,-102,o),
(468,-197,o),
(457,-262,qs),
(449,-312,o),
(404,-392,o),
(367,-423,qs),
(331,-454,o),
(251,-484,o),
(208,-484,qs)
);
}
);
width = 787;
},
{
layerId = "87233CA6-F023-426F-ADAE-E8786DEFE8CF";
shapes = (
{
closed = 1;
nodes = (
(161,-481,o),
(100,-462,o),
(75,-448,q),
(135,-336,l),
(156,-344,o),
(190,-352,o),
(205,-352,qs),
(240,-352,o),
(287,-307,o),
(291,-281,qs),
(295,-258,o),
(280,-227,o),
(262,-217,qs),
(244,-207,o),
(202,-190,o),
(178,-182,q),
(284,23,l),
(400,24,l),
(331,-109,l),
(381,-135,o),
(432,-220,o),
(421,-285,qs),
(414,-328,o),
(374,-398,o),
(341,-426,qs),
(308,-453,o),
(236,-481,o),
(197,-481,qs)
);
}
);
width = 753;
},
{
layerId = "C35D8726-4A09-4B72-A1E9-09A0D38B7D70";
shapes = (
{
closed = 1;
nodes = (
(156,-478,o),
(99,-462,o),
(75,-450,q),
(115,-376,l),
(138,-386,o),
(178,-396,o),
(196,-396,qs),
(240,-396,o),
(297,-338,o),
(303,-302,qs),
(307,-276,o),
(293,-241,o),
(274,-230,qs),
(255,-219,o),
(213,-200,o),
(190,-192,q),
(299,14,l),
(381,14,l),
(298,-142,l),
(345,-163,o),
(400,-241,o),
(389,-306,qs),
(383,-342,o),
(347,-403,o),
(318,-428,qs),
(288,-453,o),
(223,-478,o),
(188,-478,qs)
);
}
);
width = 723;
}
);
unicode = 184;
},
{
glyphname = onesuperior;
layers = (
{
layerId = "8DF6C0F1-DE73-4D1F-9C90-51BE488A4B4C";
shapes = (
{
closed = 1;
nodes = (
(408,540,l),
(516,1261,l),
(336,1159,l),
(281,1288,l),
(547,1440,l),
(712,1440,l),
(574,540,l)
);
}
);
width = 726;
},
{
layerId = "87233CA6-F023-426F-ADAE-E8786DEFE8CF";
shapes = (
{
closed = 1;
nodes = (
(348,540,l),
(464,1308,l),
(284,1205,l),
(244,1302,l),
(486,1440,l),
(605,1440,l),
(469,540,l)
);
}
);
width = 661;
},
{
layerId = "C35D8726-4A09-4B72-A1E9-09A0D38B7D70";
shapes = (
{
closed = 1;
nodes = (
(369,540,l),
(493,1349,l),
(313,1246,l),
(286,1314,l),
(507,1440,l),
(587,1440,l),
(450,540,l)
);
}
);
width = 602;
}
);
unicode = 185;
},
{
glyphname = ordmasculine;
layers = (
{
layerId = "8DF6C0F1-DE73-4D1F-9C90-51BE488A4B4C";
shapes = (
{
closed = 1;
nodes = (
(910,480,l),
(933,618,l),
(149,618,l),
(126,480,l)
);
},
{
closed = 1;
nodes = (
(785,710,o),
(952,875,o),
(988,1090,cs),
(1025,1311,o),
(904,1470,o),
(683,1470,cs),
(456,1470,o),
(289,1304,o),
(254,1090,cs),
(217,869,o),
(337,710,o),
(558,710,cs)
);
},
{
closed = 1;
nodes = (
(470,901,o),
(440,990,o),
(457,1090,cs),
(474,1194,o),
(533,1279,o),
(652,1279,cs),
(773,1279,o),
(802,1192,o),
(785,1090,cs),
(768,989,o),
(708,901,o),
(589,901,cs)
);
}
);
width = 847;
},
{
layerId = "87233CA6-F023-426F-ADAE-E8786DEFE8CF";
shapes = (
{
closed = 1;
nodes = (
(857,501,l),
(874,606,l),
(153,606,l),
(136,501,l)
);
},
{
closed = 1;
nodes = (
(755,710,o),
(900,880,o),
(935,1091,cs),
(971,1307,o),
(874,1470,o),
(655,1470,cs),
(431,1470,o),
(285,1300,o),
(251,1091,cs),
(215,874,o),
(311,710,o),
(530,710,cs)
);
},
{
closed = 1;
nodes = (
(397,833,o),
(357,953,o),
(380,1091,cs),
(403,1232,o),
(484,1347,o),
(635,1347,cs),
(792,1347,o),
(829,1231,o),
(806,1091,cs),
(783,954,o),
(706,833,o),
(550,833,cs)
);
}
);
width = 787;
},
{
layerId = "C35D8726-4A09-4B72-A1E9-09A0D38B7D70";
shapes = (
{
closed = 1;
nodes = (
(810,520,l),
(823,596,l),
(156,596,l),
(144,520,l)
);
},
{
closed = 1;
nodes = (
(729,710,o),
(854,885,o),
(888,1091,cs),
(923,1304,o),
(847,1470,o),
(631,1470,cs),
(409,1470,o),
(282,1296,o),
(248,1091,cs),
(213,878,o),
(289,710,o),
(505,710,cs)
);
},
{
closed = 1;
nodes = (
(333,773,o),
(284,920,o),
(312,1091,cs),
(341,1266,o),
(441,1407,o),
(621,1407,cs),
(808,1407,o),
(853,1265,o),
(824,1091,cs),
(796,923,o),
(704,773,o),
(516,773,cs)
);
}
);
width = 735;
}
);
unicode = 186;
},
{
glyphname = guillemotright;
layers = (
{
layerId = "8DF6C0F1-DE73-4D1F-9C90-51BE488A4B4C";
shapes = (
{
closed = 1;
nodes = (
(195,94,l),
(616,540,l),
(343,986,l),
(185,874,l),
(390,540,l),
(74,206,l)
);
},
{
closed = 1;
nodes = (
(616,94,l),
(1037,540,l),
(764,986,l),
(606,874,l),
(812,540,l),
(496,206,l)
);
}
);
width = 1162;
},
{
layerId = "87233CA6-F023-426F-ADAE-E8786DEFE8CF";
shapes = (
{
closed = 1;
nodes = (
(165,104,l),
(578,541,l),
(309,977,l),
(199,900,l),
(420,541,l),
(80,181,l)
);
},
{
closed = 1;
nodes = (
(518,104,l),
(931,541,l),
(663,977,l),
(552,900,l),
(774,541,l),
(434,181,l)
);
}
);
width = 1055;
},
{
layerId = "C35D8726-4A09-4B72-A1E9-09A0D38B7D70";
shapes = (
{
closed = 1;
nodes = (
(138,112,l),
(544,542,l),
(280,970,l),
(211,922,l),
(446,542,l),
(85,160,l)
);
},
{
closed = 1;
nodes = (
(432,112,l),
(838,542,l),
(574,970,l),
(505,922,l),
(740,542,l),
(379,160,l)
);
}
);
width = 962;
}
);
unicode = 187;
},
{
glyphname = onequarter;
layers = (
{
layerId = "8DF6C0F1-DE73-4D1F-9C90-51BE488A4B4C";
shapes = (
{
closed = 1;
nodes = (
(605,-1,l),
(474,114,l),
(1608,1454,l),
(1738,1337,l)
);
},
{
closed = 1;
nodes = (
(1613,0,l),
(1636,153,l),
(1225,153,l),
(1249,310,l),
(1613,900,l),
(1795,900,l),
(1431,310,l),
(1661,310,l),
(1702,581,l),
(1868,581,l),
(1826,310,l),
(1911,310,l),
(1887,153,l),
(1802,153,l),
(1779,0,l)
);
},
{
closed = 1;
nodes = (
(420,540,l),
(527,1261,l),
(348,1159,l),
(293,1288,l),
(559,1440,l),
(724,1440,l),
(586,540,l)
);
}
);
width = 2009;
},
{
layerId = "87233CA6-F023-426F-ADAE-E8786DEFE8CF";
shapes = (
{
closed = 1;
nodes = (
(413,-1,l),
(319,85,l),
(1522,1447,l),
(1615,1360,l)
);
},
{
closed = 1;
nodes = (
(1475,0,l),
(1500,168,l),
(1065,168,l),
(1082,283,l),
(1462,900,l),
(1594,900,l),
(1215,283,l),
(1518,283,l),
(1564,581,l),
(1684,581,l),
(1639,283,l),
(1723,283,l),
(1705,168,l),
(1620,168,l),
(1595,0,l)
);
},
{
closed = 1;
nodes = (
(372,540,l),
(488,1308,l),
(308,1205,l),
(268,1302,l),
(510,1440,l),
(629,1440,l),
(493,540,l)
);
}
);
width = 1879;
},
{
layerId = "C35D8726-4A09-4B72-A1E9-09A0D38B7D70";
shapes = (
{
closed = 1;
nodes = (
(321,-1,l),
(258,60,l),
(1522,1441,l),
(1582,1381,l)
);
},
{
closed = 1;
nodes = (
(1429,0,l),
(1457,182,l),
(1001,182,l),
(1012,260,l),
(1406,900,l),
(1494,900,l),
(1102,260,l),
(1468,260,l),
(1519,581,l),
(1599,581,l),
(1550,260,l),
(1634,260,l),
(1622,182,l),
(1537,182,l),
(1509,0,l)
);
},
{
closed = 1;
nodes = (
(405,540,l),
(529,1349,l),
(349,1246,l),
(322,1314,l),
(543,1440,l),
(623,1440,l),
(486,540,l)
);
}
);
width = 1765;
}
);
unicode = 188;
},
{
glyphname = onehalf;
layers = (
{
layerId = "8DF6C0F1-DE73-4D1F-9C90-51BE488A4B4C";
shapes = (
{
closed = 1;
nodes = (
(547,-1,l),
(416,114,l),
(1550,1454,l),
(1680,1337,l)
);
},
{
closed = 1;
nodes = (
(1276,0,l),
(1301,160,l),
(1716,484,ls),
(1772,529,o),
(1829,572,o),
(1829,654,cs),
(1829,732,o),
(1760,759,o),
(1694,759,cs),
(1619,759,o),
(1563,706,o),
(1539,636,c),
(1365,684,l),
(1428,832,o),
(1538,917,o),
(1695,917,cs),
(1845,917,o),
(2004,851,o),
(2004,673,cs),
(2004,539,o),
(1936,443,o),
(1834,366,cs),
(1562,160,l),
(1928,160,l),
(1902,0,l)
);
},
{
closed = 1;
nodes = (
(359,540,l),
(466,1261,l),
(287,1159,l),
(232,1288,l),
(498,1440,l),
(663,1440,l),
(525,540,l)
);
}
);
width = 1989;
},
{
layerId = "87233CA6-F023-426F-ADAE-E8786DEFE8CF";
shapes = (
{
closed = 1;
nodes = (
(351,-1,l),
(257,85,l),
(1460,1447,l),
(1553,1360,l)
);
},
{
closed = 1;
nodes = (
(1093,0,l),
(1110,117,l),
(1530,462,ls),
(1593,515,o),
(1665,578,o),
(1665,669,cs),
(1665,765,o),
(1578,800,o),
(1497,801,c),
(1403,801,o),
(1332,739,o),
(1302,649,c),
(1178,683,l),
(1233,829,o),
(1346,917,o),
(1499,917,cs),
(1641,917,o),
(1792,849,o),
(1792,683,cs),
(1792,551,o),
(1713,460,o),
(1618,383,cs),
(1291,117,l),
(1707,117,l),
(1689,0,l)
);
},
{
closed = 1;
nodes = (
(306,540,l),
(422,1308,l),
(242,1205,l),
(202,1302,l),
(444,1440,l),
(563,1440,l),
(427,540,l)
);
}
);
width = 1824;
},
{
layerId = "C35D8726-4A09-4B72-A1E9-09A0D38B7D70";
shapes = (
{
closed = 1;
nodes = (
(251,-1,l),
(188,60,l),
(1452,1441,l),
(1512,1381,l)
);
},
{
closed = 1;
nodes = (
(1004,0,l),
(1014,79,l),
(1438,443,ls),
(1508,502,o),
(1593,583,o),
(1593,683,cs),
(1593,793,o),
(1489,836,o),
(1396,838,c),
(1285,838,o),
(1200,768,o),
(1166,660,c),
(1086,682,l),
(1133,827,o),
(1249,917,o),
(1398,917,cs),
(1533,917,o),
(1678,848,o),
(1678,692,cs),
(1678,561,o),
(1589,474,o),
(1500,397,cs),
(1125,79,l),
(1584,79,l),
(1573,0,l)
);
},
{
closed = 1;
nodes = (
(337,540,l),
(461,1349,l),
(281,1246,l),
(254,1314,l),
(475,1440,l),
(555,1440,l),
(418,540,l)
);
}
);
width = 1679;
}
);
unicode = 189;
},
{
glyphname = threequarters;
layers = (
{
layerId = "8DF6C0F1-DE73-4D1F-9C90-51BE488A4B4C";
shapes = (
{
closed = 1;
nodes = (
(678,-1,l),
(546,114,l),
(1678,1454,l),
(1809,1337,l)
);
},
{
closed = 1;
nodes = (
(1669,0,l),
(1692,153,l),
(1283,153,l),
(1306,310,l),
(1669,900,l),
(1852,900,l),
(1489,310,l),
(1717,310,l),
(1758,581,l),
(1925,581,l),
(1884,310,l),
(1968,310,l),
(1943,153,l),
(1859,153,l),
(1835,0,l)
);
},
{
closed = 1;
nodes = (
(282,517,o),
(142,599,o),
(139,813,c),
(316,838,l),
(316,742,o),
(358,676,o),
(472,676,cs),
(560,676,o),
(643,743,o),
(643,839,cs),
(643,878,o),
(629,906,o),
(604,921,c),
(580,939,o),
(545,946,o),
(510,946,cs),
(401,946,l),
(422,1080,l),
(649,1281,l),
(258,1281,l),
(283,1440,l),
(877,1440,l),
(852,1281,l),
(617,1076,l),
(732,1060,o),
(822,1006,o),
(822,874,cs),
(822,653,o),
(647,517,o),
(443,517,cs)
);
}
);
width = 1992;
},
{
layerId = "87233CA6-F023-426F-ADAE-E8786DEFE8CF";
shapes = (
{
closed = 1;
nodes = (
(515,-1,l),
(420,85,l),
(1622,1447,l),
(1716,1360,l)
);
},
{
closed = 1;
nodes = (
(1570,0,l),
(1597,168,l),
(1163,168,l),
(1179,283,l),
(1559,900,l),
(1692,900,l),
(1312,283,l),
(1615,283,l),
(1659,581,l),
(1781,581,l),
(1735,283,l),
(1820,283,l),
(1802,168,l),
(1718,168,l),
(1691,0,l)
);
},
{
closed = 1;
nodes = (
(244,518,o),
(111,605,o),
(103,807,c),
(230,823,l),
(239,702,o),
(304,635,o),
(428,634,c),
(538,634,o),
(630,713,o),
(630,831,cs),
(630,873,o),
(615,907,o),
(589,932,cs),
(563,957,o),
(519,970,o),
(465,971,c),
(372,971,l),
(387,1073,l),
(650,1323,l),
(232,1323,l),
(251,1440,l),
(817,1440,l),
(799,1323,l),
(528,1069,l),
(656,1057,o),
(759,997,o),
(759,853,cs),
(759,649,o),
(605,518,o),
(414,518,cs)
);
}
);
width = 1892;
},
{
layerId = "C35D8726-4A09-4B72-A1E9-09A0D38B7D70";
shapes = (
{
closed = 1;
nodes = (
(447,-1,l),
(384,60,l),
(1647,1441,l),
(1709,1381,l)
);
},
{
closed = 1;
nodes = (
(1558,0,l),
(1587,182,l),
(1131,182,l),
(1142,260,l),
(1537,900,l),
(1626,900,l),
(1231,260,l),
(1599,260,l),
(1647,581,l),
(1729,581,l),
(1679,260,l),
(1764,260,l),
(1752,182,l),
(1668,182,l),
(1639,0,l)
);
},
{
closed = 1;
nodes = (
(286,519,o),
(158,611,o),
(146,802,c),
(228,809,l),
(245,667,o),
(329,599,o),
(464,598,cs),
(592,597,o),
(692,688,o),
(692,824,cs),
(692,868,o),
(679,907,o),
(650,941,cs),
(622,974,o),
(571,992,o),
(499,993,cs),
(421,994,l),
(431,1066,l),
(726,1361,l),
(284,1361,l),
(296,1440,l),
(839,1440,l),
(825,1361,l),
(526,1063,l),
(663,1054,o),
(776,990,o),
(776,834,cs),
(776,646,o),
(642,519,o),
(463,519,cs)
);
}
);
width = 1804;
}
);
unicode = 190;
},
{
glyphname = questiondown;
leftMetricsKey = "|question";
widthMetricsKey = question;
layers = (
{
layerId = "8DF6C0F1-DE73-4D1F-9C90-51BE488A4B4C";
shapes = (
{
closed = 1;
nodes = (
(532,689,l),
(824,689,l),
(797,521,ls),
(755,264,o),
(321,295,o),
(321,37,cs),
(321,-59,o),
(404,-130,o),
(552,-130,cs),
(730,-130,o),
(836,-26,o),
(889,134,c),
(1167,91,l),
(1047,-256,o),
(774,-390,o),
(482,-390,cs),
(186,-390,o),
(15,-255,o),
(15,-11,cs),
(15,507,o),
(479,369,o),
(525,646,cs)
);
},
{
closed = 1;
nodes = (
(821,1102,o),
(874,1048,o),
(874,972,cs),
(874,872,o),
(791,786,o),
(690,786,cs),
(612,786,o),
(559,839,o),
(559,915,cs),
(559,1015,o),
(642,1102,o),
(743,1102,cs)
);
}
);
width = 1313;
},
{
layerId = "87233CA6-F023-426F-ADAE-E8786DEFE8CF";
shapes = (
{
closed = 1;
nodes = (
(528,702,l),
(705,702,l),
(688,595,ls),
(622,210,o),
(199,312,o),
(199,-25,cs),
(199,-157,o),
(297,-229,o),
(456,-229,cs),
(637,-229,o),
(768,-130,o),
(809,51,c),
(976,30,l),
(901,-259,o),
(672,-390,o),
(415,-390,cs),
(169,-390,o),
(15,-271,o),
(15,-54,cs),
(15,422,o),
(461,290,o),
(519,647,cs)
);
},
{
closed = 1;
nodes = (
(734,1093,o),
(772,1055,o),
(772,1002,cs),
(772,932,o),
(714,872,o),
(643,872,cs),
(589,872,o),
(551,909,o),
(551,962,cs),
(551,1031,o),
(610,1093,o),
(680,1093,cs)
);
}
);
width = 1131;
},
{
layerId = "C35D8726-4A09-4B72-A1E9-09A0D38B7D70";
shapes = (
{
closed = 1;
nodes = (
(526,712,l),
(617,712,l),
(607,650,ls),
(528,168,o),
(108,324,o),
(108,-74,cs),
(108,-230,o),
(218,-304,o),
(384,-304,cs),
(568,-304,o),
(717,-208,o),
(750,-11,c),
(834,-15,l),
(793,-261,o),
(597,-390,o),
(366,-390,cs),
(157,-390,o),
(17,-284,o),
(17,-86,cs),
(17,357,o),
(448,237,o),
(515,648,cs)
);
},
{
closed = 1;
nodes = (
(671,1086,o),
(696,1060,o),
(696,1024,cs),
(696,977,o),
(656,936,o),
(609,936,cs),
(571,936,o),
(546,962,o),
(546,998,cs),
(546,1044,o),
(587,1086,o),
(634,1086,cs)
);
}
);
width = 997;
}
);
unicode = 191;
},
{
glyphname = Agrave;
layers = (
{
layerId = "8DF6C0F1-DE73-4D1F-9C90-51BE488A4B4C";
shapes = (
{
closed = 1;
nodes = (
(901,1590,l),
(734,1590,l),
(636,1980,l),
(888,1980,l)
);
},
{
closed = 1;
nodes = (
(953,0,l),
(785,1270,l),
(836,1270,l),
(242,0,l),
(-33,0,l),
(637,1440,l),
(1035,1440,l),
(1228,0,l)
);
},
{
closed = 1;
nodes = (
(274,300,l),
(316,554,l),
(1061,554,l),
(1019,300,l)
);
}
);
width = 1333;
},
{
layerId = "87233CA6-F023-426F-ADAE-E8786DEFE8CF";
shapes = (
{
closed = 1;
nodes = (
(851,1606,l),
(739,1606,l),
(667,1932,l),
(835,1932,l)
);
},
{
closed = 1;
nodes = (
(975,0,l),
(755,1340,l),
(810,1340,l),
(143,0,l),
(-33,0,l),
(681,1440,l),
(914,1440,l),
(1151,0,l)
);
},
{
closed = 1;
nodes = (
(249,339,l),
(276,501,l),
(1008,501,l),
(982,339,l)
);
}
);
width = 1256;
},
{
layerId = "C35D8726-4A09-4B72-A1E9-09A0D38B7D70";
shapes = (
{
closed = 1;
nodes = (
(808,1620,l),
(743,1620,l),
(694,1890,l),
(788,1890,l)
);
},
{
closed = 1;
nodes = (
(994,0,l),
(729,1402,l),
(787,1402,l),
(56,0,l),
(-33,0,l),
(719,1440,l),
(808,1440,l),
(1083,0,l)
);
},
{
closed = 1;
nodes = (
(227,374,l),
(241,454,l),
(962,454,l),
(949,374,l)
);
}
);
width = 1188;
}
);
leftKerningGroup = A2;
rightKerningGroup = A;
unicode = 192;
},
{
glyphname = Aacute;
layers = (
{
layerId = "8DF6C0F1-DE73-4D1F-9C90-51BE488A4B4C";
shapes = (
{
closed = 1;
nodes = (
(963,1980,l),
(1214,1980,l),
(987,1590,l),
(821,1590,l)
);
},
{
closed = 1;
nodes = (
(-33,0,l),
(637,1440,l),
(1035,1440,l),
(1228,0,l),
(953,0,l),
(779,1270,l),
(830,1270,l),
(242,0,l)
);
},
{
closed = 1;
nodes = (
(276,300,l),
(318,554,l),
(1063,554,l),
(1021,300,l)
);
}
);
width = 1333;
},
{
layerId = "87233CA6-F023-426F-ADAE-E8786DEFE8CF";
shapes = (
{
closed = 1;
nodes = (
(923,1932,l),
(1090,1932,l),
(910,1606,l),
(799,1606,l)
);
},
{
closed = 1;
nodes = (
(-33,0,l),
(681,1440,l),
(914,1440,l),
(1151,0,l),
(975,0,l),
(751,1340,l),
(807,1340,l),
(143,0,l)
);
},
{
closed = 1;
nodes = (
(249,339,l),
(276,501,l),
(1008,501,l),
(982,339,l)
);
}
);
width = 1256;
},
{
layerId = "C35D8726-4A09-4B72-A1E9-09A0D38B7D70";
shapes = (
{
closed = 1;
nodes = (
(888,1890,l),
(982,1890,l),
(843,1620,l),
(779,1620,l)
);
},
{
closed = 1;
nodes = (
(-33,0,l),
(719,1440,l),
(808,1440,l),
(1083,0,l),
(994,0,l),
(727,1402,l),
(786,1402,l),
(56,0,l)
);
},
{
closed = 1;
nodes = (
(225,374,l),
(239,454,l),
(960,454,l),
(947,374,l)
);
}
);
width = 1188;
}
);
leftKerningGroup = A2;
rightKerningGroup = A;
unicode = 193;
},
{
glyphname = Acircumflex;
layers = (
{
layerId = "8DF6C0F1-DE73-4D1F-9C90-51BE488A4B4C";
shapes = (
{
closed = 1;
nodes = (
(466,1590,l),
(803,1920,l),
(1022,1920,l),
(1250,1590,l),
(1005,1590,l),
(888,1770,l),
(711,1590,l)
);
},
{
closed = 1;
nodes = (
(-33,0,l),
(637,1440,l),
(1035,1440,l),
(1228,0,l),
(953,0,l),
(779,1270,l),
(830,1270,l),
(242,0,l)
);
},
{
closed = 1;
nodes = (
(276,300,l),
(318,554,l),
(1063,554,l),
(1021,300,l)
);
}
);
width = 1333;
},
{
layerId = "87233CA6-F023-426F-ADAE-E8786DEFE8CF";
shapes = (
{
closed = 1;
nodes = (
(512,1606,l),
(796,1888,l),
(946,1888,l),
(1135,1606,l),
(969,1606,l),
(853,1781,l),
(679,1606,l)
);
},
{
closed = 1;
nodes = (
(-33,0,l),
(681,1440,l),
(914,1440,l),
(1151,0,l),
(975,0,l),
(751,1340,l),
(807,1340,l),
(143,0,l)
);
},
{
closed = 1;
nodes = (
(249,339,l),
(276,501,l),
(1008,501,l),
(982,339,l)
);
}
);
width = 1256;
},
{
layerId = "C35D8726-4A09-4B72-A1E9-09A0D38B7D70";
shapes = (
{
closed = 1;
nodes = (
(553,1620,l),
(789,1860,l),
(879,1860,l),
(1035,1620,l),
(937,1620,l),
(822,1790,l),
(651,1620,l)
);
},
{
closed = 1;
nodes = (
(-33,0,l),
(719,1440,l),
(808,1440,l),
(1083,0,l),
(994,0,l),
(727,1402,l),
(786,1402,l),
(56,0,l)
);
},
{
closed = 1;
nodes = (
(225,374,l),
(239,454,l),
(960,454,l),
(947,374,l)
);
}
);
width = 1188;
}
);
leftKerningGroup = A2;
rightKerningGroup = A;
unicode = 194;
},
{
glyphname = Atilde;
layers = (
{
layerId = "8DF6C0F1-DE73-4D1F-9C90-51BE488A4B4C";
shapes = (
{
closed = 1;
nodes = (
(992,1646,o),
(913,1691,o),
(877,1720,qs),
(842,1749,o),
(781,1794,o),
(752,1794,qs),
(737,1794,o),
(715,1778,o),
(707,1761,qs),
(698,1744,o),
(691,1702,o),
(694,1676,q),
(529,1676,l),
(524,1742,o),
(549,1852,o),
(579,1898,qs),
(608,1943,o),
(697,1988,o),
(759,1988,qs),
(807,1988,o),
(887,1943,o),
(922,1914,qs),
(957,1885,o),
(1018,1840,o),
(1046,1840,qs),
(1075,1840,o),
(1110,1907,o),
(1105,1958,q),
(1270,1958,l),
(1275,1892,o),
(1250,1783,o),
(1221,1737,qs),
(1192,1691,o),
(1102,1646,o),
(1040,1646,qs)
);
},
{
closed = 1;
nodes = (
(-33,0,l),
(637,1440,l),
(1035,1440,l),
(1228,0,l),
(953,0,l),
(779,1270,l),
(830,1270,l),
(242,0,l)
);
},
{
closed = 1;
nodes = (
(276,300,l),
(318,554,l),
(1063,554,l),
(1021,300,l)
);
}
);
width = 1333;
},
{
layerId = "87233CA6-F023-426F-ADAE-E8786DEFE8CF";
shapes = (
{
closed = 1;
nodes = (
(943,1659,o),
(869,1695,o),
(835,1719,qs),
(802,1743,o),
(742,1779,o),
(712,1779,qs),
(693,1779,o),
(669,1764,o),
(661,1748,qs),
(653,1732,o),
(646,1698,o),
(649,1678,q),
(535,1678,l),
(531,1728,o),
(553,1810,o),
(580,1845,qs),
(605,1878,o),
(676,1912,o),
(723,1912,qs),
(766,1912,o),
(841,1876,o),
(875,1852,qs),
(908,1828,o),
(968,1792,o),
(997,1792,qs),
(1031,1792,o),
(1067,1853,o),
(1061,1895,q),
(1176,1895,l),
(1180,1846,o),
(1158,1764,o),
(1132,1729,qs),
(1106,1694,o),
(1033,1659,o),
(986,1659,qs)
);
},
{
closed = 1;
nodes = (
(-33,0,l),
(681,1440,l),
(914,1440,l),
(1151,0,l),
(975,0,l),
(751,1340,l),
(807,1340,l),
(143,0,l)
);
},
{
closed = 1;
nodes = (
(249,339,l),
(276,501,l),
(1008,501,l),
(982,339,l)
);
}
);
width = 1256;
},
{
layerId = "C35D8726-4A09-4B72-A1E9-09A0D38B7D70";
shapes = (
{
closed = 1;
nodes = (
(900,1670,o),
(831,1699,o),
(799,1718,qs),
(767,1737,o),
(707,1766,o),
(677,1766,qs),
(655,1766,o),
(628,1751,o),
(620,1737,q),
(613,1722,o),
(607,1694,o),
(610,1680,q),
(540,1680,l),
(537,1715,o),
(556,1773,o),
(580,1798,qs),
(603,1822,o),
(658,1846,o),
(692,1846,qs),
(731,1846,o),
(801,1817,o),
(833,1798,qs),
(865,1779,o),
(925,1750,o),
(955,1750,qs),
(992,1750,o),
(1029,1806,o),
(1023,1840,q),
(1093,1840,l),
(1096,1806,o),
(1077,1748,o),
(1054,1722,qs),
(1031,1696,o),
(973,1670,o),
(938,1670,qs)
);
},
{
closed = 1;
nodes = (
(-33,0,l),
(719,1440,l),
(808,1440,l),
(1083,0,l),
(994,0,l),
(727,1402,l),
(786,1402,l),
(56,0,l)
);
},
{
closed = 1;
nodes = (
(225,374,l),
(239,454,l),
(960,454,l),
(947,374,l)
);
}
);
width = 1188;
}
);
leftKerningGroup = A2;
rightKerningGroup = A;
unicode = 195;
},
